<svg viewBox="0 0 413 412" fill="none" xmlns="http://www.w3.org/2000/svg">
<path d="M248.497 31.2041L248.501 31.2104C283.986 84.583 328.449 129.046 381.79 164.499L381.796 164.503C402.338 177.713 412.452 191.912 412.452 205.988C412.452 220.064 402.338 234.271 381.796 247.497L381.79 247.501C328.417 282.986 283.986 327.417 248.501 380.789L248.497 380.796C235.286 401.37 221.08 411.492 207 411.488C192.92 411.484 178.713 401.354 165.503 380.796L165.499 380.79C130.013 327.417 85.5509 282.986 32.2106 247.501L32.2035 247.496C11.6297 234.302 1.49191 220.095 1.48798 206.012C1.48405 191.928 11.6138 177.714 32.2036 164.504L32.2103 164.499C85.615 129.014 130.046 84.583 165.499 31.2103L165.503 31.2048C178.762 10.6617 192.953 0.523794 207.012 0.512002C221.071 0.500211 235.254 10.6135 248.497 31.2041Z" stroke="#0c2141"/>
</svg>
