<svg width="48" height="48" viewBox="0 0 48 48" fill="none" xmlns="http://www.w3.org/2000/svg">
<path fill-rule="evenodd" clip-rule="evenodd" d="M7.2 6.75C7.08065 6.75 6.96619 6.79741 6.8818 6.8818C6.79741 6.96619 6.75 7.08065 6.75 7.2V40.8C6.75 40.9193 6.79741 41.0338 6.8818 41.1182C6.96619 41.2026 7.08065 41.25 7.2 41.25H40.8C40.9193 41.25 41.0338 41.2026 41.1182 41.1182C41.2026 41.0338 41.25 40.9193 41.25 40.8V7.2C41.25 7.08065 41.2026 6.96619 41.1182 6.8818C41.0338 6.79741 40.9193 6.75 40.8 6.75H7.2ZM5.82114 5.82114C6.18684 5.45545 6.68283 5.25 7.2 5.25H40.8C41.3172 5.25 41.8132 5.45545 42.1789 5.82114C42.5446 6.18684 42.75 6.68283 42.75 7.2V40.8C42.75 41.3172 42.5446 41.8132 42.1789 42.1789C41.8132 42.5446 41.3172 42.75 40.8 42.75H7.2C6.68283 42.75 6.18684 42.5446 5.82114 42.1789C5.45545 41.8132 5.25 41.3172 5.25 40.8V7.2C5.25 6.68283 5.45545 6.18684 5.82114 5.82114Z" fill="#0C2141"/>
<path d="M24 25C23.7348 25 23.4804 24.8946 23.2929 24.7071C23.1054 24.5196 23 24.2652 23 24C23 23.7348 23.1054 23.4804 23.2929 23.2929C23.4804 23.1054 23.7348 23 24 23C24.2652 23 24.5196 23.1054 24.7071 23.2929C24.8946 23.4804 25 23.7348 25 24C25 24.2652 24.8946 24.5196 24.7071 24.7071C24.5196 24.8946 24.2652 25 24 25Z" fill="#0C2141"/>
<path fill-rule="evenodd" clip-rule="evenodd" d="M24 23.75C23.9337 23.75 23.8701 23.7763 23.8232 23.8232C23.7763 23.8701 23.75 23.9337 23.75 24C23.75 24.0663 23.7763 24.1299 23.8232 24.1768C23.8701 24.2237 23.9337 24.25 24 24.25C24.0663 24.25 24.1299 24.2237 24.1768 24.1768C24.2237 24.1299 24.25 24.0663 24.25 24C24.25 23.9337 24.2237 23.8701 24.1768 23.8232C24.1299 23.7763 24.0663 23.75 24 23.75ZM22.7626 22.7626C23.0908 22.4344 23.5359 22.25 24 22.25C24.4641 22.25 24.9092 22.4344 25.2374 22.7626C25.5656 23.0908 25.75 23.5359 25.75 24C25.75 24.4641 25.5656 24.9092 25.2374 25.2374C24.9092 25.5656 24.4641 25.75 24 25.75C23.5359 25.75 23.0908 25.5656 22.7626 25.2374C22.4344 24.9092 22.25 24.4641 22.25 24C22.25 23.5359 22.4344 23.0908 22.7626 22.7626Z" fill="#0C2141"/>
</svg>
