<svg viewBox="0 0 37 44" fill="none" xmlns="http://www.w3.org/2000/svg">
<g>
<path id="Subtract" fill-rule="evenodd" clip-rule="evenodd" d="M18.4956 44C18.4956 44 36.9911 31.7345 36.9911 17.6C36.9911 12.9322 34.3458 8.45556 31.0233 5.15492C27.7007 1.85428 23.1944 0 18.4956 0C13.7968 0 9.29044 1.85428 5.9679 5.15492C2.64535 8.45556 0 12.9322 0 17.6C0 30.177 18.4956 44 18.4956 44ZM26.8657 18.3009C26.8657 22.8169 23.2047 26.4779 18.6887 26.4779C14.1727 26.4779 10.5117 22.8169 10.5117 18.3009C10.5117 13.7849 14.1727 10.1239 18.6887 10.1239C23.2047 10.1239 26.8657 13.7849 26.8657 18.3009ZM23.7501 18.4956C23.7501 21.1837 21.571 23.3628 18.8829 23.3628C16.1948 23.3628 14.0156 21.1837 14.0156 18.4956C14.0156 15.8074 16.1948 13.6283 18.8829 13.6283C21.571 13.6283 23.7501 15.8074 23.7501 18.4956Z" fill="currentColor"/>
</g>
</svg>
