<svg viewBox="0 0 132 54" fill="none" xmlns="http://www.w3.org/2000/svg">
<g id="Logo">
<path id="Vector" d="M66.1738 2.5607C66.1738 1.4007 65.2338 0.470703 64.0738 0.470703H59.8538L59.8238 14.4507H46.7038V2.5607C46.7038 1.4007 45.7538 0.470703 44.6038 0.470703H40.3838L40.3438 34.7107H46.6938V19.3807H59.8238V34.7107H66.1738V2.5607Z" fill="navy-blue-100"/>
<path id="Vector_2" d="M32.7038 14.5006C28.3438 10.8406 24.1638 6.68059 20.1838 1.95059C18.5638 0.0305884 15.6038 0.0205884 13.9838 1.95059C10.3238 6.31059 6.16375 10.4906 1.44375 14.4606C-0.476248 16.0806 -0.486248 19.0406 1.44375 20.6606C5.80375 24.3206 9.98375 28.4806 13.9638 33.2006C15.5838 35.1206 18.5438 35.1306 20.1638 33.2006C23.8238 28.8406 27.9838 24.6606 32.7138 20.6806C34.6338 19.0606 34.6438 16.1006 32.7138 14.4806L32.7038 14.5006ZM32.3938 19.9306C26.9738 23.1506 22.6438 27.4806 19.4238 32.9006C19.1138 33.4206 18.6838 33.7806 18.1938 34.0006C18.1738 33.3006 18.0338 30.8706 17.1038 28.0006C16.9338 27.4606 16.7238 26.9106 16.4938 26.3506C16.3438 26.0006 16.1838 25.6406 16.0038 25.2806C14.7738 22.7906 12.6938 20.0206 9.23375 18.2106C9.20375 18.2006 9.17375 18.2006 9.15375 18.2106C8.13375 18.6906 7.04375 19.0706 5.89375 19.3606C5.79375 19.3806 5.79375 19.5206 5.89375 19.5506C9.42375 20.6406 12.0738 22.9206 13.8038 26.3706C14.5338 27.8306 14.9938 29.3106 15.2838 30.5806C15.6338 32.1306 15.7338 33.3706 15.7538 33.9106C15.3438 33.6906 14.9838 33.3506 14.7238 32.9106C11.5038 27.4906 7.17375 23.1606 1.75375 19.9406C1.32375 19.6806 0.993752 19.3406 0.773752 18.9406C2.92375 18.9206 4.80375 18.6206 6.44375 18.1306C7.06375 17.9406 7.64375 17.7306 8.20375 17.4906C12.3038 15.7306 14.6638 12.6506 16.0138 9.93059C16.1838 9.58059 16.3438 9.24059 16.4838 8.90059C16.4938 8.87059 16.4938 8.85059 16.4838 8.82059C15.9638 7.49059 15.6138 6.20059 15.3738 5.07059C15.3538 4.97059 15.2138 4.96059 15.1838 5.07059C14.8938 6.21059 14.4738 7.49059 13.8438 8.77059C11.6838 13.1506 8.04375 15.6606 3.00375 16.2706C2.26375 16.3606 1.48375 16.4106 0.683752 16.4206C0.903752 15.9606 1.25375 15.5406 1.75375 15.2506C7.18375 12.0306 11.5038 7.70059 14.7238 2.28059C15.0438 1.74059 15.5038 1.37059 16.0138 1.15059C16.0238 1.73059 16.1338 4.24059 17.1038 7.22059C17.2738 7.76059 17.4838 8.31059 17.7138 8.87059C17.8638 9.22059 18.0238 9.58059 18.2038 9.94059C19.4338 12.4306 21.5038 15.2006 24.9738 17.0106C25.0038 17.0206 25.0338 17.0306 25.0538 17.0106C26.0738 16.5306 27.1538 16.1506 28.3138 15.8606C28.4138 15.8406 28.4138 15.7006 28.3138 15.6706C24.7838 14.5806 22.1338 12.3006 20.4038 8.85059C19.6738 7.39059 19.2138 5.91059 18.9238 4.64059C18.5738 3.09059 18.4738 1.84059 18.4538 1.30059C18.8337 1.52059 19.1738 1.84059 19.4238 2.27059C22.6438 7.69059 26.9738 12.0206 32.3938 15.2406C32.8438 15.5106 33.1838 15.8706 33.4038 16.2806C31.2738 16.3006 29.4038 16.6006 27.7638 17.0906C27.1438 17.2806 26.5638 17.4906 26.0038 17.7306C21.9038 19.4906 19.5438 22.5706 18.1938 25.2906C18.0238 25.6406 17.8638 25.9806 17.7238 26.3206C17.7238 26.3506 17.7138 26.3706 17.7238 26.4006C18.2438 27.7306 18.5938 29.0206 18.8338 30.1506C18.8538 30.2506 18.9938 30.2606 19.0238 30.1506C19.3038 29.0106 19.7338 27.7306 20.3638 26.4506C22.5238 22.0706 26.1638 19.5606 31.1938 18.9506C31.9138 18.8606 32.6637 18.8106 33.4338 18.8106C33.2137 19.2506 32.8638 19.6506 32.3838 19.9306H32.3938Z" fill="navy-blue-100"/>
<path id="Vector_3" d="M86.0041 35.22C92.5741 35.22 98.2641 31.72 99.9741 23.35L94.2841 21.99C93.1641 27.68 90.3941 30.17 86.4041 30.17C81.1941 30.17 78.2741 25.89 78.2741 17.96C78.2741 8.91 82.2141 4.97 86.8841 4.97C90.3441 4.97 93.2141 6.96 94.1841 12.32L99.7841 10.76C98.3241 3.36 93.4541 0 86.8341 0C78.5641 0 71.7041 5.99 71.7041 17.96C71.7041 29.01 77.0041 35.24 86.0141 35.24" fill="navy-blue-100"/>
<path id="Vector_4" d="M115.934 22.4703C114.364 22.8903 112.844 23.4803 111.394 24.2403L116.614 7.00031L121.104 21.7403C119.354 21.7803 117.614 22.0303 115.924 22.4803M120.854 0.570312H113.944L102.804 34.6403H107.674C107.984 34.1703 108.314 33.7203 108.664 33.2803C109.394 32.3803 110.204 31.5603 111.094 30.8303C113.554 28.8103 116.584 27.4903 119.894 27.1403C119.894 27.1403 120.654 27.0303 121.014 26.2603C121.124 26.0203 121.204 25.7203 121.204 25.3403V21.9803L121.354 22.4603L125.054 34.6303H131.824L120.854 0.570312Z" fill="navy-blue-100"/>
<path id="Vector_5" d="M7.79414 40.7005V46.1105H1.50414V40.7005H0.244141V53.2505H1.49414V47.0505H7.78414V53.2505H9.03414V40.7005H7.78414H7.79414ZM13.6341 52.3005V47.0305H17.7741V46.1305H13.6341V41.6505H19.5441V40.7005H12.3741V53.2505H19.7241V52.3005H13.6341ZM29.8141 53.2505H31.1441L26.8041 40.7005H25.4041L21.0141 53.2505H22.1941L23.3941 49.7405H28.6141L29.8141 53.2505ZM23.7041 48.8205L25.9941 42.0505L28.3041 48.8205H23.6941H23.7041ZM34.5641 52.3005V40.7005H33.3041V53.2505H40.7241V52.3005H34.5641ZM48.8141 40.7005H40.1241V41.6505H43.8341V53.2505H45.0941V41.6505H48.8241V40.7005H48.8141ZM58.7741 40.7005V46.1105H52.4841V40.7005H51.2341V53.2505H52.4841V47.0505H58.7741V53.2505H60.0241V40.7005H58.7741ZM67.8041 53.4605C69.9941 53.4605 71.9941 52.2005 72.5941 49.2705L71.5041 48.9705C70.9641 51.4805 69.6041 52.5005 67.8141 52.5005C65.4141 52.5005 64.0141 50.5505 64.0141 47.0705C64.0141 43.0705 65.9841 41.4605 68.0441 41.4605C69.5641 41.4605 70.9841 42.3005 71.4541 44.6105L72.5441 44.2305C71.9541 41.6105 70.3241 40.4805 68.0241 40.4805C65.3041 40.4805 62.7241 42.5805 62.7241 47.0605C62.7241 51.1605 64.5841 53.4605 67.8141 53.4605H67.8041ZM82.7141 53.2405H84.0441L79.7041 40.6905H78.3041L73.9141 53.2405H75.0941L76.2941 49.7305H81.5141L82.7141 53.2405ZM76.6041 48.8105L78.8941 42.0405L81.2041 48.8105H76.5941H76.6041ZM94.2541 50.1005V49.7405C94.2541 47.9505 93.6241 47.0505 91.9941 46.8705V46.8505C93.6741 46.5505 94.8841 45.6105 94.8841 43.8405C94.8841 41.8205 93.3941 40.6905 90.8141 40.6905H86.2041V53.2405H87.4541V47.2905H90.8641C92.6241 47.2905 93.2341 47.8605 93.1441 49.5305L93.1041 50.1405C93.0141 51.5405 93.1241 52.2405 93.5341 53.2405H95.1641V53.1705C94.3241 52.2705 94.2541 51.1805 94.2541 50.1105V50.1005ZM90.8141 46.4305H87.4641V41.6405H90.8141C92.5941 41.6405 93.6241 42.3905 93.6241 43.8405C93.6241 45.4905 92.5841 46.4205 90.8141 46.4205V46.4305ZM98.8241 52.2905V47.0205H102.964V46.1205H98.8241V41.6405H104.734V40.6905H97.5641V53.2405H104.914V52.2905H98.8241ZM115.684 53.4605C118.244 53.4605 119.714 51.9005 119.714 49.1405V40.7005H118.984V49.1405C118.984 51.4705 117.804 52.7805 115.704 52.7805C113.604 52.7805 112.444 51.4705 112.444 49.1405V40.7005H111.584V49.1405C111.584 51.9005 113.034 53.4605 115.684 53.4605ZM130.614 53.2405H131.634L127.204 45.6605L131.304 40.6905H130.314L124.114 48.2205V40.6905H123.254V53.2405H124.114V49.1705L126.584 46.1805L130.604 53.2405H130.614Z" fill="navy-blue-100"/>
</g>
</svg>
