<svg width="48" height="48" viewBox="0 0 48 48" fill="none" xmlns="http://www.w3.org/2000/svg">
<path fill-rule="evenodd" clip-rule="evenodd" d="M10.6412 30.6412C11.532 29.7504 12.7402 29.25 14 29.25C15.2598 29.25 16.468 29.7504 17.3588 30.6412C18.2496 31.532 18.75 32.7402 18.75 34C18.75 35.2598 18.2496 36.468 17.3588 37.3588C16.468 38.2496 15.2598 38.75 14 38.75C12.7402 38.75 11.532 38.2496 10.6412 37.3588C9.75044 36.468 9.25 35.2598 9.25 34C9.25 32.7402 9.75044 31.532 10.6412 30.6412ZM14 30.75C13.138 30.75 12.3114 31.0924 11.7019 31.7019C11.0924 32.3114 10.75 33.138 10.75 34C10.75 34.862 11.0924 35.6886 11.7019 36.2981C12.3114 36.9076 13.138 37.25 14 37.25C14.862 37.25 15.6886 36.9076 16.2981 36.2981C16.9076 35.6886 17.25 34.862 17.25 34C17.25 33.138 16.9076 32.3114 16.2981 31.7019C15.6886 31.0924 14.862 30.75 14 30.75Z" fill="#0C2141"/>
<path fill-rule="evenodd" clip-rule="evenodd" d="M30.6412 30.6412C31.532 29.7504 32.7402 29.25 34 29.25C35.2598 29.25 36.468 29.7504 37.3588 30.6412C38.2496 31.532 38.75 32.7402 38.75 34C38.75 35.2598 38.2496 36.468 37.3588 37.3588C36.468 38.2496 35.2598 38.75 34 38.75C32.7402 38.75 31.532 38.2496 30.6412 37.3588C29.7504 36.468 29.25 35.2598 29.25 34C29.25 32.7402 29.7504 31.532 30.6412 30.6412ZM34 30.75C33.138 30.75 32.3114 31.0924 31.7019 31.7019C31.0924 32.3114 30.75 33.138 30.75 34C30.75 34.862 31.0924 35.6886 31.7019 36.2981C32.3114 36.9076 33.138 37.25 34 37.25C34.862 37.25 35.6886 36.9076 36.2981 36.2981C36.9076 35.6886 37.25 34.862 37.25 34C37.25 33.138 36.9076 32.3114 36.2981 31.7019C35.6886 31.0924 34.862 30.75 34 30.75Z" fill="#0C2141"/>
<path fill-rule="evenodd" clip-rule="evenodd" d="M9.30364 11.7215C9.41754 11.4367 9.69332 11.25 10 11.25H28C28.2278 11.25 28.4433 11.3536 28.5857 11.5315L36.3605 21.25H38C39.2598 21.25 40.468 21.7504 41.3588 22.6412C42.2496 23.532 42.75 24.7402 42.75 26V34C42.75 34.4142 42.4142 34.75 42 34.75H38C37.5858 34.75 37.25 34.4142 37.25 34C37.25 33.5858 37.5858 33.25 38 33.25H41.25V26C41.25 25.138 40.9076 24.3114 40.2981 23.7019C39.6886 23.0924 38.862 22.75 38 22.75H6.75V33.25H10C10.4142 33.25 10.75 33.5858 10.75 34C10.75 34.4142 10.4142 34.75 10 34.75H6C5.58579 34.75 5.25 34.4142 5.25 34V22C5.25 21.9046 5.26821 21.81 5.30364 21.7215L9.30364 11.7215ZM7.10777 21.25H23.25V12.75H10.5078L7.10777 21.25ZM24.75 12.75V21.25H34.4395L27.6395 12.75H24.75ZM17.25 34C17.25 33.5858 17.5858 33.25 18 33.25H30C30.4142 33.25 30.75 33.5858 30.75 34C30.75 34.4142 30.4142 34.75 30 34.75H18C17.5858 34.75 17.25 34.4142 17.25 34Z" fill="#0C2141"/>
</svg>
