<svg width="48" height="48" viewBox="0 0 48 48" fill="none" xmlns="http://www.w3.org/2000/svg">
<path fill-rule="evenodd" clip-rule="evenodd" d="M7.2 6.75C7.08065 6.75 6.96619 6.79741 6.8818 6.8818C6.79741 6.96619 6.75 7.08065 6.75 7.2V18.8C6.75 18.9193 6.79741 19.0338 6.8818 19.1182C6.96619 19.2026 7.08065 19.25 7.2 19.25H18.8C18.9193 19.25 19.0338 19.2026 19.1182 19.1182C19.2026 19.0338 19.25 18.9193 19.25 18.8V7.2C19.25 7.08065 19.2026 6.96619 19.1182 6.8818C19.0338 6.79741 18.9193 6.75 18.8 6.75H7.2ZM5.82114 5.82114C6.18684 5.45545 6.68283 5.25 7.2 5.25H18.8C19.3172 5.25 19.8132 5.45545 20.1789 5.82114C20.5446 6.18684 20.75 6.68283 20.75 7.2V18.8C20.75 19.3172 20.5446 19.8132 20.1789 20.1789C19.8132 20.5446 19.3172 20.75 18.8 20.75H7.2C6.68283 20.75 6.18684 20.5446 5.82114 20.1789C5.45545 19.8132 5.25 19.3172 5.25 18.8V7.2C5.25 6.68283 5.45545 6.18684 5.82114 5.82114ZM29.2 6.75C29.0807 6.75 28.9662 6.79741 28.8818 6.8818C28.7974 6.96619 28.75 7.08065 28.75 7.2V18.8C28.75 18.9193 28.7974 19.0338 28.8818 19.1182C28.9662 19.2026 29.0807 19.25 29.2 19.25H40.8C40.9193 19.25 41.0338 19.2026 41.1182 19.1182C41.2026 19.0338 41.25 18.9193 41.25 18.8V7.2C41.25 7.08065 41.2026 6.96619 41.1182 6.8818C41.0338 6.79741 40.9193 6.75 40.8 6.75H29.2ZM27.8211 5.82114C28.1868 5.45545 28.6828 5.25 29.2 5.25H40.8C41.3172 5.25 41.8132 5.45545 42.1789 5.82114C42.5446 6.18684 42.75 6.68283 42.75 7.2V18.8C42.75 19.3172 42.5446 19.8132 42.1789 20.1789C41.8132 20.5446 41.3172 20.75 40.8 20.75H29.2C28.6828 20.75 28.1868 20.5446 27.8211 20.1789C27.4554 19.8132 27.25 19.3172 27.25 18.8V7.2C27.25 6.68283 27.4554 6.18684 27.8211 5.82114ZM7.2 28.75C7.08065 28.75 6.96619 28.7974 6.8818 28.8818C6.79741 28.9662 6.75 29.0807 6.75 29.2V40.8C6.75 40.9193 6.79741 41.0338 6.8818 41.1182C6.96619 41.2026 7.08065 41.25 7.2 41.25H18.8C18.9193 41.25 19.0338 41.2026 19.1182 41.1182C19.2026 41.0338 19.25 40.9193 19.25 40.8V29.2C19.25 29.0807 19.2026 28.9662 19.1182 28.8818C19.0338 28.7974 18.9193 28.75 18.8 28.75H7.2ZM5.82114 27.8211C6.18684 27.4554 6.68283 27.25 7.2 27.25H18.8C19.3172 27.25 19.8132 27.4554 20.1789 27.8211C20.5446 28.1868 20.75 28.6828 20.75 29.2V40.8C20.75 41.3172 20.5446 41.8132 20.1789 42.1789C19.8132 42.5446 19.3172 42.75 18.8 42.75H7.2C6.68283 42.75 6.18684 42.5446 5.82114 42.1789C5.45545 41.8132 5.25 41.3172 5.25 40.8V29.2C5.25 28.6828 5.45545 28.1868 5.82114 27.8211ZM29.2 28.75C29.0807 28.75 28.9662 28.7974 28.8818 28.8818C28.7974 28.9662 28.75 29.0807 28.75 29.2V40.8C28.75 40.9193 28.7974 41.0338 28.8818 41.1182C28.9662 41.2026 29.0807 41.25 29.2 41.25H40.8C40.9193 41.25 41.0338 41.2026 41.1182 41.1182C41.2026 41.0338 41.25 40.9193 41.25 40.8V29.2C41.25 29.0807 41.2026 28.9662 41.1182 28.8818C41.0338 28.7974 40.9193 28.75 40.8 28.75H29.2ZM27.8211 27.8211C28.1868 27.4554 28.6828 27.25 29.2 27.25H40.8C41.3172 27.25 41.8132 27.4554 42.1789 27.8211C42.5446 28.1868 42.75 28.6828 42.75 29.2V40.8C42.75 41.3172 42.5446 41.8132 42.1789 42.1789C41.8132 42.5446 41.3172 42.75 40.8 42.75H29.2C28.6828 42.75 28.1868 42.5446 27.8211 42.1789C27.4554 41.8132 27.25 41.3172 27.25 40.8V29.2C27.25 28.6828 27.4554 28.1868 27.8211 27.8211Z" fill="#0C2141"/>
</svg>
