<svg width="48" height="48" viewBox="0 0 48 48" fill="none" xmlns="http://www.w3.org/2000/svg">
<g clip-path="url(#clip0_34199_4684)">
<path fill-rule="evenodd" clip-rule="evenodd" d="M33.4697 5.46967C33.7626 5.17678 34.2374 5.17678 34.5303 5.46967L42.5303 13.4697C42.8232 13.7626 42.8232 14.2374 42.5303 14.5303C42.2374 14.8232 41.7626 14.8232 41.4697 14.5303L33.4697 6.53033C33.1768 6.23744 33.1768 5.76256 33.4697 5.46967Z" fill="#0C2141"/>
<path fill-rule="evenodd" clip-rule="evenodd" d="M38.5303 9.46967C38.8232 9.76256 38.8232 10.2374 38.5303 10.5303L29.5303 19.5303C29.2374 19.8232 28.7626 19.8232 28.4697 19.5303C28.1768 19.2374 28.1768 18.7626 28.4697 18.4697L37.4697 9.46967C37.7626 9.17678 38.2374 9.17678 38.5303 9.46967Z" fill="#0C2141"/>
<path fill-rule="evenodd" clip-rule="evenodd" d="M22.4697 12.4697C22.7626 12.1768 23.2374 12.1768 23.5303 12.4697L35.5303 24.4697C35.8232 24.7626 35.8232 25.2374 35.5303 25.5303C35.2374 25.8232 34.7626 25.8232 34.4697 25.5303L22.4697 13.5303C22.1768 13.2374 22.1768 12.7626 22.4697 12.4697Z" fill="#0C2141"/>
<path fill-rule="evenodd" clip-rule="evenodd" d="M25.5303 14.4697C25.8232 14.7626 25.8232 15.2374 25.5303 15.5303L12.75 28.3107V35.25H19.6893L32.4697 22.4697C32.7626 22.1768 33.2374 22.1768 33.5303 22.4697C33.8232 22.7626 33.8232 23.2374 33.5303 23.5303L20.5303 36.5303C20.3897 36.671 20.1989 36.75 20 36.75H12C11.5858 36.75 11.25 36.4142 11.25 36V28C11.25 27.8011 11.329 27.6103 11.4697 27.4697L24.4697 14.4697C24.7626 14.1768 25.2374 14.1768 25.5303 14.4697Z" fill="#0C2141"/>
<path fill-rule="evenodd" clip-rule="evenodd" d="M14.4697 24.4697C14.7626 24.1768 15.2374 24.1768 15.5303 24.4697L18.5303 27.4697C18.8232 27.7626 18.8232 28.2374 18.5303 28.5303C18.2374 28.8232 17.7626 28.8232 17.4697 28.5303L14.4697 25.5303C14.1768 25.2374 14.1768 24.7626 14.4697 24.4697Z" fill="#0C2141"/>
<path fill-rule="evenodd" clip-rule="evenodd" d="M20.4697 18.4697C20.7626 18.1768 21.2374 18.1768 21.5303 18.4697L24.5303 21.4697C24.8232 21.7626 24.8232 22.2374 24.5303 22.5303C24.2374 22.8232 23.7626 22.8232 23.4697 22.5303L20.4697 19.5303C20.1768 19.2374 20.1768 18.7626 20.4697 18.4697Z" fill="#0C2141"/>
<path fill-rule="evenodd" clip-rule="evenodd" d="M12.5303 35.4697C12.8232 35.7626 12.8232 36.2374 12.5303 36.5303L6.53033 42.5303C6.23744 42.8232 5.76256 42.8232 5.46967 42.5303C5.17678 42.2374 5.17678 41.7626 5.46967 41.4697L11.4697 35.4697C11.7626 35.1768 12.2374 35.1768 12.5303 35.4697Z" fill="#0C2141"/>
</g>
<defs>
<clipPath id="clip0_34199_4684">
<rect width="48" height="48" fill="white"/>
</clipPath>
</defs>
</svg>
