<svg width="48" height="48" viewBox="0 0 48 48" fill="none" xmlns="http://www.w3.org/2000/svg">
<path fill-rule="evenodd" clip-rule="evenodd" d="M24 4.75C19.9554 4.75 16.0766 6.35669 13.2166 9.21662C10.3567 12.0766 8.75 15.9554 8.75 20C8.75 22.0117 9.67155 24.4775 11.1535 27.1097C12.6242 29.7218 14.5949 32.4085 16.5808 34.839C18.5643 37.2666 20.5499 39.4227 22.0406 40.9727C22.7855 41.7473 23.4059 42.3695 23.8394 42.7974C23.8962 42.8535 23.9498 42.9062 24 42.9555C24.0502 42.9062 24.1038 42.8535 24.1606 42.7974C24.5941 42.3695 25.2145 41.7473 25.9594 40.9727C27.4501 39.4227 29.4357 37.2666 31.4192 34.839C33.4051 32.4085 35.3758 29.7218 36.8465 27.1097C38.3285 24.4775 39.25 22.0117 39.25 20C39.25 15.9554 37.6433 12.0766 34.7834 9.21662C31.9234 6.35669 28.0446 4.75 24 4.75ZM24 44C23.4841 44.5444 23.4837 44.544 23.4837 44.544L23.4805 44.541L23.4712 44.5321L23.4356 44.4982C23.4045 44.4684 23.3587 44.4244 23.2992 44.3669C23.1802 44.2519 23.0064 44.0828 22.7856 43.8649C22.3441 43.429 21.7145 42.7975 20.9594 42.0124C19.4501 40.4431 17.4357 38.2559 15.4192 35.788C13.4051 33.323 11.3758 30.5619 9.84646 27.8456C8.32845 25.1495 7.25 22.4063 7.25 20C7.25 15.5576 9.01473 11.2972 12.156 8.15596C15.2972 5.01473 19.5576 3.25 24 3.25C28.4424 3.25 32.7028 5.01473 35.844 8.15596C38.9853 11.2972 40.75 15.5576 40.75 20C40.75 22.4063 39.6715 25.1495 38.1535 27.8456C36.6242 30.5619 34.5949 33.323 32.5808 35.788C30.5643 38.2559 28.5499 40.4431 27.0406 42.0124C26.2855 42.7975 25.6559 43.429 25.2144 43.8649C24.9936 44.0828 24.8198 44.2519 24.7008 44.3669C24.6413 44.4244 24.5955 44.4684 24.5644 44.4982L24.5288 44.5321L24.5195 44.541L24.517 44.5434C24.517 44.5434 24.5159 44.5444 24 44ZM24 44L24.5159 44.5444C24.2266 44.8185 23.773 44.8182 23.4837 44.544L24 44Z" fill="#0C2141"/>
<path fill-rule="evenodd" clip-rule="evenodd" d="M22.0555 18.0555C22.5712 17.5397 23.2707 17.25 24 17.25C24.7293 17.25 25.4288 17.5397 25.9445 18.0555C26.4603 18.5712 26.75 19.2707 26.75 20C26.75 20.7293 26.4603 21.4288 25.9445 21.9445C25.4288 22.4603 24.7293 22.75 24 22.75C23.2707 22.75 22.5712 22.4603 22.0555 21.9445C21.5397 21.4288 21.25 20.7293 21.25 20C21.25 19.2707 21.5397 18.5712 22.0555 18.0555ZM24 18.75C23.6685 18.75 23.3505 18.8817 23.1161 19.1161C22.8817 19.3505 22.75 19.6685 22.75 20C22.75 20.3315 22.8817 20.6495 23.1161 20.8839C23.3505 21.1183 23.6685 21.25 24 21.25C24.3315 21.25 24.6495 21.1183 24.8839 20.8839C25.1183 20.6495 25.25 20.3315 25.25 20C25.25 19.6685 25.1183 19.3505 24.8839 19.1161C24.6495 18.8817 24.3315 18.75 24 18.75Z" fill="#0C2141"/>
</svg>
