<svg width="48" height="48" viewBox="0 0 48 48" fill="none" xmlns="http://www.w3.org/2000/svg">
<path fill-rule="evenodd" clip-rule="evenodd" d="M20.204 14.6344C19.3439 15.3642 18.75 16.466 18.75 18C18.75 18.4142 18.4142 18.75 18 18.75C17.5858 18.75 17.25 18.4142 17.25 18C17.25 16.034 18.0311 14.5108 19.2335 13.4906C20.4196 12.4842 21.9744 12 23.5 12C25.0256 12 26.5804 12.4842 27.7665 13.4906C28.9689 14.5109 29.75 16.034 29.75 18C29.75 19.3909 29.3976 20.412 28.8428 21.2441C28.3607 21.9672 27.7336 22.5278 27.176 23.0263C27.117 23.079 27.0589 23.131 27.0017 23.1824C26.382 23.7401 25.838 24.2648 25.4339 24.9787C25.0372 25.6796 24.75 26.6115 24.75 27.9998C24.75 28.414 24.4142 28.7498 24 28.7498C23.5858 28.7498 23.25 28.414 23.25 27.9998C23.25 26.3881 23.5878 25.1951 24.1286 24.2398C24.662 23.2974 25.368 22.6347 25.9983 22.0674C26.0531 22.0182 26.107 21.9698 26.1602 21.9221C26.7402 21.4019 27.2242 20.9679 27.5947 20.4121C27.9774 19.838 28.25 19.1091 28.25 18C28.25 16.466 27.6561 15.3642 26.796 14.6344C25.9196 13.8908 24.7244 13.5 23.5 13.5C22.2756 13.5 21.0804 13.8908 20.204 14.6344Z" fill="#0C2141"/>
<path fill-rule="evenodd" clip-rule="evenodd" d="M24.522 35.4406C24.8297 35.7178 24.8545 36.192 24.5772 36.4998L24.5572 36.522C24.28 36.8297 23.8058 36.8545 23.498 36.5772C23.1903 36.3 23.1655 35.8258 23.4428 35.518L23.4628 35.4958C23.74 35.1881 24.2142 35.1633 24.522 35.4406Z" fill="#0C2141"/>
<path fill-rule="evenodd" clip-rule="evenodd" d="M3.25 24C3.25 12.5401 12.5401 3.25 24 3.25C35.4598 3.25 44.75 12.5401 44.75 24C44.75 35.4598 35.4598 44.75 24 44.75C20.3216 44.75 16.8647 43.7921 13.8674 42.112L5.13727 43.7373C4.89422 43.7826 4.64448 43.7051 4.46967 43.5303C4.29485 43.3555 4.21742 43.1058 4.26267 42.8627L5.88807 34.1326C4.2078 31.1352 3.25 27.6784 3.25 24ZM24 4.75C13.3685 4.75 4.75 13.3685 4.75 24C4.75 27.5074 5.6874 30.7937 7.32485 33.6245C7.41448 33.7794 7.44573 33.9613 7.41297 34.1373L5.93742 42.0626L13.8627 40.5871C14.0387 40.5543 14.2206 40.5856 14.3755 40.6752C17.2062 42.3125 20.4926 43.25 24 43.25C34.6314 43.25 43.25 34.6314 43.25 24C43.25 13.3685 34.6314 4.75 24 4.75Z" fill="#0C2141"/>
</svg>
