<svg viewBox="0 0 27 26" fill="none" xmlns="http://www.w3.org/2000/svg">
<g id="Group 251">
<path id="Vector (Stroke)" d="M17.5049 7.75904C17.582 7.92329 17.7359 8.03835 17.9152 8.06592L24.9407 9.14571C25.2593 9.19467 25.5237 9.41762 25.6258 9.72333C25.728 10.029 25.6506 10.3662 25.4255 10.5968L20.3019 15.8443C20.1811 15.968 20.1262 16.1418 20.1541 16.3124L21.366 23.7426C21.419 24.0677 21.2817 24.3946 21.0124 24.5843C20.7431 24.774 20.3891 24.7932 20.1008 24.6338L13.8354 21.1692C13.6714 21.0785 13.4723 21.0785 13.3083 21.1692L7.04297 24.6338C6.75469 24.7932 6.4007 24.774 6.13139 24.5843L5.81775 25.0295L6.13138 24.5843C5.86208 24.3946 5.72476 24.0677 5.77779 23.7426L6.98971 16.3124C7.01755 16.1418 6.96268 15.968 6.84187 15.8443L1.71832 10.5968L1.33006 10.9759L1.71832 10.5968C1.49315 10.3662 1.4158 10.029 1.51793 9.72333C1.62006 9.41762 1.88452 9.19467 2.20309 9.14571L9.22858 8.06592C9.40792 8.03835 9.56175 7.92329 9.63885 7.75904L12.7933 1.03926C12.935 0.73738 13.2384 0.544617 13.5719 0.544617C13.9054 0.544617 14.2088 0.737381 14.3505 1.03926L17.5049 7.75904Z" stroke="#96A2A4" stroke-width="1.08923" stroke-linecap="round" stroke-linejoin="round"/>
<path id="Vector (Stroke)_2" d="M13.5719 0C14.1165 0 14.6121 0.314815 14.8435 0.807836L17.9979 7.52762L7.30652 25.1104C6.83572 25.3708 6.25758 25.3394 5.81775 25.0295C5.37793 24.7197 5.15367 24.1859 5.24028 23.655L6.4522 16.2248L1.32864 10.9773C0.960904 10.6006 0.834584 10.05 1.00138 9.55076C1.16817 9.0515 1.60008 8.68738 2.12036 8.60741L9.14585 7.52762L12.3003 0.807836C12.5317 0.314815 13.0273 0 13.5719 0Z" fill="#77C7C3"/>
</g>
</svg>
