<svg viewBox="0 0 26 26" fill="none" xmlns="http://www.w3.org/2000/svg">
<path id="Vector (Stroke)" d="M16.576 7.75904C16.6531 7.92329 16.8069 8.03835 16.9862 8.06592L24.0117 9.14571C24.3303 9.19467 24.5948 9.41762 24.6969 9.72333C24.799 10.029 24.7217 10.3662 24.4965 10.5968L19.3729 15.8443C19.2521 15.968 19.1973 16.1418 19.2251 16.3124L20.437 23.7426C20.4901 24.0677 20.3527 24.3946 20.0834 24.5843C19.8141 24.774 19.4601 24.7932 19.1719 24.6338L12.9065 21.1692C12.7425 21.0785 12.5434 21.0785 12.3794 21.1692L6.11402 24.6338C5.82574 24.7932 5.47174 24.774 5.20243 24.5843L4.8888 25.0295L5.20243 24.5843C4.93312 24.3946 4.79581 24.0677 4.84884 23.7426L6.06076 16.3124C6.08859 16.1418 6.03373 15.968 5.91292 15.8443L0.789362 10.5968L0.401104 10.9759L0.789361 10.5968C0.564193 10.3662 0.486846 10.029 0.588975 9.72333C0.691104 9.41762 0.955567 9.19467 1.27413 9.14571L8.29963 8.06592C8.47896 8.03835 8.63279 7.92329 8.70989 7.75904L11.8643 1.03926C12.006 0.73738 12.3094 0.544617 12.6429 0.544617C12.9764 0.544617 13.2799 0.737381 13.4216 1.03926L16.576 7.75904Z" stroke="#96A2A4" stroke-width="1.08923" stroke-linecap="round" stroke-linejoin="round"/>
</svg>
