<svg width="24" height="25" viewBox="0 0 24 25" fill="none" xmlns="http://www.w3.org/2000/svg">
<g id="Whatsapp">
<path id="Vector" fill-rule="evenodd" clip-rule="evenodd" d="M12.2761 2.5C6.8119 2.5 2.38179 6.86186 2.38179 12.243C2.38179 14.0834 2.90052 15.8048 3.80123 17.2736L2.01562 22.5L7.49337 20.7731C8.91055 21.5442 10.5413 21.9848 12.2761 21.9848C17.7414 21.9848 22.1715 17.623 22.1715 12.2418C22.1715 6.86074 17.7414 2.5 12.2761 2.5ZM12.2761 20.3525C10.6035 20.3525 9.04504 19.8584 7.74426 19.0116L4.57876 20.0097L5.60718 16.9976C4.62058 15.6601 4.03856 14.0177 4.03856 12.2418C4.03969 7.76983 7.73408 4.13125 12.2761 4.13125C16.8181 4.13125 20.5136 7.76983 20.5136 12.2418C20.5136 16.7139 16.8181 20.3525 12.2761 20.3525ZM16.9153 14.4562C16.6666 14.3226 15.4484 13.675 15.2201 13.5838C14.9918 13.4925 14.8245 13.4447 14.6471 13.6873C14.4697 13.9298 13.9634 14.4717 13.8108 14.632C13.6571 14.7922 13.5091 14.8078 13.2604 14.6731C13.0129 14.5396 12.2094 14.247 11.2759 13.3646C10.5504 12.678 10.0746 11.8446 9.93671 11.5909C9.79883 11.3361 9.93671 11.207 10.0667 11.088C10.1842 10.98 10.33 10.8064 10.4622 10.6662C10.5933 10.526 10.6396 10.4237 10.7301 10.2612C10.8205 10.0988 10.7843 9.95188 10.7255 9.82503C10.6668 9.69818 10.2079 8.45638 10.0169 7.95009C9.82596 7.44492 9.61236 7.51947 9.46431 7.51391C9.3174 7.50946 9.14901 7.48164 8.98062 7.47608C8.81223 7.4694 8.53648 7.5217 8.29576 7.76205C8.05504 8.00239 7.37922 8.57989 7.33289 9.80388C7.28655 11.0268 8.14658 12.243 8.26638 12.4132C8.38617 12.5835 9.90846 15.2362 12.4377 16.3266C14.968 17.4171 14.9805 17.0844 15.445 17.0599C15.9094 17.0354 16.9616 16.5136 17.1944 15.9405C17.4272 15.3675 17.4453 14.8701 17.3865 14.7644C17.3278 14.6587 17.1616 14.5897 16.9141 14.4562H16.9153Z" fill="#0c2141"/>
</g>
</svg>
