<svg width="48" height="48" viewBox="0 0 48 48" fill="none" xmlns="http://www.w3.org/2000/svg">
<g clip-path="url(#clip0_34199_4685)">
<path fill-rule="evenodd" clip-rule="evenodd" d="M8.3986 24.3986C10.4146 22.3826 13.1489 21.25 16 21.25C18.8511 21.25 21.5854 22.3826 23.6014 24.3986C25.6174 26.4146 26.75 29.1489 26.75 32C26.75 34.8511 25.6174 37.5854 23.6014 39.6014C21.5854 41.6174 18.8511 42.75 16 42.75C13.1489 42.75 10.4146 41.6174 8.3986 39.6014C6.38259 37.5854 5.25 34.8511 5.25 32C5.25 29.1489 6.38259 26.4146 8.3986 24.3986ZM16 22.75C13.5467 22.75 11.194 23.7246 9.45926 25.4593C7.72455 27.194 6.75 29.5467 6.75 32C6.75 34.4533 7.72455 36.806 9.45926 38.5407C11.194 40.2754 13.5467 41.25 16 41.25C18.4533 41.25 20.806 40.2754 22.5407 38.5407C24.2754 36.806 25.25 34.4533 25.25 32C25.25 29.5467 24.2754 27.194 22.5407 25.4593C20.806 23.7246 18.4533 22.75 16 22.75Z" fill="#0C2141"/>
<path fill-rule="evenodd" clip-rule="evenodd" d="M34.6412 34.6412C35.532 33.7504 36.7402 33.25 38 33.25C39.2598 33.25 40.468 33.7504 41.3588 34.6412C42.2496 35.532 42.75 36.7402 42.75 38C42.75 39.2598 42.2496 40.468 41.3588 41.3588C40.468 42.2496 39.2598 42.75 38 42.75C36.7402 42.75 35.532 42.2496 34.6412 41.3588C33.7504 40.468 33.25 39.2598 33.25 38C33.25 36.7402 33.7504 35.532 34.6412 34.6412ZM38 34.75C37.138 34.75 36.3114 35.0924 35.7019 35.7019C35.0924 36.3114 34.75 37.138 34.75 38C34.75 38.862 35.0924 39.6886 35.7019 40.2981C36.3114 40.9076 37.138 41.25 38 41.25C38.862 41.25 39.6886 40.9076 40.2981 40.2981C40.9076 39.6886 41.25 38.862 41.25 38C41.25 37.138 40.9076 36.3114 40.2981 35.7019C39.6886 35.0924 38.862 34.75 38 34.75Z" fill="#0C2141"/>
<path fill-rule="evenodd" clip-rule="evenodd" d="M24.45 28C24.45 27.5858 24.7857 27.25 25.2 27.25H32C33.7902 27.25 35.5071 27.9612 36.7729 29.227C38.0388 30.4929 38.75 32.2098 38.75 34C38.75 34.4142 38.4142 34.75 38 34.75C37.5857 34.75 37.25 34.4142 37.25 34C37.25 32.6076 36.6968 31.2723 35.7123 30.2877C34.7277 29.3031 33.3923 28.75 32 28.75H25.2C24.7857 28.75 24.45 28.4142 24.45 28Z" fill="#0C2141"/>
<path fill-rule="evenodd" clip-rule="evenodd" d="M5.25 6C5.25 5.58579 5.58579 5.25 6 5.25H8C9.25978 5.25 10.468 5.75044 11.3588 6.64124C12.2496 7.53204 12.75 8.74022 12.75 10V22C12.75 22.4142 12.4142 22.75 12 22.75C11.5858 22.75 11.25 22.4142 11.25 22V10C11.25 9.13805 10.9076 8.3114 10.2981 7.7019C9.6886 7.09241 8.86195 6.75 8 6.75H6C5.58579 6.75 5.25 6.41421 5.25 6Z" fill="#0C2141"/>
<path fill-rule="evenodd" clip-rule="evenodd" d="M11.25 16C11.25 15.5858 11.5858 15.25 12 15.25H34C34.4142 15.25 34.75 15.5858 34.75 16C34.75 16.4142 34.4142 16.75 34 16.75H12C11.5858 16.75 11.25 16.4142 11.25 16Z" fill="#0C2141"/>
<path fill-rule="evenodd" clip-rule="evenodd" d="M30 15.25C30.4142 15.25 30.75 15.5858 30.75 16V28C30.75 28.4142 30.4142 28.75 30 28.75C29.5858 28.75 29.25 28.4142 29.25 28V16C29.25 15.5858 29.5858 15.25 30 15.25Z" fill="#0C2141"/>
</g>
<defs>
<clipPath id="clip0_34199_4685">
<rect width="48" height="48" fill="white"/>
</clipPath>
</defs>
</svg>
