<?xml version="1.0" standalone="no"?>
<!DOCTYPE svg PUBLIC "-//W3C//DTD SVG 20010904//EN"
 "http://www.w3.org/TR/2001/REC-SVG-20010904/DTD/svg10.dtd">
<svg version="1.0" xmlns="http://www.w3.org/2000/svg"
 width="700.000000pt" height="700.000000pt" viewBox="0 0 700.000000 700.000000"
 preserveAspectRatio="xMidYMid meet">
<metadata>
Created by potrace 1.14, written by Peter Selinger 2001-2017
</metadata>
<g transform="translate(0.000000,700.000000) scale(0.100000,-0.100000)"
fill="#000000" stroke="none">
<path d="M3035 6985 c-5 -2 -44 -11 -85 -20 -242 -55 -463 -243 -586 -495 -31
-65 -69 -172 -78 -220 -2 -14 -7 -42 -11 -64 -4 -21 -9 -255 -10 -520 -1 -330
-5 -490 -13 -508 -6 -16 -9 -28 -7 -28 9 0 -47 -116 -77 -160 -66 -95 -166
-171 -279 -212 -63 -22 -75 -23 -584 -29 -490 -5 -524 -7 -595 -27 -99 -28
-133 -41 -210 -81 -284 -146 -474 -413 -496 -699 -10 -126 -135 -112 1065
-112 1116 1 1110 1 1287 55 116 35 296 125 342 172 7 7 17 13 21 13 19 0 194
182 246 255 94 132 169 299 195 435 6 30 14 69 17 85 3 17 8 500 9 1074 4 923
2 1047 -11 1068 -13 20 -23 23 -73 22 -31 0 -61 -2 -67 -4z"/>
<path d="M3833 6973 c-18 -18 -19 -47 -18 -1068 2 -1024 2 -1052 23 -1145 54
-247 156 -435 332 -609 135 -134 322 -244 505 -296 149 -42 176 -43 1257 -44
l1037 -1 17 25 c13 20 15 39 10 93 -28 294 -218 556 -509 699 -94 47 -135 61
-242 83 -80 17 -139 19 -550 19 -495 0 -524 3 -634 52 -166 75 -288 232 -317
410 -4 24 -8 256 -9 514 -2 259 -6 481 -9 495 -3 14 -9 38 -12 55 -3 16 -16
63 -30 103 -117 349 -426 605 -760 629 -61 5 -74 3 -91 -14z"/>
<path d="M3455 4154 c-38 -19 -70 -53 -118 -125 -80 -120 -206 -246 -364 -365
-124 -93 -148 -125 -140 -187 6 -47 29 -73 127 -141 157 -111 267 -224 418
-431 40 -55 70 -76 116 -80 52 -5 89 25 187 155 101 134 231 263 346 344 87
61 143 116 144 144 0 9 2 25 4 34 6 32 -39 82 -140 157 -118 88 -263 228 -326
312 -123 168 -142 187 -196 195 -15 2 -41 -3 -58 -12z"/>
<path d="M16 3161 c-35 -38 -4 -227 59 -359 117 -246 336 -426 621 -509 l89
-26 475 -3 c537 -3 562 -5 659 -43 70 -28 135 -73 194 -134 59 -61 91 -116
125 -210 l26 -72 2 -480 c2 -507 5 -548 51 -689 116 -354 444 -623 768 -629
74 -2 80 0 91 22 15 29 17 2022 3 2116 -14 87 -15 94 -34 165 -20 79 -78 217
-119 285 -169 281 -414 462 -745 553 l-96 27 -1076 3 c-1061 3 -1075 3 -1093
-17z"/>
<path d="M4815 3165 c-97 -15 -152 -29 -225 -57 -346 -134 -601 -397 -714
-738 -34 -102 -38 -122 -53 -232 -4 -29 -7 -516 -8 -1081 0 -1017 0 -1029 20
-1044 15 -11 37 -13 86 -10 200 15 392 109 539 263 107 112 177 227 223 364
47 139 50 177 52 685 3 462 4 483 25 548 48 152 138 262 271 332 121 63 150
66 661 67 251 0 478 4 505 9 26 5 61 12 76 15 50 8 150 46 227 84 277 139 471
409 496 692 5 54 3 73 -10 93 l-17 25 -1037 -1 c-780 -1 -1057 -4 -1117 -14z"/>
</g>
</svg>
