<?xml version="1.0" encoding="utf-8"?>
<!-- Generator: Adobe Illustrator 28.2.0, SVG Export Plug-In . SVG Version: 6.00 Build 0)  -->
<svg version="1.1" id="Layer_1" xmlns="http://www.w3.org/2000/svg" xmlns:xlink="http://www.w3.org/1999/xlink" x="0px" y="0px"
	 viewBox="0 0 25 25" style="enable-background:new 0 0 25 25;" xml:space="preserve">
<style type="text/css">
	.st0{fill-rule:evenodd;clip-rule:evenodd;fill:#7A8596;}
	.st1{fill-rule:evenodd;clip-rule:evenodd;fill:#3B8783;}
</style>
<path class="st0" d="M14.1,22.3l4.4-14.6l5.3,0.8c0.5,0.1,0.9,0.4,1.1,0.9c0.2,0.5,0,1-0.3,1.4L19.5,16l1.2,7.3
	c0.1,0.5-0.1,1.1-0.6,1.4c-0.4,0.3-1,0.3-1.5,0.1L14.1,22.3z"/>
<path class="st1" d="M4.8,24.7L4.8,24.7c-0.4-0.3-0.6-0.8-0.5-1.3L5.5,16l-5.1-5.2C0,10.5-0.1,9.9,0.1,9.4c0.2-0.5,0.6-0.9,1.1-0.9
	l6.9-1.1l3.1-6.6c0.2-0.4,0.5-0.7,0.9-0.8v0c0.1,0,0.2,0,0.3,0c0.5,0,1,0.3,1.3,0.8l3.1,6.6L19,7.8l-4.4,14.8l-2.1-1.2l-6.2,3.4
	C5.8,25.1,5.3,25.1,4.8,24.7C4.8,24.7,4.8,24.7,4.8,24.7z"/>
</svg>
