<svg width="48" height="48" viewBox="0 0 48 48" fill="none" xmlns="http://www.w3.org/2000/svg">
<path fill-rule="evenodd" clip-rule="evenodd" d="M34.5303 16.4697C34.8232 16.7626 34.8232 17.2374 34.5303 17.5303L20.5303 31.5303C20.2374 31.8232 19.7626 31.8232 19.4697 31.5303L13.4697 25.5303C13.1768 25.2374 13.1768 24.7626 13.4697 24.4697C13.7626 24.1768 14.2374 24.1768 14.5303 24.4697L20 29.9393L33.4697 16.4697C33.7626 16.1768 34.2374 16.1768 34.5303 16.4697Z" fill="currentColor"/>
<path fill-rule="evenodd" clip-rule="evenodd" d="M24 42.5C34.2176 42.5 42.5 34.2176 42.5 24C42.5 13.7824 34.2176 5.5 24 5.5C13.7824 5.5 5.5 13.7824 5.5 24C5.5 34.2176 13.7824 42.5 24 42.5ZM44 24C44 35.046 35.046 44 24 44C12.954 44 4 35.046 4 24C4 12.954 12.954 4 24 4C35.046 4 44 12.954 44 24Z" fill="currentColor"/>
</svg>
