<svg width="48" height="48" viewBox="0 0 48 48" fill="none" xmlns="http://www.w3.org/2000/svg">
<path fill-rule="evenodd" clip-rule="evenodd" d="M35.5598 12.3813C35.8527 12.6742 35.8527 13.1491 35.5598 13.442L25.0607 23.9411L35.5598 34.4402C35.8527 34.7331 35.8527 35.208 35.5598 35.5008C35.2669 35.7937 34.792 35.7937 34.4991 35.5008L24 25.0017L13.5009 35.5008C13.208 35.7937 12.7331 35.7937 12.4403 35.5008C12.1474 35.208 12.1474 34.7331 12.4403 34.4402L22.9394 23.9411L12.4403 13.442C12.1474 13.1491 12.1474 12.6742 12.4403 12.3813C12.7331 12.0884 13.208 12.0884 13.5009 12.3813L24 22.8804L34.4991 12.3813C34.792 12.0884 35.2669 12.0884 35.5598 12.3813Z" fill="currentColor"/>
</svg>
