<svg width="48" height="48" viewBox="0 0 48 48" fill="none" xmlns="http://www.w3.org/2000/svg">
<path fill-rule="evenodd" clip-rule="evenodd" d="M32.9568 14.9255C33.2497 15.2184 33.2497 15.6933 32.9568 15.9862L25.0018 23.9411L32.9568 31.8961C33.2497 32.189 33.2497 32.6639 32.9568 32.9567C32.6639 33.2496 32.189 33.2496 31.8961 32.9567L23.9412 25.0018L15.9862 32.9567C15.6933 33.2496 15.2184 33.2496 14.9256 32.9567C14.6327 32.6639 14.6327 32.189 14.9256 31.8961L22.8805 23.9411L14.9256 15.9862C14.6327 15.6933 14.6327 15.2184 14.9256 14.9255C15.2184 14.6326 15.6933 14.6326 15.9862 14.9255L23.9412 22.8805L31.8961 14.9255C32.189 14.6326 32.6639 14.6326 32.9568 14.9255Z" fill="currentColor"/>
</svg>
