<svg width="48" height="48" viewBox="0 0 48 48" fill="none" xmlns="http://www.w3.org/2000/svg">
<path fill-rule="evenodd" clip-rule="evenodd" d="M24 7.25C24.4142 7.25 24.75 7.58579 24.75 8V30.1893L30.4697 24.4697C30.7626 24.1768 31.2374 24.1768 31.5303 24.4697C31.8232 24.7626 31.8232 25.2374 31.5303 25.5303L24.5303 32.5303C24.2374 32.8232 23.7626 32.8232 23.4697 32.5303L16.4697 25.5303C16.1768 25.2374 16.1768 24.7626 16.4697 24.4697C16.7626 24.1768 17.2374 24.1768 17.5303 24.4697L23.25 30.1893V8C23.25 7.58579 23.5858 7.25 24 7.25ZM11.25 40C11.25 39.5858 11.5858 39.25 12 39.25H36C36.4142 39.25 36.75 39.5858 36.75 40C36.75 40.4142 36.4142 40.75 36 40.75H12C11.5858 40.75 11.25 40.4142 11.25 40Z" fill="currentColor"/>
</svg>
