<svg width="48" height="48" viewBox="0 0 48 48" fill="none" xmlns="http://www.w3.org/2000/svg">
<path d="M28.726 11.304L31.686 8.34402C32.0575 7.97241 32.4985 7.67763 32.9839 7.47651C33.4693 7.27539 33.9896 7.17188 34.515 7.17188C35.0404 7.17188 35.5607 7.27539 36.0461 7.47651C36.5315 7.67763 36.9726 7.97241 37.344 8.34402L40.172 11.172C40.9219 11.9221 41.3432 12.9394 41.3432 14C41.3432 15.0607 40.9219 16.0779 40.172 16.828L37.212 19.788M28.726 11.304L9.49402 30.534C8.82998 31.1981 8.42075 32.0746 8.33801 33.01L7.85401 38.49C7.82802 38.7813 7.86624 39.0748 7.96597 39.3498C8.0657 39.6247 8.22452 39.8744 8.43123 40.0813C8.63795 40.2882 8.88753 40.4473 9.16238 40.5473C9.43724 40.6473 9.73067 40.6857 10.022 40.66L15.502 40.176C16.4389 40.0942 17.3169 39.6849 17.982 39.02L37.212 19.788M28.726 11.304L37.212 19.788" stroke="currentColor" stroke-width="1.5" stroke-linecap="round" stroke-linejoin="round"/>
</svg>
