<svg width="48" height="48" viewBox="0 0 48 48" fill="none" xmlns="http://www.w3.org/2000/svg">
<g clip-path="url(#clip0_34199_4504)">
<path fill-rule="evenodd" clip-rule="evenodd" d="M8 12.75C7.13805 12.75 6.3114 13.0924 5.7019 13.7019C5.09241 14.3114 4.75 15.138 4.75 16V32C4.75 32.862 5.09241 33.6886 5.7019 34.2981C6.3114 34.9076 7.13805 35.25 8 35.25H40C40.862 35.25 41.6886 34.9076 42.2981 34.2981C42.9076 33.6886 43.25 32.862 43.25 32V16C43.25 15.138 42.9076 14.3114 42.2981 13.7019C41.6886 13.0924 40.862 12.75 40 12.75H8ZM4.64124 12.6412C5.53204 11.7504 6.74022 11.25 8 11.25H40C41.2598 11.25 42.468 11.7504 43.3588 12.6412C44.2496 13.532 44.75 14.7402 44.75 16V32C44.75 33.2598 44.2496 34.468 43.3588 35.3588C42.468 36.2496 41.2598 36.75 40 36.75H8C6.74022 36.75 5.53204 36.2496 4.64124 35.3588C3.75044 34.468 3.25 33.2598 3.25 32V16C3.25 14.7402 3.75044 13.532 4.64124 12.6412Z" fill="currentColor"/>
<path fill-rule="evenodd" clip-rule="evenodd" d="M12 19.25C12.4142 19.25 12.75 19.5858 12.75 20V20.02C12.75 20.4342 12.4142 20.77 12 20.77C11.5858 20.77 11.25 20.4342 11.25 20.02V20C11.25 19.5858 11.5858 19.25 12 19.25Z" fill="currentColor"/>
<path fill-rule="evenodd" clip-rule="evenodd" d="M20 19.25C20.4142 19.25 20.75 19.5858 20.75 20V20.02C20.75 20.4342 20.4142 20.77 20 20.77C19.5858 20.77 19.25 20.4342 19.25 20.02V20C19.25 19.5858 19.5858 19.25 20 19.25Z" fill="currentColor"/>
<path fill-rule="evenodd" clip-rule="evenodd" d="M28 19.25C28.4142 19.25 28.75 19.5858 28.75 20V20.02C28.75 20.4342 28.4142 20.77 28 20.77C27.5858 20.77 27.25 20.4342 27.25 20.02V20C27.25 19.5858 27.5858 19.25 28 19.25Z" fill="currentColor"/>
<path fill-rule="evenodd" clip-rule="evenodd" d="M36 19.25C36.4142 19.25 36.75 19.5858 36.75 20V20.02C36.75 20.4342 36.4142 20.77 36 20.77C35.5858 20.77 35.25 20.4342 35.25 20.02V20C35.25 19.5858 35.5858 19.25 36 19.25Z" fill="currentColor"/>
<path fill-rule="evenodd" clip-rule="evenodd" d="M12 27.25C12.4142 27.25 12.75 27.5858 12.75 28V28.02C12.75 28.4342 12.4142 28.77 12 28.77C11.5858 28.77 11.25 28.4342 11.25 28.02V28C11.25 27.5858 11.5858 27.25 12 27.25Z" fill="currentColor"/>
<path fill-rule="evenodd" clip-rule="evenodd" d="M36 27.25C36.4142 27.25 36.75 27.5858 36.75 28V28.02C36.75 28.4342 36.4142 28.77 36 28.77C35.5858 28.77 35.25 28.4342 35.25 28.02V28C35.25 27.5858 35.5858 27.25 36 27.25Z" fill="currentColor"/>
<path fill-rule="evenodd" clip-rule="evenodd" d="M19.25 27.9981C19.251 27.5839 19.5877 27.249 20.0019 27.25L28.0019 27.27C28.4161 27.271 28.751 27.6077 28.75 28.0219C28.749 28.4361 28.4123 28.771 27.9981 28.77L19.9981 28.75C19.5839 28.749 19.249 28.4123 19.25 27.9981Z" fill="currentColor"/>
</g>
<defs>
<clipPath id="clip0_34199_4504">
<rect width="48" height="48" fill="currentColor"/>
</clipPath>
</defs>
</svg>
