<svg width="48" height="48" viewBox="0 0 48 48" fill="none" xmlns="http://www.w3.org/2000/svg">
<path fill-rule="evenodd" clip-rule="evenodd" d="M5.25 10C5.25 9.58579 5.58579 9.25 6 9.25H26C26.4142 9.25 26.75 9.58579 26.75 10C26.75 10.4142 26.4142 10.75 26 10.75H6C5.58579 10.75 5.25 10.4142 5.25 10ZM5.25 24C5.25 23.5858 5.58579 23.25 6 23.25H36C36.4142 23.25 36.75 23.5858 36.75 24C36.75 24.4142 36.4142 24.75 36 24.75H6C5.58579 24.75 5.25 24.4142 5.25 24ZM5.25 38C5.25 37.5858 5.58579 37.25 6 37.25H42C42.4142 37.25 42.75 37.5858 42.75 38C42.75 38.4142 42.4142 38.75 42 38.75H6C5.58579 38.75 5.25 38.4142 5.25 38Z" fill="currentColor"/>
</svg>
