<svg width="48" height="48" viewBox="0 0 48 48" fill="none" xmlns="http://www.w3.org/2000/svg">
<g clip-path="url(#clip0_34199_4237)">
<path fill-rule="evenodd" clip-rule="evenodd" d="M9.25 42C9.25 41.5858 9.58579 41.25 10 41.25H38C38.4142 41.25 38.75 41.5858 38.75 42C38.75 42.4142 38.4142 42.75 38 42.75H10C9.58579 42.75 9.25 42.4142 9.25 42Z" fill="currentColor"/>
<path fill-rule="evenodd" clip-rule="evenodd" d="M11.25 36C11.25 35.5858 11.5858 35.25 12 35.25H16C16.4142 35.25 16.75 35.5858 16.75 36C16.75 36.4142 16.4142 36.75 16 36.75H12C11.5858 36.75 11.25 36.4142 11.25 36Z" fill="currentColor"/>
<path fill-rule="evenodd" clip-rule="evenodd" d="M14 35.25C14.4142 35.25 14.75 35.5858 14.75 36V42C14.75 42.4142 14.4142 42.75 14 42.75C13.5858 42.75 13.25 42.4142 13.25 42V36C13.25 35.5858 13.5858 35.25 14 35.25Z" fill="currentColor"/>
<path fill-rule="evenodd" clip-rule="evenodd" d="M29.4697 9.46967C29.7626 9.17678 30.2374 9.17678 30.5303 9.46967L36.5303 15.4697C36.8232 15.7626 36.8232 16.2374 36.5303 16.5303L24.5303 28.5303C24.2374 28.8232 23.7626 28.8232 23.4697 28.5303L17.4697 22.5303C17.1768 22.2374 17.1768 21.7626 17.4697 21.4697L29.4697 9.46967ZM19.0607 22L24 26.9393L34.9393 16L30 11.0607L19.0607 22Z" fill="currentColor"/>
<path fill-rule="evenodd" clip-rule="evenodd" d="M21.5303 24.4697C21.8232 24.7626 21.8232 25.2374 21.5303 25.5303L18.5303 28.5303C18.2374 28.8232 17.7626 28.8232 17.4697 28.5303C17.1768 28.2374 17.1768 27.7626 17.4697 27.4697L20.4697 24.4697C20.7626 24.1768 21.2374 24.1768 21.5303 24.4697Z" fill="currentColor"/>
<path fill-rule="evenodd" clip-rule="evenodd" d="M33.4697 5.46967C33.7626 5.17678 34.2374 5.17678 34.5303 5.46967L40.5303 11.4697C40.8232 11.7626 40.8232 12.2374 40.5303 12.5303C40.2374 12.8232 39.7626 12.8232 39.4697 12.5303L33.4697 6.53033C33.1768 6.23744 33.1768 5.76256 33.4697 5.46967Z" fill="currentColor"/>
<path fill-rule="evenodd" clip-rule="evenodd" d="M30.841 20.1117C31.0974 19.7865 31.569 19.7306 31.8943 19.9871C33.9754 21.6275 35.4936 23.8757 36.2379 26.4189C36.9822 28.9622 36.9155 31.6741 36.0473 34.1777C35.179 36.6814 33.5522 38.8522 31.3931 40.3886C29.234 41.9249 26.6498 42.7503 23.9999 42.75C23.5857 42.75 23.25 42.4142 23.25 42C23.25 41.5858 23.5859 41.25 24.0001 41.25C26.3382 41.2503 28.6184 40.522 30.5235 39.1664C32.4286 37.8108 33.8639 35.8953 34.6301 33.6862C35.3962 31.4772 35.455 29.0843 34.7983 26.8402C34.1415 24.5962 32.8019 22.6125 30.9657 21.1651C30.6404 20.9086 30.5846 20.437 30.841 20.1117Z" fill="currentColor"/>
</g>
<defs>
<clipPath id="clip0_34199_4237">
<rect width="48" height="48" fill="currentColor"/>
</clipPath>
</defs>
</svg>
