<svg width="48" height="48" viewBox="0 0 48 48" fill="none" xmlns="http://www.w3.org/2000/svg">
<path fill-rule="evenodd" clip-rule="evenodd" d="M10 6.75C9.13805 6.75 8.3114 7.09241 7.7019 7.7019C7.09241 8.3114 6.75 9.13805 6.75 10V38C6.75 38.862 7.09241 39.6886 7.7019 40.2981C8.3114 40.9076 9.13805 41.25 10 41.25H38C38.862 41.25 39.6886 40.9076 40.2981 40.2981C40.9076 39.6886 41.25 38.862 41.25 38V10C41.25 9.13805 40.9076 8.3114 40.2981 7.7019C39.6886 7.09241 38.862 6.75 38 6.75H10ZM6.64124 6.64124C7.53204 5.75044 8.74022 5.25 10 5.25H38C39.2598 5.25 40.468 5.75044 41.3588 6.64124C42.2496 7.53204 42.75 8.74022 42.75 10V38C42.75 39.2598 42.2496 40.468 41.3588 41.3588C40.468 42.2496 39.2598 42.75 38 42.75H10C8.74022 42.75 7.53204 42.2496 6.64124 41.3588C5.75044 40.468 5.25 39.2598 5.25 38V10C5.25 8.74022 5.75044 7.53204 6.64124 6.64124Z" fill="currentColor"/>
<path fill-rule="evenodd" clip-rule="evenodd" d="M19.25 16C19.25 15.5858 19.5858 15.25 20 15.25H25.334C26.3988 15.25 27.2711 15.8974 27.843 16.7552C28.4184 17.6183 28.75 18.7676 28.75 20C28.75 21.2324 28.4184 22.3817 27.843 23.2448C27.2711 24.1026 26.3988 24.75 25.334 24.75H20.75V32C20.75 32.4142 20.4142 32.75 20 32.75C19.5858 32.75 19.25 32.4142 19.25 32V16ZM20.75 23.25H25.334C25.7412 23.25 26.2019 23.0024 26.595 22.4127C26.9846 21.8283 27.25 20.9776 27.25 20C27.25 19.0224 26.9846 18.1717 26.595 17.5873C26.2019 16.9976 25.7412 16.75 25.334 16.75H20.75V23.25Z" fill="currentColor"/>
</svg>
