<svg width="48" height="48" viewBox="0 0 48 48" fill="none" xmlns="http://www.w3.org/2000/svg">
<path fill-rule="evenodd" clip-rule="evenodd" d="M20.6663 16.4112V16.4112L31.5733 22.8745C32.4283 23.3813 32.4283 24.6187 31.5734 25.1255L20.6663 31.5889C19.7942 32.1057 18.6912 31.477 18.6912 30.4634V17.5366C18.6912 16.5229 19.7943 15.8944 20.6663 16.4112ZM20.1912 17.8732L30.5303 24L20.1912 30.1269V17.8732Z" fill="currentColor"/>
<path fill-rule="evenodd" clip-rule="evenodd" d="M24.0368 4.20007C13.1993 4.20007 4.41382 12.9856 4.41382 23.8231C4.41382 34.6606 13.1993 43.4461 24.0368 43.4461C34.8743 43.4461 43.6598 34.6606 43.6598 23.8231C43.6598 12.9856 34.8743 4.20007 24.0368 4.20007ZM2.91382 23.8231C2.91382 12.1572 12.3709 2.70007 24.0368 2.70007C35.7027 2.70007 45.1598 12.1572 45.1598 23.8231C45.1598 35.489 35.7027 44.9461 24.0368 44.9461C12.3709 44.9461 2.91382 35.489 2.91382 23.8231Z" fill="currentColor"/>
</svg>
