<svg width="48" height="48" viewBox="0 0 48 48" fill="none" xmlns="http://www.w3.org/2000/svg">
<path fill-rule="evenodd" clip-rule="evenodd" d="M23.4697 5.46967C23.7626 5.17678 24.2374 5.17678 24.5303 5.46967L31.5303 12.4697C31.8232 12.7626 31.8232 13.2374 31.5303 13.5303C31.2374 13.8232 30.7626 13.8232 30.4697 13.5303L24.75 7.81066V30C24.75 30.4142 24.4142 30.75 24 30.75C23.5858 30.75 23.25 30.4142 23.25 30V7.81066L17.5303 13.5303C17.2374 13.8232 16.7626 13.8232 16.4697 13.5303C16.1768 13.2374 16.1768 12.7626 16.4697 12.4697L23.4697 5.46967ZM8 25.25C8.41421 25.25 8.75 25.5858 8.75 26V38C8.75 38.862 9.09241 39.6886 9.7019 40.2981C10.3114 40.9076 11.138 41.25 12 41.25H36C36.862 41.25 37.6886 40.9076 38.2981 40.2981C38.9076 39.6886 39.25 38.862 39.25 38V26C39.25 25.5858 39.5858 25.25 40 25.25C40.4142 25.25 40.75 25.5858 40.75 26V38C40.75 39.2598 40.2496 40.468 39.3588 41.3588C38.468 42.2496 37.2598 42.75 36 42.75H12C10.7402 42.75 9.53204 42.2496 8.64124 41.3588C7.75044 40.468 7.25 39.2598 7.25 38V26C7.25 25.5858 7.58579 25.25 8 25.25Z" fill="currentColor"/>
</svg>
