<svg width="48" height="48" viewBox="0 0 48 48" fill="none" xmlns="http://www.w3.org/2000/svg">
<path d="M36 21.2C36 27.3852 24 38 24 38C24 38 12 27.3852 12 21.2C12 18.2296 13.2643 15.3808 15.5147 13.2804C17.7652 11.18 20.8174 10 24 10C27.1826 10 30.2348 11.18 32.4853 13.2804C34.7357 15.3808 36 18.2296 36 21.2Z" stroke="currentColor" stroke-width="1.5" stroke-linecap="round" stroke-linejoin="round"/>
<path d="M24 22C24.5304 22 25.0391 21.7893 25.4142 21.4142C25.7893 21.0391 26 20.5304 26 20C26 19.4696 25.7893 18.9609 25.4142 18.5858C25.0391 18.2107 24.5304 18 24 18C23.4696 18 22.9609 18.2107 22.5858 18.5858C22.2107 18.9609 22 19.4696 22 20C22 20.5304 22.2107 21.0391 22.5858 21.4142C22.9609 21.7893 23.4696 22 24 22Z" stroke="currentColor" stroke-width="1.5" stroke-linecap="round" stroke-linejoin="round"/>
</svg>
