<svg width="48" height="49" viewBox="0 0 48 49" fill="none" xmlns="http://www.w3.org/2000/svg">
<g id="Stethoscope">
<path id="Vector 1" d="M30 36.5V36.5C30 41.4706 25.9706 45.5 21 45.5L19 45.5C12.9249 45.5 8 40.5751 8 34.5L8 32.5" stroke="currentColor" stroke-width="2" stroke-linecap="round" stroke-linejoin="round"/>
<path id="Rectangle 1" d="M24 10.5V10.5C20.6863 10.5 18 13.1863 18 16.5L18 28.5C18 32.9183 21.5817 36.5 26 36.5L34 36.5C38.4183 36.5 42 32.9183 42 28.5L42 17.5C42 13.634 38.866 10.5 35 10.5V10.5" stroke="currentColor" stroke-width="2" stroke-linecap="round" stroke-linejoin="round"/>
<line id="Line 1" x1="1" y1="-1" x2="11" y2="-1" transform="matrix(1.22392e-07 -1 -1 -1.42062e-07 24 16.5)" stroke="currentColor" stroke-width="2" stroke-linecap="round" stroke-linejoin="round"/>
<line id="Line 2" x1="1" y1="-1" x2="11" y2="-1" transform="matrix(1.22392e-07 -1 -1 -1.42062e-07 33 16.5)" stroke="currentColor" stroke-width="2" stroke-linecap="round" stroke-linejoin="round"/>
<circle id="Ellipse 1" cx="6" cy="6" r="6" transform="matrix(-1 -8.74228e-08 -8.74228e-08 1 14 20.5)" stroke="currentColor" stroke-width="2" stroke-linecap="round" stroke-linejoin="round"/>
</g>
</svg>
