<svg width="48" height="48" viewBox="0 0 48 48" fill="none" xmlns="http://www.w3.org/2000/svg">
<path fill-rule="evenodd" clip-rule="evenodd" d="M7.2 14.75C7.08065 14.75 6.96619 14.7974 6.8818 14.8818C6.79741 14.9662 6.75 15.0807 6.75 15.2V32.8C6.75 32.8591 6.76164 32.9176 6.78425 32.9722C6.80687 33.0268 6.84002 33.0764 6.8818 33.1182C6.92359 33.16 6.9732 33.1931 7.02779 33.2157C7.08238 33.2384 7.1409 33.25 7.2 33.25H28.8C28.8591 33.25 28.9176 33.2384 28.9722 33.2157C29.0268 33.1931 29.0764 33.16 29.1182 33.1182C29.16 33.0764 29.1931 33.0268 29.2157 32.9722C29.2384 32.9176 29.25 32.8591 29.25 32.8V15.2C29.25 15.0807 29.2026 14.9662 29.1182 14.8818C29.0338 14.7974 28.9193 14.75 28.8 14.75H7.2ZM5.82114 13.8211C6.18684 13.4554 6.68283 13.25 7.2 13.25H28.8C29.3172 13.25 29.8132 13.4554 30.1789 13.8211C30.5446 14.1868 30.75 14.6828 30.75 15.2V22.3987L39.5519 15.0638C39.8366 14.8267 40.1832 14.6754 40.5507 14.628C40.9183 14.5807 41.2917 14.639 41.6273 14.7962C41.9629 14.9535 42.2467 15.203 42.4455 15.5158C42.6444 15.8285 42.75 16.1914 42.75 16.562V31.4393C42.7494 31.8096 42.6433 32.1721 42.4442 32.4843C42.2451 32.7965 41.9613 33.0456 41.6258 33.2025C41.2903 33.3593 40.9172 33.4173 40.5499 33.3698C40.1827 33.3224 39.8365 33.1713 39.552 32.9343L30.75 25.601V32.8C30.75 33.0561 30.6996 33.3096 30.6016 33.5462C30.5036 33.7828 30.3599 33.9978 30.1789 34.1789C29.9978 34.3599 29.7828 34.5036 29.5462 34.6016C29.3096 34.6996 29.0561 34.75 28.8 34.75H7.2C6.94393 34.75 6.69036 34.6996 6.45377 34.6016C6.21718 34.5036 6.00221 34.3599 5.82114 34.1789C5.64007 33.9978 5.49643 33.7828 5.39843 33.5462C5.30044 33.3096 5.25 33.0561 5.25 32.8V15.2C5.25 14.6828 5.45545 14.1868 5.82114 13.8211ZM31.1716 23.9999L40.512 31.7817V31.7817C40.5776 31.8364 40.6576 31.8713 40.7423 31.8822C40.827 31.8932 40.9132 31.8798 40.9906 31.8436C41.068 31.8074 41.1335 31.7499 41.1794 31.6779C41.2254 31.6058 41.2499 31.5222 41.25 31.4367V16.562C41.25 16.4765 41.2256 16.3928 41.1797 16.3206C41.1339 16.2484 41.0684 16.1908 40.9909 16.1546C40.9135 16.1183 40.8273 16.1048 40.7425 16.1157C40.6577 16.1267 40.5777 16.1615 40.512 16.2163L31.1716 23.9999Z" fill="currentColor"/>
</svg>
