<svg width="48" height="48" viewBox="0 0 48 48" fill="none" xmlns="http://www.w3.org/2000/svg">
<path d="M18.344 29.658L29.656 18.344M29.656 18.344L29.656 28.244M29.656 18.344L19.756 18.344M7.2 6L40.8 6C41.1183 6 41.4235 6.12643 41.6485 6.35147C41.8736 6.57651 42 6.88174 42 7.2L42 40.8C42 41.1183 41.8736 41.4235 41.6485 41.6485C41.4235 41.8736 41.1183 42 40.8 42L7.2 42C6.88174 42 6.57652 41.8736 6.35147 41.6485C6.12643 41.4235 6 41.1183 6 40.8L6 7.2C6 6.88174 6.12643 6.57651 6.35147 6.35147C6.57651 6.12643 6.88174 6 7.2 6Z" stroke="currentColor" stroke-width="1.5" stroke-linecap="round" stroke-linejoin="round"/>
</svg>
