<svg width="48" height="48" viewBox="0 0 48 48" fill="none" xmlns="http://www.w3.org/2000/svg">
<path fill-rule="evenodd" clip-rule="evenodd" d="M24 11.25C24.4142 11.25 24.75 11.5858 24.75 12V23.25H36C36.4142 23.25 36.75 23.5858 36.75 24C36.75 24.4142 36.4142 24.75 36 24.75H24C23.5858 24.75 23.25 24.4142 23.25 24V12C23.25 11.5858 23.5858 11.25 24 11.25Z" fill="currentColor"/>
<path fill-rule="evenodd" clip-rule="evenodd" d="M3.25 24C3.25 12.5398 12.5398 3.25 24 3.25C34.4027 3.25 43.0153 10.905 44.5177 20.8884C44.5793 21.298 44.2972 21.68 43.8876 21.7416C43.478 21.8033 43.096 21.5212 43.0344 21.1116C41.6407 11.851 33.6493 4.75 24 4.75C13.3682 4.75 4.75 13.3682 4.75 24C4.75 34.6318 13.3682 43.25 24 43.25C31.8914 43.25 38.6778 38.5003 41.6487 31.6998C41.8145 31.3202 42.2567 31.1469 42.6362 31.3127C43.0158 31.4785 43.1891 31.9207 43.0233 32.3002C39.8222 39.6277 32.5086 44.75 24 44.75C12.5398 44.75 3.25 35.4602 3.25 24Z" fill="currentColor"/>
<path fill-rule="evenodd" clip-rule="evenodd" d="M33.25 32C33.25 31.5858 33.5858 31.25 34 31.25H42.8C43.0561 31.25 43.3096 31.3004 43.5462 31.3984C43.7828 31.4964 43.9978 31.6401 44.1789 31.8211C44.3599 32.0022 44.5036 32.2172 44.6016 32.4538C44.6996 32.6904 44.75 32.9439 44.75 33.2V42C44.75 42.4142 44.4142 42.75 44 42.75C43.5858 42.75 43.25 42.4142 43.25 42V33.2C43.25 33.1409 43.2384 33.0824 43.2157 33.0278C43.1931 32.9732 43.16 32.9236 43.1182 32.8818C43.0764 32.84 43.0268 32.8069 42.9722 32.7843C42.9176 32.7616 42.8591 32.75 42.8 32.75H34C33.5858 32.75 33.25 32.4142 33.25 32Z" fill="currentColor"/>
</svg>
