<svg width="24" height="24" viewBox="0 0 24 24" fill="none" xmlns="http://www.w3.org/2000/svg">
<g id="Linkedin">
<path id="Vector" d="M6.52865 4.12657C6.52865 5.30106 5.65619 6.25314 4.22181 6.25314C2.87246 6.25131 2 5.30106 2 4.12657C2 2.95209 2.90018 2 4.27911 2C5.65804 2 6.50092 2.92268 6.52865 4.12657ZM2.11275 21.6078V7.92941H6.38817V21.6078H2.11275Z" fill="currentColor"/>
<path id="Vector_2" d="M8.9464 12.2928C8.9464 10.5872 8.89094 9.16088 8.83364 7.92941H12.5471L12.7449 9.83175H12.8299C13.3919 8.93664 14.7708 7.62247 17.0776 7.62247C19.8909 7.62247 22 9.49723 22 13.5243V21.6079H17.7246V14.0279C17.7246 12.2653 17.1054 11.0632 15.5582 11.0632C14.3771 11.0632 13.6747 11.8738 13.3641 12.6568C13.2514 12.9361 13.2237 13.3276 13.2237 13.7191V21.606H8.94824V12.291L8.9464 12.2928Z" fill="currentColor"/>
</g>
</svg>
