<svg width="48" height="48" viewBox="0 0 48 48" fill="none" xmlns="http://www.w3.org/2000/svg">
<path fill-rule="evenodd" clip-rule="evenodd" d="M3.29981 8.20592C2.88598 5.47369 5.07117 3.25 7.73541 3.25H15.2374C15.5498 3.25 15.8295 3.44364 15.9394 3.73606L18.8494 11.4761C18.8976 11.6041 18.9098 11.7429 18.8847 11.8775L17.385 19.9215C19.282 24.525 22.4767 27.546 27.7167 30.2149L35.7007 28.6677C35.8379 28.6411 35.9798 28.6534 36.1104 28.7031L43.8744 31.6611C44.1652 31.7719 44.3574 32.0508 44.3574 32.362V39.53C44.3574 42.3496 41.8924 44.5757 39.0522 43.9589L39.0518 43.9588C32.9827 42.6367 21.8439 39.2971 14.0771 31.5303C6.65963 24.1129 4.14759 13.8231 3.29988 8.20639M7.73541 4.75C5.88781 4.75 4.5211 6.25406 4.78295 7.98161L4.78302 7.98208C5.61538 13.4975 8.06341 23.3953 15.1377 30.4697C22.5907 37.9227 33.3756 41.1871 39.3706 42.4931C41.1904 42.8883 42.8574 41.4824 42.8574 39.53V32.8788L35.7762 30.181L27.7501 31.7363C27.5875 31.7678 27.4191 31.7446 27.271 31.6703C21.5944 28.8218 17.9978 25.4953 15.9111 20.2785C15.8583 20.1466 15.8441 20.0023 15.8701 19.8625L17.3718 11.8082L14.7181 4.75H7.73541Z" fill="currentColor"/>
</svg>
