<svg width="48" height="48" viewBox="0 0 48 48" fill="none" xmlns="http://www.w3.org/2000/svg">
<path d="M26 10H42" stroke="currentColor" stroke-width="1.5" stroke-linecap="round" stroke-linejoin="round"/>
<path fill-rule="evenodd" clip-rule="evenodd" d="M25.25 18C25.25 17.5858 25.5858 17.25 26 17.25H36C36.4142 17.25 36.75 17.5858 36.75 18C36.75 18.4142 36.4142 18.75 36 18.75H26C25.5858 18.75 25.25 18.4142 25.25 18Z" fill="currentColor"/>
<path fill-rule="evenodd" clip-rule="evenodd" d="M25.25 30C25.25 29.5858 25.5858 29.25 26 29.25H42C42.4142 29.25 42.75 29.5858 42.75 30C42.75 30.4142 42.4142 30.75 42 30.75H26C25.5858 30.75 25.25 30.4142 25.25 30Z" fill="currentColor"/>
<path fill-rule="evenodd" clip-rule="evenodd" d="M25.25 38C25.25 37.5858 25.5858 37.25 26 37.25H36C36.4142 37.25 36.75 37.5858 36.75 38C36.75 38.4142 36.4142 38.75 36 38.75H26C25.5858 38.75 25.25 38.4142 25.25 38Z" fill="currentColor"/>
<path fill-rule="evenodd" clip-rule="evenodd" d="M8 8.75C7.66848 8.75 7.35054 8.8817 7.11612 9.11612C6.8817 9.35054 6.75 9.66848 6.75 10V18C6.75 18.3315 6.8817 18.6495 7.11612 18.8839C7.35054 19.1183 7.66848 19.25 8 19.25H16C16.3315 19.25 16.6495 19.1183 16.8839 18.8839C17.1183 18.6495 17.25 18.3315 17.25 18V10C17.25 9.66848 17.1183 9.35054 16.8839 9.11612C16.6495 8.8817 16.3315 8.75 16 8.75H8ZM6.05546 8.05546C6.57118 7.53973 7.27065 7.25 8 7.25H16C16.7293 7.25 17.4288 7.53973 17.9445 8.05546C18.4603 8.57118 18.75 9.27065 18.75 10V18C18.75 18.7293 18.4603 19.4288 17.9445 19.9445C17.4288 20.4603 16.7293 20.75 16 20.75H8C7.27065 20.75 6.57118 20.4603 6.05546 19.9445C5.53973 19.4288 5.25 18.7293 5.25 18V10C5.25 9.27065 5.53973 8.57118 6.05546 8.05546Z" fill="currentColor"/>
<path fill-rule="evenodd" clip-rule="evenodd" d="M8 28.75C7.66848 28.75 7.35054 28.8817 7.11612 29.1161C6.8817 29.3505 6.75 29.6685 6.75 30V38C6.75 38.3315 6.8817 38.6495 7.11612 38.8839C7.35054 39.1183 7.66848 39.25 8 39.25H16C16.3315 39.25 16.6495 39.1183 16.8839 38.8839C17.1183 38.6495 17.25 38.3315 17.25 38V30C17.25 29.6685 17.1183 29.3505 16.8839 29.1161C16.6495 28.8817 16.3315 28.75 16 28.75H8ZM6.05546 28.0555C6.57118 27.5397 7.27065 27.25 8 27.25H16C16.7293 27.25 17.4288 27.5397 17.9445 28.0555C18.4603 28.5712 18.75 29.2707 18.75 30V38C18.75 38.7293 18.4603 39.4288 17.9445 39.9445C17.4288 40.4603 16.7293 40.75 16 40.75H8C7.27066 40.75 6.57118 40.4603 6.05546 39.9445C5.53973 39.4288 5.25 38.7293 5.25 38V30C5.25 29.2707 5.53973 28.5712 6.05546 28.0555Z" fill="currentColor"/>
</svg>
