<svg width="24" height="24" viewBox="0 0 24 24" fill="none" xmlns="http://www.w3.org/2000/svg">
<g id="Stethoscope">
<path id="Vector 1" d="M9 19V19C9 20.6569 10.3431 22 12 22H14.5C17.5376 22 20 19.5376 20 16.5V15.5" stroke="currentColor" stroke-width="2" stroke-linecap="round"/>
<path id="Rectangle 1" d="M12 5H12.0455C13.6772 5 15 6.3228 15 7.95455V12C15 15.3137 12.3137 18 9 18V18C5.68629 18 3 15.3137 3 12V7.95454C3 6.32279 4.3228 5 5.95455 5H6.5" stroke="currentColor" stroke-width="2" stroke-linecap="round"/>
<line id="Line 1" x1="11" y1="7" x2="11" y2="3" stroke="currentColor" stroke-width="2" stroke-linecap="round"/>
<line id="Line 2" x1="7" y1="7" x2="7" y2="3" stroke="currentColor" stroke-width="2" stroke-linecap="round"/>
<circle id="Ellipse 1" cx="20" cy="13" r="2" stroke="currentColor" stroke-width="2" stroke-linecap="round"/>
</g>
</svg>
