<svg width="48" height="48" viewBox="0 0 48 48" fill="none" xmlns="http://www.w3.org/2000/svg">
<path fill-rule="evenodd" clip-rule="evenodd" d="M3.25 24C3.25 12.5398 12.5398 3.25 24 3.25C35.4602 3.25 44.75 12.5398 44.75 24C44.75 35.4602 35.4602 44.75 24 44.75C12.5398 44.75 3.25 35.4602 3.25 24ZM24 4.75C13.3682 4.75 4.75 13.3682 4.75 24C4.75 34.6318 13.3682 43.25 24 43.25C34.6318 43.25 43.25 34.6318 43.25 24C43.25 13.3682 34.6318 4.75 24 4.75ZM24 13.25C24.4142 13.25 24.75 13.5858 24.75 14V26C24.75 26.4142 24.4142 26.75 24 26.75C23.5858 26.75 23.25 26.4142 23.25 26V14C23.25 13.5858 23.5858 13.25 24 13.25ZM24.5245 33.4431C24.831 33.7217 24.8536 34.196 24.5749 34.5025L24.5549 34.5245C24.2763 34.831 23.802 34.8536 23.4955 34.5749C23.189 34.2963 23.1664 33.822 23.4451 33.5155L23.4651 33.4935C23.7437 33.187 24.218 33.1644 24.5245 33.4431Z" fill="currentColor"/>
</svg>
