<svg width="161" height="46" viewBox="0 0 161 46" fill="none" xmlns="http://www.w3.org/2000/svg">
<g clip-path="url(#clip0_19472_5948)">
<path d="M65.7884 33.8955V45.241H63.9548V40.391H57.818V45.241H55.9844V33.8955H57.818V38.6593H63.9548V33.8955H65.7884Z" fill="#0C2141"/>
<path d="M74.9751 41.987H69.2334C69.4557 43.3736 70.4435 43.9653 71.5425 43.9653C72.3204 43.9653 73.1477 43.6571 73.7897 43.1456L74.6356 44.3535C73.6848 45.167 72.6105 45.4505 71.4375 45.4505C69.11 45.4505 67.4615 43.8297 67.4615 41.3646C67.4615 38.8995 69.0421 37.2787 71.3326 37.2787C73.623 37.2787 75.0122 38.9303 75.0122 41.3584C75.0122 41.5803 74.9936 41.796 74.9813 41.9932L74.9751 41.987ZM73.2711 40.6929C73.0859 39.485 72.3759 38.7824 71.2955 38.7824C70.0916 38.7824 69.4187 39.5589 69.2334 40.6929H73.2711Z" fill="#0C2141"/>
<path d="M82.8592 40.6128V45.241H81.1552V44.3104C80.7416 44.9082 79.9143 45.4443 78.6548 45.4443C76.8953 45.4443 75.9075 44.3905 75.9075 42.9854C75.9075 41.4694 77.0496 40.5635 79.05 40.5635H81.1429C81.0626 39.4357 80.4267 38.8133 79.1549 38.8133C78.2968 38.8133 77.5621 39.1892 77.0126 39.5898L76.3149 38.2525C77.2966 37.5314 78.3461 37.2726 79.3772 37.2726C81.6245 37.2726 82.8592 38.5483 82.8592 40.6128ZM81.1491 42.1781V41.8515H79.2228C78.0683 41.8515 77.7288 42.3568 77.7288 42.9053C77.7288 43.4538 78.1115 43.8852 78.9697 43.8852C79.9143 43.8852 81.1491 43.3921 81.1491 42.1719V42.1781Z" fill="#0C2141"/>
<path d="M84.7977 33.5688H86.5017V45.241H84.7977V33.5688Z" fill="#0C2141"/>
<path d="M94.2869 44.6741C93.6634 45.0931 92.8731 45.4444 91.8977 45.4444C90.1319 45.4444 89.1009 44.4953 89.1009 42.4308V39.0167H87.5513V37.476H89.1009V35.1281H90.8049V37.476H93.7869V39.0167H90.8049V42.3939C90.8049 43.4415 91.3544 43.8421 92.0397 43.8421C92.5644 43.8421 93.1448 43.6079 93.6078 43.3183L94.2808 44.6741H94.2869Z" fill="#0C2141"/>
<path d="M102.51 40.3601V45.241H100.806V40.9209C100.806 39.6144 100.134 38.8872 98.9975 38.8872C97.8616 38.8872 96.9849 39.6329 96.9849 40.9394V45.241H95.2809V33.5688H96.9849V38.4004C97.6208 37.5006 98.5654 37.2726 99.3556 37.2726C101.208 37.2726 102.517 38.5483 102.517 40.3601H102.51Z" fill="#0C2141"/>
<path d="M103.937 41.3585C103.937 39.0351 105.554 37.2726 108.03 37.2726C109.19 37.2726 110.246 37.6916 110.938 38.5113L109.851 39.6699C109.308 39.1584 108.727 38.8687 107.98 38.8687C106.672 38.8687 105.684 39.8917 105.684 41.3585C105.684 42.8252 106.672 43.8482 107.98 43.8482C108.727 43.8482 109.394 43.4969 109.888 43.0347L110.938 44.1995C110.234 45.0191 109.19 45.4382 108.03 45.4382C105.554 45.4382 103.937 43.6818 103.937 41.3523V41.3585Z" fill="#0C2141"/>
<path d="M118.668 40.6128V45.241H116.964V44.3104C116.55 44.9082 115.723 45.4443 114.463 45.4443C112.697 45.4443 111.716 44.3905 111.716 42.9854C111.716 41.4694 112.858 40.5635 114.858 40.5635H116.951C116.871 39.4357 116.235 38.8133 114.963 38.8133C114.105 38.8133 113.37 39.1892 112.821 39.5898L112.123 38.2525C113.105 37.5314 114.154 37.2726 115.186 37.2726C117.433 37.2726 118.668 38.5483 118.668 40.6128ZM116.964 42.1781V41.8515H115.037C113.883 41.8515 113.543 42.3568 113.543 42.9053C113.543 43.4538 113.926 43.8852 114.784 43.8852C115.729 43.8852 116.964 43.3921 116.964 42.1719V42.1781Z" fill="#0C2141"/>
<path d="M125.848 37.4944L125.44 39.1707C125.082 38.9858 124.563 38.8872 124.15 38.8872C123.045 38.8872 122.298 39.6822 122.298 40.9702V45.2409H120.6V37.476H122.279V38.3511C122.798 37.6115 123.588 37.2726 124.539 37.2726C125.057 37.2726 125.459 37.3404 125.848 37.4944Z" fill="#0C2141"/>
<path d="M133.756 41.987H128.015C128.237 43.3736 129.225 43.9653 130.324 43.9653C131.101 43.9653 131.929 43.6571 132.571 43.1456L133.417 44.3535C132.466 45.167 131.392 45.4505 130.219 45.4505C127.891 45.4505 126.243 43.8297 126.243 41.3646C126.243 38.8995 127.823 37.2787 130.114 37.2787C132.404 37.2787 133.793 38.9303 133.793 41.3584C133.793 41.5803 133.775 41.796 133.762 41.9932L133.756 41.987ZM132.052 40.6929C131.867 39.485 131.157 38.7824 130.077 38.7824C128.873 38.7824 128.2 39.5589 128.015 40.6929H132.052Z" fill="#0C2141"/>
<path d="M139.097 40.7669V33.8955H140.93V40.6313C140.93 42.7944 142.159 43.688 143.918 43.688C145.678 43.688 146.907 42.7944 146.907 40.6313V33.8955H148.74V40.7669C148.74 43.9222 146.604 45.4444 143.918 45.4444C141.233 45.4444 139.097 43.9222 139.097 40.7669Z" fill="#0C2141"/>
<path d="M154.056 40.3602L152.259 42.3076V45.241H150.426V33.8955H152.259V39.9041L157.649 33.8955H160.02L155.285 39.0352L160.366 45.2472H157.871L154.044 40.3663L154.056 40.3602Z" fill="#0C2141"/>
<path d="M5.93925 30.9683H10.903C12.854 30.9683 14.4406 32.5459 14.4406 34.4995V39.4543C14.4406 42.4987 16.9163 45.389 19.9724 45.3828C20.1576 45.3828 20.312 45.2226 20.312 45.0377V32.6446C20.312 28.4909 16.9349 25.1199 12.7737 25.1199H0.345745C0.16053 25.1199 9.85519e-06 25.2678 9.85519e-06 25.4527C-0.00616399 28.4971 2.88937 30.9745 5.93925 30.9745V30.9683Z" fill="#00558C"/>
<path d="M5.93925 15.2533H10.903C12.854 15.2533 14.4406 13.6757 14.4406 11.7221V6.7673C14.4406 3.72293 16.9163 0.832623 19.9724 0.838785C20.1576 0.838785 20.312 0.999016 20.312 1.1839V13.5771C20.312 17.7307 16.9349 21.1017 12.7737 21.1017H0.345745C0.16053 21.1017 9.85519e-06 20.9538 9.85519e-06 20.7689C-0.00616399 17.7246 2.88937 15.2472 5.93925 15.2472V15.2533Z" fill="#00558C"/>
<path d="M38.6791 30.9683H33.7153C31.7644 30.9683 30.1777 32.5459 30.1777 34.4995V39.4543C30.1777 42.4987 27.702 45.389 24.646 45.3828C24.4607 45.3828 24.3064 45.2226 24.3064 45.0377V32.6446C24.3064 28.4909 27.6835 25.1199 31.8447 25.1199H44.2603C44.4455 25.1199 44.606 25.2678 44.606 25.4527C44.6122 28.4971 41.7166 30.9745 38.6668 30.9745L38.6791 30.9683Z" fill="#00558C"/>
<path d="M38.6791 15.2533H33.7153C31.7644 15.2533 30.1777 13.6757 30.1777 11.7221V6.7673C30.1777 3.72293 27.702 0.832623 24.646 0.838785C24.4607 0.838785 24.3064 0.999016 24.3064 1.1839V13.5771C24.3064 17.7307 27.6835 21.1017 31.8447 21.1017H44.2603C44.4455 21.1017 44.606 20.9538 44.606 20.7689C44.6122 17.7246 41.7166 15.2472 38.6668 15.2472L38.6791 15.2533Z" fill="#00558C"/>
<path d="M23.1828 19.4686C23.9237 20.5778 24.8498 21.5022 25.9611 22.2418C26.8192 22.7902 26.8192 23.4373 25.9611 23.9858C24.8498 24.7253 23.9237 25.6497 23.1828 26.759C22.6334 27.6156 21.9851 27.6156 21.4356 26.759C20.6948 25.6497 19.7687 24.7253 18.6574 23.9858C17.7993 23.4373 17.7993 22.7902 18.6574 22.2418C19.7687 21.5022 20.6948 20.5778 21.4356 19.4686C21.9913 18.6119 22.6334 18.6119 23.1828 19.4686Z" fill="#00558C"/>
<path d="M61.7632 12.0857H73.8886C74.0306 12.0857 74.1418 11.9748 74.1418 11.833V1.48587C74.1418 1.19622 74.3764 0.962036 74.6665 0.962036H79.1302C79.4204 0.962036 79.655 1.19622 79.655 1.48587V28.0656C79.655 28.3552 79.4204 28.5894 79.1302 28.5894H74.6665C74.3764 28.5894 74.1418 28.3552 74.1418 28.0656V17.4781C74.1418 17.3363 74.0306 17.2254 73.8886 17.2254H61.7632C61.6212 17.2254 61.5101 17.3363 61.5101 17.4781V28.0656C61.5101 28.3552 61.2755 28.5894 60.9853 28.5894H56.5216C56.2314 28.5894 55.9968 28.3552 55.9968 28.0656V1.48587C55.9968 1.19622 56.2314 0.962036 56.5216 0.962036H61.0223C61.294 0.962036 61.5162 1.18389 61.5162 1.45505V11.8454C61.5162 11.9871 61.6274 12.098 61.7694 12.098L61.7632 12.0857Z" fill="#0C2141"/>
<path d="M108.691 8.74555L104.986 10.7546C104.764 10.8963 104.474 10.8409 104.319 10.6252C104.165 10.4095 103.758 9.67611 102.727 8.42509C101.245 6.63174 99.0778 5.73199 96.5466 5.73199C91.6754 5.73199 88.0699 9.40496 88.0699 14.7727C88.0884 20.3191 91.8112 23.8133 96.5466 23.8133C98.9235 23.8133 100.924 22.9013 102.486 21.3421C103.146 20.6827 103.955 19.3824 104.233 18.9818C104.387 18.7538 104.708 18.7168 104.924 18.877L108.826 20.732C109.055 20.8984 109.086 21.2188 108.937 21.4592C108.752 21.7612 107.839 23.4929 107.024 24.4481C104.566 27.3261 100.918 29.1071 96.5774 29.1071C88.3106 29.1071 82.4825 23.0861 82.4825 14.7788C82.4825 6.47151 88.3106 0.444397 96.5774 0.444397C101.103 0.444397 105.073 2.38565 107.394 5.68269C108.542 7.3158 108.746 7.84579 108.851 8.01835C109.005 8.26486 108.937 8.59764 108.691 8.74555Z" fill="#0C2141"/>
<path d="M137.072 27.9238L126.675 1.26401C126.601 1.07913 126.422 0.955872 126.224 0.955872H120.168C119.97 0.955872 119.785 1.07913 119.717 1.26401L109.32 27.9238C109.197 28.2443 109.431 28.5832 109.771 28.5832H114.475C114.679 28.5832 114.858 28.46 114.932 28.2689L117.161 22.3158C117.198 22.2172 117.297 22.1494 117.402 22.1494H121.594C124.1 22.0138 125.798 19.9246 125.792 17.3671C125.792 17.2069 125.65 17.0775 125.49 17.0775H119.489C119.31 17.0775 119.186 16.8988 119.248 16.7324L122.89 7.04462C122.971 6.82276 123.285 6.82276 123.372 7.04462L131.318 28.2689C131.392 28.46 131.571 28.5832 131.775 28.5832H136.621C136.961 28.5832 137.195 28.2381 137.072 27.9238Z" fill="#0C2141"/>
</g>
<defs>
<clipPath id="clip0_19472_5948">
<rect width="160.372" height="45" fill="white" transform="translate(0 0.444397)"/>
</clipPath>
</defs>
</svg>
