<?xml version="1.0" encoding="utf-8"?>
<!-- Generator: Adobe Illustrator 25.4.1, SVG Export Plug-In . SVG Version: 6.00 Build 0)  -->
<svg version="1.1" id="Layer_1" xmlns="http://www.w3.org/2000/svg" xmlns:xlink="http://www.w3.org/1999/xlink" x="0px" y="0px"
	 viewBox="0 0 425.2 121.67" style="enable-background:new 0 0 425.2 121.67;" xml:space="preserve">
<style type="text/css">
	.st0{fill:#051B3F;}
	.st1{fill:#00AFB4;}
</style>
<g>
	<g>
		<g id="XMLID_30_">
			<rect x="5.79" y="62.03" class="st0" width="413.62" height="1.35"/>
		</g>
		<g>
			<g>
				<path class="st0" d="M7.19,101.2c0.73-1.34,2.13-2.13,3.89-2.13c2.93,0,4.75,1.88,4.75,5.67c0,3.78-1.92,5.66-4.85,5.66
					c-1.76,0-3.05-0.73-3.78-2.07v5.94H6V99.21h1.19V101.2z M10.89,109.35c2.11,0,3.7-1.21,3.7-4.62c0-3.39-1.59-4.62-3.7-4.62
					c-2.11,0-3.72,1.23-3.72,4.62C7.17,108.14,8.78,109.35,10.89,109.35z"/>
				<path class="st0" d="M23.3,103.73l2.07-0.27v-0.8c0-1.94-1-2.59-2.95-2.59c-2.11,0-3.05,0.77-3.07,2.34h-1.19
					c0-1.59,0.86-3.34,4.2-3.34c3.7,0,4.22,1.94,4.22,3.76v5.6c0,0.37,0.04,1.55,0.15,1.82h-1.25l-0.04-0.57
					c-0.02-0.33-0.02-0.77-0.02-1.25c-0.38,0.71-1.74,1.96-4.1,1.96c-2.01,0-3.64-1.09-3.64-3.22c0-2.19,1.69-2.82,2.82-3.05
					L23.3,103.73z M25.37,104.44l-4.1,0.56c-1.36,0.17-2.38,0.65-2.38,2.13c0,1.34,0.92,2.28,2.68,2.28c2.09,0,3.8-1.29,3.8-3.53
					V104.44z"/>
				<path class="st0" d="M34.19,100.45c-1.9,0-3.57,0.82-3.57,3.97v5.83h-1.19V99.21h1.19v2.05c0.71-1.48,2.34-2.05,3.72-2.05h0.63
					v1.23H34.19z"/>
				<path class="st0" d="M42.5,110.19l-0.46,0.06c-0.31,0.02-0.71,0.04-1.21,0.04c-1.76,0-2.42-0.59-2.42-2.66v-7.4h-1.88v-1.02
					h1.88v-3.6h1.21v3.6h3.01v1.02h-3.01v7.15c0,1.67,0.33,1.86,1.59,1.86c0.23,0,1.09-0.08,1.3-0.08V110.19z"/>
				<path class="st0" d="M53.85,110.4c-2.95,0-4.96-1.9-4.96-5.66c0-3.76,2.01-5.67,4.96-5.67c2.93,0,4.93,1.88,4.93,5.67
					C58.79,108.52,56.78,110.4,53.85,110.4z M53.85,109.35c2.11,0,3.7-1.21,3.7-4.62c0-3.39-1.59-4.62-3.7-4.62
					c-2.11,0-3.72,1.23-3.72,4.62C50.13,108.14,51.74,109.35,53.85,109.35z"/>
				<path class="st0" d="M63.05,100.24v10.01h-1.19v-10.01h-2.01v-1.02h2.01v-2.13c0-1.5,0.94-2.4,2.59-2.4
					c0.27,0,0.63,0.02,0.94,0.02h0.54v1.02h-1.07c-1.07,0-1.82,0.12-1.82,1.51v1.99h2.68v1.02H63.05z"/>
			</g>
			<g>
				<polygon id="XMLID_20_" class="st1" points="190.35,81.64 190.35,110.3 187.89,110.3 187.89,97 170.77,97 170.77,110.3 
					168.31,110.3 168.31,81.64 170.77,81.64 170.77,94.7 187.89,94.7 187.89,81.64 				"/>
				<path class="st1" d="M205.39,108.54c3.6,0,6.27-2.05,6.72-5.82h2.33c-0.65,5.2-4.14,7.86-9.09,7.86c-5.61,0-9.66-3.73-9.66-11.1
					c0-6.67,4.01-11.1,9.58-11.1c5.73,0,9.21,4.38,9.21,11.3H198.1C198.22,104.61,200.15,108.54,205.39,108.54 M205.23,90.44
					c-3.73,0-6.59,2.54-7.05,7.29h13.88C211.62,92.28,208.5,90.44,205.23,90.44"/>
				<path class="st1" d="M233.66,97v-1.56c0-3.81-1.97-5.08-5.77-5.08c-4.14,0-5.98,1.51-6.02,4.59h-2.33
					c0-3.12,1.68-6.55,8.23-6.55c7.25,0,8.27,3.81,8.27,7.37v10.98c0,0.74,0.08,3.03,0.29,3.56h-2.46l-0.08-1.11
					c-0.04-0.65-0.04-1.51-0.04-2.45c-0.74,1.39-3.4,3.85-8.03,3.85c-3.93,0-7.13-2.13-7.13-6.3c0-4.3,3.32-5.53,5.53-5.98
					l5.49-0.78L233.66,97z M225.63,100.02c-2.66,0.33-4.67,1.27-4.67,4.18c0,2.62,1.8,4.47,5.24,4.47c4.09,0,7.45-2.54,7.45-6.92
					v-2.82L225.63,100.02z"/>
				<rect id="XMLID_15_" x="242.07" y="81.64" class="st1" width="2.33" height="28.67"/>
				<path id="XMLID_14_" class="st1" d="M257.67,110.39c-3.81,0-5.08-1.02-5.08-5.2v-14.5h-3.68v-2h3.68v-5.82h2.38v5.82h5.9v2h-5.9
					v14c0,3.15,0.65,3.65,2.83,3.65c0.9,0,2.25-0.08,2.83-0.16v2.01C259.8,110.3,258.74,110.39,257.67,110.39"/>
				<path id="XMLID_13_" class="st1" d="M280.86,96.42c0-4.46-2.54-5.98-5.61-5.98c-3.77,0-7.33,2.5-7.33,7.98v11.88h-2.33V81.64
					h2.33v10.73c1.47-2.46,4.14-3.97,7.78-3.97c4.63,0,7.5,2.66,7.5,7.04v14.87h-2.33V96.42z"/>
				<path id="XMLID_12_" class="st1" d="M297.95,110.59c-5.65,0-9.75-3.73-9.75-11.1c0-7.37,4.3-11.1,9.75-11.1
					c4.51,0,8.27,2.5,8.8,7.49h-2.33c-0.53-4.06-3.32-5.45-6.43-5.45c-4.14,0-7.37,2.5-7.37,9.09c0,6.47,3.36,9.01,7.41,9.01
					c3.6,0,6.15-1.92,6.6-5.82h2.29C306.31,107.93,302.99,110.59,297.95,110.59"/>
				<path class="st1" d="M325.93,97v-1.56c0-3.81-1.97-5.08-5.77-5.08c-4.14,0-5.98,1.51-6.02,4.59h-2.33
					c0-3.12,1.68-6.55,8.23-6.55c7.25,0,8.27,3.81,8.27,7.37v10.98c0,0.74,0.08,3.03,0.29,3.56h-2.46l-0.08-1.11
					c-0.04-0.65-0.04-1.51-0.04-2.45c-0.74,1.39-3.4,3.85-8.03,3.85c-3.93,0-7.12-2.13-7.12-6.3c0-4.3,3.32-5.53,5.53-5.98
					l5.48-0.78L325.93,97z M317.91,100.02c-2.66,0.33-4.67,1.27-4.67,4.18c0,2.62,1.8,4.47,5.24,4.47c4.09,0,7.45-2.54,7.45-6.92
					v-2.82L317.91,100.02z"/>
				<path id="XMLID_9_" class="st1" d="M336.68,98.88v11.42h-2.34V88.68h2.34v4.01c1.39-2.91,4.59-4.01,7.29-4.01h1.23v2.41h-1.51
					C339.95,91.1,336.68,92.69,336.68,98.88"/>
				<path class="st1" d="M357.81,108.54c3.61,0,6.27-2.05,6.72-5.82h2.33c-0.66,5.2-4.14,7.86-9.09,7.86
					c-5.61,0-9.66-3.73-9.66-11.1c0-6.67,4.01-11.1,9.58-11.1c5.73,0,9.21,4.38,9.21,11.3h-16.38
					C350.64,104.61,352.57,108.54,357.81,108.54 M357.64,90.44c-3.72,0-6.59,2.54-7.04,7.29h13.88
					C364.03,92.28,360.92,90.44,357.64,90.44"/>
				<path id="XMLID_6_" class="st1" d="M388,108.54c3.77,0,5.98-2.05,5.98-6.14v-14h2.33v14c0,5.82-3.69,8.19-8.36,8.19
					c-4.63,0-8.19-2.46-8.19-8.27V88.4h2.33v13.92C382.1,106.41,384.35,108.54,388,108.54"/>
				<polygon id="XMLID_5_" class="st1" points="404.68,104.65 404.68,110.3 402.34,110.3 402.34,88.4 404.68,88.4 404.68,101.87 
					416.02,88.4 418.6,88.4 410.94,97.69 419.42,110.3 416.68,110.3 409.3,99.12 				"/>
				<g>
					<path class="st0" d="M101.18,86.19v19.57c0,2.41,0.9,3.44,3.36,3.69c0.29,0.04,0.41,0.2,0.41,0.45v0.41H93.03v-0.41
						c0-0.24,0.12-0.41,0.41-0.45c2.66-0.29,3.32-1.52,3.32-3.69v-9.09c0-0.16-0.12-0.24-0.25-0.24H80.95
						c-0.12,0-0.25,0.08-0.25,0.24v9.09c0,2.17,0.65,3.4,3.32,3.69c0.29,0.04,0.41,0.2,0.41,0.45v0.41H72.52v-0.41
						c0-0.24,0.12-0.41,0.41-0.45c2.46-0.25,3.36-1.27,3.36-3.69V86.19c0-2.17-0.61-3.4-3.36-3.69c-0.29-0.04-0.41-0.2-0.41-0.45
						v-0.41h11.91v0.41c0,0.24-0.12,0.41-0.41,0.45c-2.42,0.29-3.32,1.31-3.32,3.69v8.39c0,0.12,0.08,0.24,0.25,0.24h15.56
						c0.16,0,0.25-0.12,0.25-0.24v-8.39c0-2.38-0.9-3.4-3.32-3.69c-0.29-0.04-0.41-0.2-0.41-0.45v-0.41h11.91v0.41
						c0,0.24-0.12,0.41-0.41,0.45C101.79,82.79,101.18,84.02,101.18,86.19z"/>
					<path class="st0" d="M121.74,110.75c-8.31,0-15.48-4.67-15.48-14.33c0-9.01,5.9-15.23,15.48-15.23c3.68,0,7.86,0.61,11.05,1.31
						v7.16h-0.57c-0.21,0-0.37-0.12-0.45-0.33c-1.88-4.79-5.53-6.96-9.7-6.96c-5.98,0-10.81,4.14-10.81,12.57
						c0,9.05,5.12,13.92,12.32,13.92c4.54,0,7.57-1.88,9.5-4.46c0.2-0.29,0.49-0.33,0.78-0.16l0.41,0.25
						C131.61,108.71,127.43,110.75,121.74,110.75z"/>
					<path class="st0" d="M152.86,110.3v-0.41c0-0.24,0.12-0.41,0.53-0.45c1.8-0.12,2.37-0.86,2.37-1.97c0-0.94-0.45-2.01-1.1-3.89
						l-1.35-3.93c-0.08-0.21-0.25-0.33-0.45-0.33h-10.07c-0.2,0-0.37,0.12-0.45,0.33l-1.06,2.74c-0.53,1.43-1.31,3.48-1.31,4.75
						c0,1.6,0.82,2.13,2.7,2.29c0.29,0.04,0.41,0.2,0.41,0.45v0.41h-9.13v-0.41c0-0.24,0.12-0.41,0.53-0.45
						c2.21-0.21,2.74-1.52,5.65-8.11l8.02-20.02h2.46c0.21,0,0.41,0.12,0.49,0.33l9.01,22.89c1.23,3.07,2.09,4.54,4.34,4.91
						c0.25,0.04,0.37,0.16,0.37,0.41v0.45H152.86z M152.41,97.37l-4.26-11.38c-0.04-0.12-0.08-0.16-0.12-0.16
						c-0.04,0-0.08,0.04-0.12,0.16l-4.59,11.38c-0.08,0.17,0,0.33,0.21,0.33h8.68C152.41,97.7,152.49,97.53,152.41,97.37z"/>
				</g>
			</g>
		</g>
	</g>
</g>
<g>
	<path class="st0" d="M414.74,42.72h4.67V7.79h-4.67V42.72z M402.71,35.49c-1.57,2.12-3.99,3.3-6.35,3.3
		c-4.48,0-7.68-3.49-7.68-7.63c0-4.03,2.95-7.63,7.43-7.63c2.8,0,5.17,1.43,6.59,3.3V35.49z M402.86,42.72h4.53V19.6h-4.53v2.12
		c-2.12-1.82-4.63-2.61-7.23-2.61c-2.16,0-4.08,0.54-5.66,1.48c-3.49,2.07-5.95,5.95-5.95,10.58s2.41,8.46,5.9,10.53
		c1.57,0.93,3.74,1.53,5.81,1.53c2.76,0,5.26-0.93,7.13-2.61V42.72z M379.92,38.49c-0.69,0.2-1.87,0.3-2.56,0.3
		c-1.23,0-2.56-0.44-3.2-1.23c-0.59-0.69-0.69-1.72-0.69-2.95V23.78h7.38V19.6h-7.38v-6.4h-4.67v6.4h-5.9v4.18h5.9v10.58
		c0,2.51,0.49,4.63,1.87,6.15c1.48,1.67,3.64,2.71,6.54,2.71c1.33,0,2.76-0.2,3.64-0.49L379.92,38.49z M353.29,11.38
		c0,1.72,1.33,3.05,3.05,3.05s3.1-1.33,3.1-3.05c0-1.72-1.38-3.1-3.1-3.1S353.29,9.66,353.29,11.38 M354.03,42.72h4.67V19.6h-4.67
		V42.72z M329.65,26.83c1.43-1.87,3.79-3.3,6.59-3.3c4.48,0,7.43,3.59,7.43,7.63c0,4.13-3.2,7.63-7.68,7.63
		c-2.36,0-4.77-1.18-6.35-3.3V26.83z M329.65,40.71c1.87,1.62,4.23,2.51,6.99,2.51c2.07,0,4.23-0.59,5.81-1.53
		c3.49-2.07,5.9-5.9,5.9-10.53s-2.46-8.51-5.95-10.58c-1.57-0.93-3.49-1.48-5.66-1.48c-2.61,0-5.12,0.79-7.23,2.61V19.6h-4.53v34.93
		h4.67V40.71z M301.33,40.02c2.56,2.07,5.66,3.2,9.35,3.2c4.53,0,8.61-2.71,8.61-7.09c0-4.77-4.77-6.4-8.41-7.33
		c-2.31-0.59-4.13-1.13-4.13-2.71c0-1.82,1.92-2.9,4.18-2.9c1.87,0,3.54,0.74,4.97,1.82l2.41-3.35c-1.82-1.48-4.28-2.56-7.68-2.56
		c-4.13,0-8.56,2.26-8.56,7.23c0,3.25,2.51,5.02,5.31,5.95c3.39,1.13,7.23,1.28,7.23,3.94c0,1.82-2.02,2.9-4.03,2.9
		c-2.31,0-4.67-0.89-6.84-2.56L301.33,40.02z M278.6,31.16c0-4.23,3-7.63,7.28-7.63c4.28,0,7.28,3.39,7.28,7.63s-3,7.63-7.28,7.63
		C281.6,38.79,278.6,35.39,278.6,31.16 M273.92,31.16c0,6.89,5.12,12.05,11.96,12.05c6.84,0,11.96-5.17,11.96-12.05
		s-5.12-12.05-11.96-12.05C279.04,19.11,273.92,24.27,273.92,31.16 M262.96,42.72h4.92V8.28h-4.92v13.53h-19.19V8.28h-4.92v34.44
		h4.92V26.49h19.19V42.72z M220.46,19.25c-0.54-0.1-1.33-0.15-1.82-0.15c-3.39,0-5.81,1.57-6.94,3.15V19.6h-4.53v23.13h4.67v-15.3
		c1.28-2.21,3.84-3.89,6.25-3.89c0.74,0,1.28,0.05,1.82,0.2L220.46,19.25z M190.44,23.19c2.76,0,5.41,2.07,6.1,5.02h-12.6
		C184.73,25.21,187.43,23.19,190.44,23.19 M201.36,32.14c0.05-0.44,0.05-0.79,0.05-0.98c0-6.84-4.67-12.05-11.12-12.05
		c-6.54,0-11.27,5.12-11.27,12.05s5.22,12.05,11.96,12.05c4.72,0,8.02-2.12,9.74-4.33l-3.05-2.9c-1.33,1.48-3.2,3.15-6.64,3.15
		c-4.03,0-7.23-3.1-7.48-6.99H201.36z M174.82,38.49c-0.69,0.2-1.87,0.3-2.56,0.3c-1.23,0-2.56-0.44-3.2-1.23
		c-0.59-0.69-0.69-1.72-0.69-2.95V23.78h7.38V19.6h-7.38v-6.4h-4.67v6.4h-5.9v4.18h5.9v10.58c0,2.51,0.49,4.63,1.87,6.15
		c1.48,1.67,3.64,2.71,6.54,2.71c1.33,0,2.76-0.2,3.64-0.49L174.82,38.49z M136.96,40.02c2.56,2.07,5.66,3.2,9.35,3.2
		c4.53,0,8.61-2.71,8.61-7.09c0-4.77-4.77-6.4-8.41-7.33c-2.31-0.59-4.13-1.13-4.13-2.71c0-1.82,1.92-2.9,4.18-2.9
		c1.87,0,3.54,0.74,4.97,1.82l2.41-3.35c-1.82-1.48-4.28-2.56-7.68-2.56c-4.13,0-8.56,2.26-8.56,7.23c0,3.25,2.51,5.02,5.31,5.95
		c3.39,1.13,7.23,1.28,7.23,3.94c0,1.82-2.02,2.9-4.03,2.9c-2.31,0-4.67-0.89-6.84-2.56L136.96,40.02z M126.15,11.38
		c0,1.72,1.33,3.05,3.05,3.05c1.72,0,3.1-1.33,3.1-3.05c0-1.72-1.38-3.1-3.1-3.1C127.48,8.28,126.15,9.66,126.15,11.38
		 M126.89,42.72h4.67V19.6h-4.67V42.72z M107.41,8.28h-4.92v34.44h20.17v-4.67h-15.25V8.28z M72.4,23.19c2.76,0,5.41,2.07,6.1,5.02
		H65.9C66.69,25.21,69.4,23.19,72.4,23.19 M83.32,32.14c0.05-0.44,0.05-0.79,0.05-0.98c0-6.84-4.67-12.05-11.12-12.05
		c-6.54,0-11.27,5.12-11.27,12.05s5.22,12.05,11.96,12.05c4.72,0,8.02-2.12,9.74-4.33l-3.05-2.9c-1.33,1.48-3.2,3.15-6.64,3.15
		c-4.03,0-7.23-3.1-7.48-6.99H83.32z M38.25,7.79h-4.67v34.93h4.67V26.83c1.38-1.67,3.59-3.3,6.64-3.3c1.92,0,3.69,0.89,4.77,2.26
		c0.84,1.03,1.38,2.41,1.38,5.36v11.56h4.67V31.41c0-3.99-0.79-6.35-2.26-8.22c-1.97-2.51-5.02-4.08-8.41-4.08
		c-3.2,0-5.51,1.43-6.79,2.51V7.79z M5.86,12.96h9.35v29.77h4.92V12.96h9.35V8.28H5.86V12.96z"/>
</g>
</svg>
