<svg xmlns="http://www.w3.org/2000/svg" width="37" height="44" viewBox="0 0 37 44" fill="none">
  <path fill-rule="evenodd" clip-rule="evenodd" d="M18.4957 44C18.4957 44 36.9913 31.7345 36.9913 17.6C36.9913 12.9322 34.3459 8.45556 31.0234 5.15492C27.7008 1.85428 23.1945 0 18.4957 0C13.7969 0 9.29056 1.85428 5.96802 5.15492C2.64547 8.45556 0.00012207 12.9322 0.00012207 17.6C0.00012207 30.177 18.4957 44 18.4957 44ZM26.8658 18.3009C26.8658 22.8169 23.2049 26.4779 18.6888 26.4779C14.1728 26.4779 10.5118 22.8169 10.5118 18.3009C10.5118 13.7849 14.1728 10.1239 18.6888 10.1239C23.2049 10.1239 26.8658 13.7849 26.8658 18.3009ZM23.7503 18.4956C23.7503 21.1837 21.5711 23.3628 18.883 23.3628C16.1949 23.3628 14.0157 21.1837 14.0157 18.4956C14.0157 15.8074 16.1949 13.6283 18.883 13.6283C21.5711 13.6283 23.7503 15.8074 23.7503 18.4956Z" fill="#0C2141"/>
</svg>