<svg width="24" height="24" viewBox="0 0 24 24" fill="none" xmlns="http://www.w3.org/2000/svg">
<g id="Mobile">
<path id="Vector" d="M12 18.01L12.01 17.999" stroke="currentColor" stroke-width="2" stroke-linecap="round" stroke-linejoin="round"/>
<path id="Vector_2" d="M7 21.25V2.75C7 2.55109 7.06321 2.36032 7.17574 2.21967C7.28826 2.07902 7.44087 2 7.6 2H16.4C16.4788 2 16.5568 2.0194 16.6296 2.05709C16.7024 2.09478 16.7685 2.15003 16.8243 2.21967C16.88 2.28931 16.9242 2.37199 16.9543 2.46299C16.9845 2.55398 17 2.65151 17 2.75V21.25C17 21.3485 16.9845 21.446 16.9543 21.537C16.9242 21.628 16.88 21.7107 16.8243 21.7803C16.7685 21.85 16.7024 21.9052 16.6296 21.9429C16.5568 21.9806 16.4788 22 16.4 22H7.6C7.44087 22 7.28826 21.921 7.17574 21.7803C7.06321 21.6397 7 21.4489 7 21.25Z" stroke="currentColor" stroke-width="2" stroke-linecap="round" stroke-linejoin="round"/>
</g>
</svg>
