<svg xmlns="http://www.w3.org/2000/svg" width="48" height="49" viewBox="0 0 48 49" fill="none">
  <path d="M40 20.8428C40 29.6788 24 44.8428 24 44.8428C24 44.8428 8 29.6788 8 20.8428C8 16.5993 9.68571 12.5296 12.6863 9.52907C15.6869 6.52848 19.7565 4.84277 24 4.84277C28.2435 4.84277 32.3131 6.52848 35.3137 9.52907C38.3143 12.5296 40 16.5993 40 20.8428Z" stroke="currentColor" stroke-width="1.5" stroke-linecap="round" stroke-linejoin="round"/>
  <path d="M24 22.8428C24.5304 22.8428 25.0391 22.6321 25.4142 22.257C25.7893 21.8819 26 21.3732 26 20.8428C26 20.3123 25.7893 19.8036 25.4142 19.4286C25.0391 19.0535 24.5304 18.8428 24 18.8428C23.4696 18.8428 22.9609 19.0535 22.5858 19.4286C22.2107 19.8036 22 20.3123 22 20.8428C22 21.3732 22.2107 21.8819 22.5858 22.257C22.9609 22.6321 23.4696 22.8428 24 22.8428Z" stroke="currentColor" stroke-width="1.5" stroke-linecap="round" stroke-linejoin="round"/>
</svg>