<svg width="48" height="48" viewBox="0 0 48 48" fill="none" xmlns="http://www.w3.org/2000/svg">
<path fill-rule="evenodd" clip-rule="evenodd" d="M38.6399 32.875C34.2885 40.4117 24.6221 42.9683 17.0518 38.5976C10.1797 34.63 7.38943 26.3136 10.1863 19.1749C10.3374 18.7893 10.7725 18.5991 11.1582 18.7502C11.5438 18.9013 11.734 19.3364 11.5829 19.7221C9.05482 26.1749 11.5764 33.7044 17.8018 37.2986C24.6615 41.259 33.4077 38.9374 37.3408 32.125C41.274 25.3125 38.9115 16.5773 32.0518 12.6169C26.961 9.67767 20.8259 10.1979 16.394 13.4514C16.0601 13.6965 15.5907 13.6246 15.3456 13.2907C15.1004 12.9568 15.1724 12.4874 15.5063 12.2423C20.4038 8.64695 27.1805 8.07239 32.8018 11.3178C40.3721 15.6885 42.9912 25.3382 38.6399 32.875Z" fill="currentColor"/>
<path fill-rule="evenodd" clip-rule="evenodd" d="M22.0871 17.5449C21.88 17.9036 21.4213 18.0265 21.0626 17.8194L14.9658 14.2994C14.7713 14.1871 14.6009 14.0377 14.4641 13.8595C14.3274 13.6813 14.2272 13.478 14.169 13.2611C14.1109 13.0442 14.0961 12.818 14.1254 12.5953C14.1547 12.3727 14.2276 12.158 14.3399 11.9635L17.8599 5.8667C18.067 5.50798 18.5257 5.38508 18.8844 5.59218C19.2431 5.79929 19.366 6.25798 19.1589 6.6167L15.6389 12.7135C15.6251 12.7374 15.6162 12.7638 15.6126 12.7911C15.609 12.8185 15.6108 12.8462 15.6179 12.8729C15.6251 12.8995 15.6374 12.9245 15.6542 12.9464C15.671 12.9682 15.6919 12.9866 15.7158 13.0004L21.8126 16.5204C22.1713 16.7275 22.2942 17.1862 22.0871 17.5449Z" fill="currentColor"/>
</svg>
