<svg width="48" height="48" viewBox="0 0 48 48" fill="none" xmlns="http://www.w3.org/2000/svg">
<g clip-path="url(#clip0_34199_4681)">
<path fill-rule="evenodd" clip-rule="evenodd" d="M12 8.75C11.138 8.75 10.3114 9.09241 9.7019 9.7019C9.09241 10.3114 8.75 11.138 8.75 12V36C8.75 36.862 9.09241 37.6886 9.7019 38.2981C10.3114 38.9076 11.138 39.25 12 39.25H36C36.862 39.25 37.6886 38.9076 38.2981 38.2981C38.9076 37.6886 39.25 36.862 39.25 36V16.3107L31.6893 8.75H12ZM8.64124 8.64124C9.53204 7.75044 10.7402 7.25 12 7.25H32C32.1989 7.25 32.3897 7.32902 32.5303 7.46967L40.5303 15.4697C40.671 15.6103 40.75 15.8011 40.75 16V36C40.75 37.2598 40.2496 38.468 39.3588 39.3588C38.468 40.2496 37.2598 40.75 36 40.75H12C10.7402 40.75 9.53204 40.2496 8.64124 39.3588C7.75044 38.468 7.25 37.2598 7.25 36V12C7.25 10.7402 7.75044 9.53204 8.64124 8.64124Z" fill="currentColor"/>
<path fill-rule="evenodd" clip-rule="evenodd" d="M20.6412 24.6412C21.532 23.7504 22.7402 23.25 24 23.25C25.2598 23.25 26.468 23.7504 27.3588 24.6412C28.2496 25.532 28.75 26.7402 28.75 28C28.75 29.2598 28.2496 30.468 27.3588 31.3588C26.468 32.2496 25.2598 32.75 24 32.75C22.7402 32.75 21.532 32.2496 20.6412 31.3588C19.7504 30.468 19.25 29.2598 19.25 28C19.25 26.7402 19.7504 25.532 20.6412 24.6412ZM24 24.75C23.138 24.75 22.3114 25.0924 21.7019 25.7019C21.0924 26.3114 20.75 27.138 20.75 28C20.75 28.862 21.0924 29.6886 21.7019 30.2981C22.3114 30.9076 23.138 31.25 24 31.25C24.862 31.25 25.6886 30.9076 26.2981 30.2981C26.9076 29.6886 27.25 28.862 27.25 28C27.25 27.138 26.9076 26.3114 26.2981 25.7019C25.6886 25.0924 24.862 24.75 24 24.75Z" fill="currentColor"/>
<path fill-rule="evenodd" clip-rule="evenodd" d="M16 7.25C16.4142 7.25 16.75 7.58579 16.75 8V15.25H27.25V8C27.25 7.58579 27.5858 7.25 28 7.25C28.4142 7.25 28.75 7.58579 28.75 8V16C28.75 16.4142 28.4142 16.75 28 16.75H16C15.5858 16.75 15.25 16.4142 15.25 16V8C15.25 7.58579 15.5858 7.25 16 7.25Z" fill="currentColor"/>
</g>
<defs>
<clipPath id="clip0_34199_4681">
<rect width="48" height="48" fill="currentColor"/>
</clipPath>
</defs>
</svg>
