<svg width="24" height="24" viewBox="0 0 24 24" fill="none" xmlns="http://www.w3.org/2000/svg">
<g id="Video">
<path id="Vector" d="M15 12V16.4C15 16.4788 14.9845 16.5568 14.9543 16.6296C14.9242 16.7024 14.88 16.7685 14.8243 16.8243C14.7685 16.88 14.7024 16.9242 14.6296 16.9543C14.5568 16.9845 14.4788 17 14.4 17H3.6C3.52121 17 3.44319 16.9845 3.37039 16.9543C3.29759 16.9242 3.23145 16.88 3.17574 16.8243C3.12002 16.7685 3.07583 16.7024 3.04567 16.6296C3.01552 16.5568 3 16.4788 3 16.4V7.6C3 7.44087 3.06321 7.28826 3.17574 7.17574C3.28826 7.06321 3.44087 7 3.6 7H14.4C14.5591 7 14.7117 7.06321 14.8243 7.17574C14.9368 7.28826 15 7.44087 15 7.6V12ZM15 12L20.016 7.82C20.1036 7.74702 20.2102 7.70052 20.3233 7.68595C20.4364 7.67137 20.5513 7.68932 20.6545 7.7377C20.7578 7.78607 20.8451 7.86287 20.9063 7.95909C20.9675 8.05531 21 8.16697 21 8.281V15.719C20.9998 15.8329 20.9672 15.9445 20.9059 16.0405C20.8447 16.1366 20.7573 16.2133 20.6541 16.2615C20.5509 16.3098 20.4361 16.3276 20.3231 16.313C20.2101 16.2984 20.1035 16.2519 20.016 16.179L15 12Z" stroke="currentColor" stroke-width="2"/>
</g>
</svg>
