<svg viewBox="0 0 35 35" fill="none" xmlns="http://www.w3.org/2000/svg">
<g id="Logo mark" clip-path="url(#clip0_6_251)">
<path id="Vector" d="M32.71 13.99C28.35 10.33 24.17 6.17 20.19 1.44C18.57 -0.480001 15.61 -0.490001 13.99 1.44C10.33 5.8 6.16998 9.98 1.44998 13.96C-0.470022 15.58 -0.480022 18.54 1.44998 20.16C5.80998 23.82 9.98998 27.98 13.97 32.7C15.59 34.62 18.55 34.63 20.17 32.7C23.83 28.34 27.99 24.16 32.72 20.18C34.64 18.56 34.65 15.6 32.72 13.98L32.71 13.99ZM32.4 19.42C26.98 22.64 22.65 26.97 19.43 32.39C19.12 32.91 18.69 33.27 18.2 33.49C18.18 32.79 18.04 30.36 17.11 27.49C16.94 26.95 16.73 26.4 16.5 25.84C16.35 25.49 16.19 25.13 16.01 24.77C14.78 22.28 12.7 19.51 9.23998 17.7C9.20998 17.69 9.17998 17.69 9.15998 17.7C8.13998 18.18 7.04998 18.56 5.89998 18.85C5.79998 18.87 5.79998 19.01 5.89998 19.04C9.42998 20.13 12.08 22.41 13.81 25.86C14.54 27.32 15 28.8 15.29 30.07C15.64 31.62 15.74 32.86 15.76 33.4C15.35 33.18 14.99 32.84 14.73 32.4C11.51 26.98 7.17998 22.65 1.75998 19.43C1.32998 19.17 0.999978 18.83 0.779978 18.43C2.92998 18.41 4.80998 18.11 6.44998 17.62C7.06998 17.43 7.64998 17.22 8.20998 16.98C12.31 15.22 14.67 12.14 16.02 9.42C16.19 9.07 16.35 8.73 16.49 8.39C16.5 8.36 16.5 8.34 16.49 8.31C15.97 6.98 15.62 5.69 15.38 4.56C15.36 4.46 15.22 4.45 15.19 4.56C14.9 5.7 14.48 6.98 13.85 8.26C11.69 12.64 8.04998 15.15 3.00998 15.76C2.26998 15.85 1.48998 15.9 0.689978 15.91C0.909978 15.45 1.25998 15.03 1.75998 14.74C7.16998 11.5 11.5 7.17 14.72 1.75C15.04 1.21 15.5 0.839999 16.01 0.619999C16.02 1.2 16.13 3.71 17.1 6.69C17.27 7.23 17.48 7.78 17.71 8.34C17.86 8.69 18.02 9.05 18.2 9.41C19.43 11.9 21.5 14.67 24.97 16.48C25 16.49 25.03 16.5 25.05 16.48C26.07 16 27.15 15.62 28.31 15.33C28.41 15.31 28.41 15.17 28.31 15.14C24.78 14.05 22.13 11.77 20.4 8.32C19.67 6.86 19.21 5.38 18.92 4.11C18.57 2.56 18.47 1.31 18.45 0.769999C18.83 0.989999 19.17 1.31 19.42 1.74C22.64 7.16 26.97 11.49 32.39 14.71C32.84 14.98 33.18 15.34 33.4 15.75C31.27 15.77 29.4 16.07 27.76 16.56C27.14 16.75 26.56 16.96 26 17.2C21.9 18.96 19.54 22.04 18.19 24.76C18.02 25.11 17.86 25.45 17.72 25.79C17.72 25.82 17.71 25.84 17.72 25.87C18.24 27.2 18.59 28.49 18.83 29.62C18.85 29.72 18.99 29.73 19.02 29.62C19.3 28.48 19.73 27.2 20.36 25.92C22.52 21.54 26.16 19.03 31.19 18.42C31.91 18.33 32.66 18.28 33.43 18.28C33.21 18.72 32.86 19.12 32.38 19.4L32.4 19.42Z" fill="navy-blue-100"/>
</g>
<defs>
<clipPath id="clip0_6_251">
<rect width="34.15" height="34.15" fill="white"/>
</clipPath>
</defs>
</svg>
