<svg width="161" height="46" viewBox="0 0 161 46" fill="none" xmlns="http://www.w3.org/2000/svg">
<g clip-path="url(#clip0_19472_6265)">
<path d="M65.7884 34.3168V45.6623H63.9548V40.8123H57.818V45.6623H55.9844V34.3168H57.818V39.0805H63.9548V34.3168H65.7884Z" fill="white"/>
<path d="M74.9752 42.4084H69.2336C69.4558 43.795 70.4436 44.3866 71.5426 44.3866C72.3205 44.3866 73.1478 44.0785 73.7899 43.567L74.6357 44.7749C73.6849 45.5884 72.6107 45.8718 71.4376 45.8718C69.1101 45.8718 67.4617 44.2511 67.4617 41.786C67.4617 39.3209 69.0422 37.7001 71.3327 37.7001C73.6232 37.7001 75.0123 39.3517 75.0123 41.7798C75.0123 42.0017 74.9938 42.2174 74.9814 42.4146L74.9752 42.4084ZM73.2713 41.1142C73.086 39.9063 72.3761 39.2038 71.2956 39.2038C70.0917 39.2038 69.4188 39.9803 69.2336 41.1142H73.2713Z" fill="white"/>
<path d="M82.8592 41.0341V45.6623H81.1552V44.7317C80.7416 45.3295 79.9143 45.8656 78.6548 45.8656C76.8953 45.8656 75.9075 44.8118 75.9075 43.4067C75.9075 41.8907 77.0496 40.9848 79.05 40.9848H81.1429C81.0626 39.857 80.4267 39.2346 79.1549 39.2346C78.2968 39.2346 77.5621 39.6105 77.0126 40.0111L76.3149 38.6738C77.2966 37.9527 78.3461 37.6939 79.3772 37.6939C81.6245 37.6939 82.8592 38.9696 82.8592 41.0341ZM81.1491 42.5994V42.2728H79.2228C78.0683 42.2728 77.7288 42.7781 77.7288 43.3266C77.7288 43.8751 78.1115 44.3065 78.9697 44.3065C79.9143 44.3065 81.1491 43.8135 81.1491 42.5933V42.5994Z" fill="white"/>
<path d="M84.7979 33.9901H86.5018V45.6623H84.7979V33.9901Z" fill="white"/>
<path d="M94.2869 45.0953C93.6634 45.5144 92.8731 45.8657 91.8977 45.8657C90.1319 45.8657 89.1009 44.9166 89.1009 42.8521V39.438H87.5513V37.8973H89.1009V35.5493H90.8049V37.8973H93.7869V39.438H90.8049V42.8151C90.8049 43.8628 91.3544 44.2634 92.0397 44.2634C92.5644 44.2634 93.1448 44.0292 93.6078 43.7395L94.2808 45.0953H94.2869Z" fill="white"/>
<path d="M102.511 40.7814V45.6623H100.807V41.3422C100.807 40.0357 100.134 39.3085 98.9977 39.3085C97.8617 39.3085 96.985 40.0542 96.985 41.3607V45.6623H95.281V33.9901H96.985V38.8217C97.6209 37.9219 98.5655 37.6939 99.3557 37.6939C101.208 37.6939 102.517 38.9696 102.517 40.7814H102.511Z" fill="white"/>
<path d="M103.937 41.7798C103.937 39.4564 105.554 37.6939 108.03 37.6939C109.191 37.6939 110.246 38.113 110.938 38.9326L109.851 40.0912C109.308 39.5797 108.728 39.29 107.981 39.29C106.672 39.29 105.684 40.3131 105.684 41.7798C105.684 43.2465 106.672 44.2695 107.981 44.2695C108.728 44.2695 109.394 43.9182 109.888 43.456L110.938 44.6208C110.234 45.4404 109.191 45.8595 108.03 45.8595C105.554 45.8595 103.937 44.1031 103.937 41.7736V41.7798Z" fill="white"/>
<path d="M118.668 41.0341V45.6623H116.964V44.7317C116.55 45.3295 115.723 45.8656 114.463 45.8656C112.697 45.8656 111.716 44.8118 111.716 43.4067C111.716 41.8907 112.858 40.9848 114.858 40.9848H116.951C116.871 39.857 116.235 39.2346 114.963 39.2346C114.105 39.2346 113.37 39.6105 112.821 40.0111L112.123 38.6738C113.105 37.9527 114.154 37.6939 115.186 37.6939C117.433 37.6939 118.668 38.9696 118.668 41.0341ZM116.964 42.5994V42.2728H115.037C113.883 42.2728 113.543 42.7781 113.543 43.3266C113.543 43.8751 113.926 44.3065 114.784 44.3065C115.729 44.3065 116.964 43.8135 116.964 42.5933V42.5994Z" fill="white"/>
<path d="M125.848 37.9158L125.44 39.592C125.082 39.4071 124.563 39.3085 124.15 39.3085C123.045 39.3085 122.298 40.1035 122.298 41.3915V45.6623H120.6V37.8973H122.279V38.7724C122.798 38.0329 123.588 37.6939 124.539 37.6939C125.057 37.6939 125.459 37.7617 125.848 37.9158Z" fill="white"/>
<path d="M133.756 42.4084H128.015C128.237 43.795 129.225 44.3866 130.324 44.3866C131.101 44.3866 131.929 44.0785 132.571 43.567L133.417 44.7749C132.466 45.5884 131.392 45.8718 130.219 45.8718C127.891 45.8718 126.243 44.2511 126.243 41.786C126.243 39.3209 127.823 37.7001 130.114 37.7001C132.404 37.7001 133.793 39.3517 133.793 41.7798C133.793 42.0017 133.775 42.2174 133.762 42.4146L133.756 42.4084ZM132.052 41.1142C131.867 39.9063 131.157 39.2038 130.077 39.2038C128.873 39.2038 128.2 39.9803 128.015 41.1142H132.052Z" fill="white"/>
<path d="M139.097 41.1882V34.3168H140.93V41.0526C140.93 43.2157 142.159 44.1093 143.918 44.1093C145.678 44.1093 146.907 43.2157 146.907 41.0526V34.3168H148.74V41.1882C148.74 44.3435 146.604 45.8657 143.918 45.8657C141.233 45.8657 139.097 44.3435 139.097 41.1882Z" fill="white"/>
<path d="M154.056 40.7814L152.259 42.7289V45.6623H150.426V34.3168H152.259V40.3254L157.649 34.3168H160.02L155.285 39.4565L160.366 45.6685H157.871L154.044 40.7876L154.056 40.7814Z" fill="white"/>
<path d="M5.93925 31.3895H10.903C12.854 31.3895 14.4406 32.9671 14.4406 34.9207V39.8755C14.4406 42.9199 16.9163 45.8102 19.9724 45.804C20.1576 45.804 20.312 45.6438 20.312 45.4589V33.0657C20.312 28.9121 16.9349 25.5411 12.7737 25.5411H0.345745C0.16053 25.5411 9.85519e-06 25.689 9.85519e-06 25.8739C-0.00616399 28.9182 2.88937 31.3956 5.93925 31.3956V31.3895Z" fill="white"/>
<path d="M5.93925 15.6746H10.903C12.854 15.6746 14.4406 14.097 14.4406 12.1434V7.18859C14.4406 4.14422 16.9163 1.25392 19.9724 1.26008C20.1576 1.26008 20.312 1.42031 20.312 1.60519V13.9984C20.312 18.152 16.9349 21.523 12.7737 21.523H0.345745C0.16053 21.523 9.85519e-06 21.3751 9.85519e-06 21.1902C-0.00616399 18.1459 2.88937 15.6685 5.93925 15.6685V15.6746Z" fill="white"/>
<path d="M38.6791 31.3895H33.7153C31.7644 31.3895 30.1777 32.9671 30.1777 34.9207V39.8755C30.1777 42.9199 27.702 45.8102 24.646 45.804C24.4607 45.804 24.3064 45.6438 24.3064 45.4589V33.0657C24.3064 28.9121 27.6835 25.5411 31.8447 25.5411H44.2603C44.4455 25.5411 44.606 25.689 44.606 25.8739C44.6122 28.9182 41.7166 31.3956 38.6668 31.3956L38.6791 31.3895Z" fill="white"/>
<path d="M38.6791 15.6746H33.7153C31.7644 15.6746 30.1777 14.097 30.1777 12.1434V7.18859C30.1777 4.14422 27.702 1.25392 24.646 1.26008C24.4607 1.26008 24.3064 1.42031 24.3064 1.60519V13.9984C24.3064 18.152 27.6835 21.523 31.8447 21.523H44.2603C44.4455 21.523 44.606 21.3751 44.606 21.1902C44.6122 18.1459 41.7166 15.6685 38.6668 15.6685L38.6791 15.6746Z" fill="white"/>
<path d="M23.1827 19.8899C23.9236 20.9992 24.8497 21.9236 25.961 22.6631C26.8191 23.2116 26.8191 23.8587 25.961 24.4072C24.8497 25.1467 23.9236 26.0711 23.1827 27.1804C22.6333 28.037 21.985 28.037 21.4355 27.1804C20.6947 26.0711 19.7686 25.1467 18.6573 24.4072C17.7991 23.8587 17.7991 23.2116 18.6573 22.6631C19.7686 21.9236 20.6947 20.9992 21.4355 19.8899C21.9912 19.0333 22.6333 19.0333 23.1827 19.8899Z" fill="white"/>
<path d="M61.7632 12.507H73.8886C74.0306 12.507 74.1418 12.3961 74.1418 12.2543V1.90716C74.1418 1.61751 74.3764 1.38333 74.6665 1.38333H79.1302C79.4204 1.38333 79.655 1.61751 79.655 1.90716V28.4869C79.655 28.7765 79.4204 29.0107 79.1302 29.0107H74.6665C74.3764 29.0107 74.1418 28.7765 74.1418 28.4869V17.8994C74.1418 17.7576 74.0306 17.6467 73.8886 17.6467H61.7632C61.6212 17.6467 61.5101 17.7576 61.5101 17.8994V28.4869C61.5101 28.7765 61.2755 29.0107 60.9853 29.0107H56.5216C56.2314 29.0107 55.9968 28.7765 55.9968 28.4869V1.90716C55.9968 1.61751 56.2314 1.38333 56.5216 1.38333H61.0223C61.294 1.38333 61.5162 1.60519 61.5162 1.87635V12.2667C61.5162 12.4084 61.6274 12.5193 61.7694 12.5193L61.7632 12.507Z" fill="white"/>
<path d="M108.691 9.16681L104.986 11.1759C104.764 11.3176 104.474 11.2621 104.32 11.0464C104.165 10.8307 103.758 10.0974 102.727 8.84635C101.245 7.05301 99.078 6.15325 96.5467 6.15325C91.6755 6.15325 88.07 9.82622 88.07 15.1939C88.0885 20.7404 91.8113 24.2346 96.5467 24.2346C98.9236 24.2346 100.924 23.3225 102.486 21.7634C103.147 21.104 103.955 19.8036 104.233 19.4031C104.387 19.175 104.708 19.1381 104.925 19.2983L108.826 21.1533C109.055 21.3196 109.086 21.6401 108.938 21.8805C108.752 22.1824 107.839 23.9141 107.024 24.8694C104.567 27.7473 100.918 29.5284 96.5775 29.5284C88.3108 29.5284 82.4827 23.5074 82.4827 15.2001C82.4827 6.89278 88.3108 0.865662 96.5775 0.865662C101.103 0.865662 105.073 2.80691 107.394 6.10395C108.542 7.73707 108.746 8.26706 108.851 8.43961C109.005 8.68612 108.938 9.01891 108.691 9.16681Z" fill="white"/>
<path d="M137.072 28.3451L126.675 1.6853C126.601 1.50042 126.422 1.37717 126.224 1.37717H120.168C119.97 1.37717 119.785 1.50042 119.717 1.6853L109.32 28.3451C109.197 28.6656 109.431 29.0045 109.771 29.0045H114.475C114.679 29.0045 114.858 28.8813 114.932 28.6902L117.161 22.7371C117.198 22.6385 117.297 22.5707 117.402 22.5707H121.594C124.1 22.4351 125.798 20.3459 125.792 17.7884C125.792 17.6282 125.65 17.4988 125.49 17.4988H119.489C119.31 17.4988 119.186 17.3201 119.248 17.1537L122.89 7.46591C122.971 7.24405 123.285 7.24405 123.372 7.46591L131.318 28.6902C131.392 28.8813 131.571 29.0045 131.775 29.0045H136.621C136.961 29.0045 137.195 28.6594 137.072 28.3451Z" fill="white"/>
</g>
<defs>
<clipPath id="clip0_19472_6265">
<rect width="160.372" height="45" fill="white" transform="translate(0 0.865662)"/>
</clipPath>
</defs>
</svg>
