<svg width="117" height="51" viewBox="0 0 117 51" fill="none" xmlns="http://www.w3.org/2000/svg">
<g id="Logos / HCA Stacked">
<path id="HCA" fill-rule="evenodd" clip-rule="evenodd" d="M52.6335 8.31612L48.9505 10.3314C48.7287 10.4718 48.4374 10.4173 48.2851 10.1993C48.2525 10.1531 48.2097 10.0855 48.1532 9.9965L48.1531 9.99631C47.9353 9.65299 47.5148 8.98991 46.6981 7.99425C45.2278 6.19958 43.0724 5.29808 40.5556 5.29808C35.7132 5.29808 32.1295 8.9759 32.1295 14.3541C32.148 19.91 35.8471 23.4095 40.5556 23.4095C42.9214 23.4095 44.9066 22.4958 46.4617 20.9314C47.0068 20.3835 47.6525 19.3986 48.0147 18.846L48.0148 18.8459L48.0153 18.8452C48.0903 18.7308 48.1531 18.6349 48.2003 18.5654C48.3552 18.3359 48.6707 18.2993 48.8899 18.4628L52.768 20.319C52.9943 20.4883 53.0287 20.8044 52.8815 21.05C52.8489 21.104 52.7929 21.2042 52.7182 21.3377L52.7181 21.3378C52.3762 21.949 51.6435 23.259 50.9803 24.043C48.54 26.9251 44.913 28.7089 40.5932 28.7089C32.3775 28.7089 26.5816 22.6786 26.5816 14.3541C26.5816 6.03031 32.3775 0 40.5932 0C45.0908 0 49.0352 1.94342 51.343 5.24679C52.2577 6.55614 52.5673 7.15717 52.7094 7.433L52.7094 7.43303C52.7451 7.50216 52.7701 7.55087 52.7916 7.58517C52.9458 7.83139 52.8757 8.16224 52.6335 8.31612ZM5.98306 11.6646H18.0368C18.1751 11.6646 18.2879 11.5512 18.2879 11.4114V1.04027C18.2879 0.748535 18.5224 0.513221 18.8118 0.513221H23.2469C23.5369 0.513221 23.7714 0.748535 23.7714 1.04027V27.6672C23.7714 27.9583 23.5369 28.1943 23.2469 28.1943H18.8118C18.5224 28.1943 18.2879 27.9583 18.2879 27.6672V17.0583C18.2879 16.9185 18.1751 16.8056 18.0368 16.8056H5.98306C5.84412 16.8056 5.73131 16.9185 5.73131 17.0583V27.6672C5.73131 27.9583 5.49678 28.1943 5.20743 28.1943H0.772294C0.482948 28.1943 0.248413 27.9583 0.248413 27.6672V1.04027C0.248413 0.748535 0.482948 0.513221 0.772294 0.513221H5.24249C5.51271 0.513221 5.73131 0.733146 5.73131 1.00437V11.4114C5.73131 11.5512 5.84412 11.6646 5.98306 11.6646ZM70.5086 0.823269L80.8435 27.5323C80.9665 27.851 80.7332 28.1947 80.3929 28.1947H75.5779C75.3759 28.1947 75.1962 28.069 75.1254 27.8786L67.2264 6.61249C67.1442 6.39001 66.8319 6.39001 66.7491 6.61249L63.1284 16.3206C63.0653 16.488 63.1883 16.6675 63.3674 16.6675H69.3328C69.494 16.6675 69.6329 16.7977 69.6336 16.9599C69.6393 19.5214 67.9498 21.6149 65.4578 21.7482H61.2891C61.1827 21.7482 61.0877 21.8149 61.0501 21.9156L58.8316 27.8786C58.7615 28.069 58.5811 28.1947 58.3791 28.1947H53.7024C53.362 28.1947 53.1282 27.851 53.2518 27.5323L63.586 0.823269C63.6593 0.636685 63.8378 0.513578 64.0366 0.513578H70.058C70.2569 0.513578 70.436 0.636685 70.5086 0.823269Z" fill="#03173E"/>
<path id="Diamond Plus" fill-rule="evenodd" clip-rule="evenodd" d="M86.8221 9.18576H89.9354C91.1604 9.18576 92.1539 8.1868 92.1539 6.95445V3.82164C92.1539 1.89681 93.7071 0.0694465 95.6223 0.0745652C95.7395 0.0745652 95.8332 0.176524 95.8332 0.29386V8.12845C95.8332 10.7567 93.716 12.8873 91.1036 12.8873L83.3155 12.8879C83.1989 12.8879 83.0975 12.793 83.0975 12.6751C83.0925 10.7483 84.9076 9.18576 86.8221 9.18576ZM86.8221 19.1233H89.9354C91.1604 19.1233 92.1539 20.1217 92.1539 21.354V24.4868C92.1539 26.4123 93.7071 28.2397 95.6223 28.2345C95.7395 28.2345 95.8332 28.1326 95.8332 28.0146V20.18C95.8332 17.5524 93.716 15.4212 91.1036 15.4212L83.3155 15.4205C83.1989 15.4205 83.0975 15.5161 83.0975 15.6334C83.0925 17.5601 84.9076 19.1233 86.8221 19.1233ZM104.249 19.1233H107.363C109.276 19.1233 111.092 17.5601 111.088 15.6334C111.088 15.5161 110.986 15.4205 110.869 15.4205L103.081 15.4212C100.469 15.4212 98.3508 17.5524 98.3508 20.18V28.0146C98.3508 28.1326 98.4458 28.2345 98.5624 28.2345C100.478 28.2397 102.031 26.4123 102.031 24.4868V21.354C102.031 20.1217 103.024 19.1233 104.249 19.1233ZM107.363 9.18576H104.249C103.024 9.18576 102.031 8.1868 102.031 6.95445V3.82164C102.031 1.89681 100.478 0.0694465 98.5624 0.0745652C98.4458 0.0745652 98.3508 0.176524 98.3508 0.29386V8.12845C98.3508 10.7567 100.469 12.8873 103.081 12.8873L110.869 12.8879C110.986 12.8879 111.088 12.793 111.088 12.6751C111.092 10.7483 109.276 9.18576 107.363 9.18576ZM99.3818 13.6027C98.6852 13.1366 98.1046 12.5525 97.6407 11.851C97.294 11.3073 96.8918 11.3086 96.5445 11.851C96.0811 12.5531 95.5005 13.1366 94.8027 13.6027C94.2628 13.9509 94.2635 14.358 94.8027 14.7062C95.5005 15.173 96.0811 15.7571 96.5445 16.4585C96.8905 17.0003 97.2946 17.001 97.6407 16.4585C98.1046 15.7571 98.6852 15.173 99.3825 14.7062C99.921 14.3574 99.921 13.9515 99.3818 13.6027Z" fill="#03173E"/>
<path id="Healthcare" fill-rule="evenodd" clip-rule="evenodd" d="M40.5996 49.0387V49.8389H46.4056V49.0387C45.217 48.9419 44.623 48.4816 44.623 47.6576V32.5777L44.4547 32.4078L39.9852 32.6752V33.4747C41.0775 33.5555 41.7506 33.7818 42.0029 34.1531C42.2566 34.525 42.3828 34.9007 42.3828 35.2803V47.8026C42.3828 48.538 41.9889 48.9297 41.2018 48.9778L40.5996 49.0387ZM10.5746 48.9664V49.839H17.6579V48.9664C16.8064 48.8933 16.2181 48.742 15.8925 48.5118C15.5681 48.2816 15.4056 47.9116 15.4056 47.4025V35.0175C15.4056 34.4673 15.5681 34.0961 15.8925 33.9024C16.2181 33.7082 16.8064 33.5748 17.6579 33.5023V32.6419H10.5746V33.5023C12.0845 33.6319 12.8391 34.1807 12.8391 35.1508V40.3617H4.82852V35.0175C4.82852 34.4519 4.98658 34.0762 5.30461 33.8903C5.62136 33.7043 6.20132 33.5748 7.04514 33.5023V32.6419H-0.0380859V33.5023C1.49595 33.6319 2.26266 34.1807 2.26266 35.1508V47.5603C2.26266 47.9482 2.15431 48.2675 1.93762 48.5175C1.72029 48.7682 1.06194 48.9183 -0.0380859 48.9664V49.839H7.04514V48.9664C6.16117 48.8933 5.57101 48.7381 5.27401 48.4996C4.97638 48.2617 4.82852 47.8962 4.82852 47.4025V41.428H12.8391V47.5603C12.8391 47.9161 12.7811 48.1828 12.6644 48.3598C12.5478 48.5381 12.4038 48.6631 12.231 48.7355C12.0583 48.8086 11.5064 48.8862 10.5746 48.9664ZM22.6574 38.4716C24.3195 38.4716 25.1506 39.8046 25.1506 42.4706H19.6454C19.6932 41.2261 19.9985 40.2489 20.5612 39.5379C21.1227 38.8268 21.8212 38.4716 22.6574 38.4716ZM22.934 50.1661C25.0786 50.1661 26.7044 49.1242 27.8127 47.0397L26.9816 46.5178C26.4514 47.4231 25.9351 48.0335 25.4336 48.3483C24.9314 48.6632 24.3272 48.8209 23.6204 48.8209C22.3432 48.8209 21.3617 48.3567 20.6753 47.427C19.9889 46.4985 19.6454 45.1848 19.6454 43.4888H27.5234V42.6886C27.5234 41.0972 27.1078 39.8424 26.2767 38.9262C25.4457 38.0093 24.2469 37.5502 22.681 37.5502C21.0985 37.5502 19.7996 38.16 18.7844 39.3801C17.7678 40.6003 17.2605 42.0584 17.2605 43.7556C17.2605 45.6785 17.7602 47.2276 18.7595 48.4028C19.7601 49.5781 21.1507 50.1661 22.934 50.1661ZM35.7031 43.2099C33.9523 43.7273 32.7599 44.2602 32.1258 44.809C31.491 45.3592 31.1742 46.0414 31.1742 46.8576C31.1742 48.1502 31.7886 48.7965 33.0174 48.7965C33.9645 48.7965 34.8357 48.3317 35.6311 47.4026L35.7031 43.2099ZM39.9075 49.6204C39.072 49.9276 38.4213 50.0814 37.956 50.0814C36.6948 50.0814 35.9523 49.5037 35.7273 48.3483H35.6553C34.5865 49.5441 33.3061 50.1417 31.8122 50.1417C30.9206 50.1417 30.1877 49.8692 29.6141 49.3236C29.0392 48.7786 28.7524 48.0572 28.7524 47.1602C28.7524 46.1593 29.0258 45.3931 29.5714 44.8635C30.1182 44.3352 31.057 43.8479 32.3903 43.4035C34.2933 42.7739 35.3901 42.37 35.6789 42.1917V41.0043C35.6789 40.3099 35.4883 39.7091 35.1072 39.2045C34.7254 38.6998 34.1614 38.4466 33.4151 38.4466C32.6439 38.4466 32.0773 38.637 31.7166 39.0166C31.7166 39.2192 31.7523 39.4571 31.8243 39.7315C31.897 40.0066 31.9327 40.297 31.9327 40.6042C31.9327 40.919 31.7944 41.1844 31.5171 41.3979C31.2399 41.6121 30.9008 41.7192 30.4993 41.7192C29.7282 41.7192 29.3432 41.2582 29.3432 40.3374C29.3432 39.6187 29.7925 38.9743 30.6918 38.4043C31.5911 37.8349 32.547 37.5502 33.5591 37.5502C35.2053 37.5502 36.3493 37.8759 36.9924 38.5261C37.6348 39.1762 37.956 40.1675 37.956 41.5012L37.8834 47.4757C37.8834 47.9117 37.986 48.2355 38.1912 48.4452C38.3958 48.6555 38.58 48.7747 38.745 48.8029C38.9095 48.8311 39.2969 48.8453 39.9075 48.8453V49.6204ZM54.3964 49.317C53.2403 49.8267 52.1722 50.0813 51.1926 50.0813C49.3775 50.0813 48.4706 49.124 48.4706 47.2088V39.0889H46.326V37.9501H48.5305V34.2294H50.7229V37.9501H54.1198V39.0889H50.7471V45.7661C50.7471 46.8741 50.8714 47.6268 51.1206 48.0269C51.3692 48.427 51.8873 48.6264 52.6744 48.6264C53.357 48.6264 53.9312 48.5585 54.3964 48.4206V49.317ZM62.7847 49.0387V49.8389H68.615V49.0387C67.4588 48.9496 66.8801 48.5059 66.8801 47.7057V41.501C66.8801 38.867 65.7795 37.5501 63.5794 37.5501C62.9128 37.5501 62.2901 37.6674 61.7121 37.9014C61.134 38.1361 60.4068 38.6971 59.5318 39.5858H59.484V32.5777L59.3151 32.4078L54.9182 32.6752V33.4747C55.6728 33.5311 56.1712 33.6042 56.4121 33.6921C56.6524 33.7818 56.8518 33.9774 57.008 34.28C57.1648 34.5833 57.2432 34.8924 57.2432 35.2078V47.8025C57.2432 48.5296 56.8531 48.9221 56.0743 48.9778L55.4841 49.0387V49.8389H61.315V49.0387C60.0939 48.9496 59.484 48.4976 59.484 47.6814V40.8098C60.1659 39.598 61.1939 38.9921 62.568 38.9921C63.1696 38.9921 63.6617 39.2344 64.0434 39.7192C64.4245 40.2046 64.6157 40.8464 64.6157 41.6466V47.8025C64.6157 48.538 64.2136 48.9297 63.4106 48.9778C63.2181 48.9951 63.009 49.0144 62.7847 49.0387ZM79.0282 47.0634C78.5222 47.9842 77.8333 48.7318 76.962 49.3056C76.0908 49.8795 75.1807 50.1661 74.233 50.1661C72.5148 50.1661 71.1694 49.5903 70.1975 48.4387C69.2262 47.2878 68.7405 45.7426 68.7405 43.8036C68.7405 42.0911 69.2721 40.6208 70.3364 39.3923C71.4007 38.1645 72.7519 37.5502 74.3904 37.5502C75.6026 37.5502 76.5624 37.8394 77.2692 38.4171C77.976 38.9948 78.3291 39.7482 78.3291 40.6766C78.3291 41.7025 77.9199 42.2154 77.1003 42.2154C76.6345 42.2154 76.2673 42.0994 75.9984 41.8647C75.7288 41.63 75.5943 41.3595 75.5943 41.0523C75.5943 40.7298 75.6428 40.3663 75.7396 39.9617C75.8359 39.5494 75.8958 39.259 75.92 39.089C75.6867 38.6774 75.1616 38.4716 74.342 38.4716C73.4344 38.4716 72.6894 38.9217 72.1075 39.8226C71.5244 40.7234 71.2338 42.0186 71.2338 43.7068C71.2338 45.2335 71.569 46.4678 72.2401 47.409C72.9099 48.3503 73.776 48.8209 74.8359 48.8209C76.2094 48.8209 77.3412 48.0611 78.2329 46.5421L79.0282 47.0634ZM83.0676 44.809C83.7017 44.2602 84.8941 43.7273 86.6449 43.2099L86.5728 47.4026C85.7775 48.3317 84.9062 48.7965 83.9585 48.7965C82.7298 48.7965 82.116 48.1502 82.116 46.8576C82.116 46.0414 82.4328 45.3592 83.0676 44.809ZM88.8972 50.0814C89.3631 50.0814 90.0131 49.9276 90.8493 49.6204V48.8453C90.2387 48.8453 89.8506 48.8311 89.6868 48.8029C89.5217 48.7747 89.3376 48.6555 89.1323 48.4452C88.9278 48.2355 88.8251 47.9117 88.8251 47.4757L88.8972 41.5012C88.8972 40.1675 88.576 39.1762 87.9342 38.5261C87.2911 37.8759 86.1471 37.5502 84.5009 37.5502C83.4888 37.5502 82.5328 37.8349 81.6336 38.4043C80.7343 38.9743 80.285 39.6187 80.285 40.3374C80.285 41.2582 80.67 41.7192 81.4411 41.7192C81.8426 41.7192 82.1817 41.6121 82.4589 41.3979C82.7355 41.1844 82.8745 40.919 82.8745 40.6042C82.8745 40.297 82.8381 40.0066 82.7661 39.7315C82.6941 39.4571 82.6578 39.2192 82.6578 39.0166C83.0191 38.637 83.5851 38.4466 84.3562 38.4466C85.1032 38.4466 85.6672 38.6998 86.049 39.2045C86.4295 39.7091 86.6206 40.3099 86.6206 41.0043V42.1917C86.3319 42.37 85.2357 42.7739 83.3321 43.4035C81.9988 43.8479 81.0594 44.3352 80.5132 44.8635C79.9676 45.3931 79.6942 46.1593 79.6942 47.1602C79.6942 48.0572 79.981 48.7786 80.5552 49.3236C81.1295 49.8692 81.8624 50.1417 82.754 50.1417C84.2472 50.1417 85.5283 49.5441 86.5971 48.3483H86.6691C86.8941 49.5037 87.6365 50.0814 88.8972 50.0814ZM98.2972 38.9677C97.2373 39.0247 96.3616 39.6101 95.6714 40.7251V47.6813C95.6714 48.1173 95.8103 48.4373 96.0869 48.6386C96.3642 48.8406 96.9849 48.9739 97.9479 49.0387V49.8389H91.6843V49.0387L92.263 48.9778C93.0412 48.922 93.4312 48.5296 93.4312 47.8025V40.434C93.4312 39.3838 92.8047 38.8388 91.5517 38.7977V37.9982L95.5031 37.7558L95.6714 37.9257V39.5858H95.7319C96.7676 38.2611 97.8759 37.5981 99.0569 37.5981C99.5629 37.5981 99.9759 37.7622 100.297 38.0892C100.618 38.4169 100.779 38.867 100.779 39.4402C100.779 39.9012 100.669 40.2769 100.447 40.5674C100.227 40.8585 99.9274 41.004 99.5501 41.004C99.1327 41.004 98.7975 40.897 98.5444 40.6828C98.2914 40.4693 98.1646 40.2045 98.1646 39.8884C98.1646 39.6467 98.2092 39.3395 98.2972 38.9677ZM106.237 38.4716C107.9 38.4716 108.731 39.8046 108.731 42.4706H103.226C103.274 41.2261 103.579 40.2489 104.141 39.5379C104.703 38.8268 105.403 38.4716 106.237 38.4716ZM106.515 50.1661C108.659 50.1661 110.285 49.1242 111.393 47.0397L110.562 46.5178C110.032 47.4231 109.516 48.0335 109.014 48.3483C108.513 48.6632 107.907 48.8209 107.201 48.8209C105.924 48.8209 104.942 48.3567 104.256 47.427C103.57 46.4985 103.226 45.1848 103.226 43.4888H111.104V42.6886C111.104 41.0972 110.689 39.8424 109.857 38.9262C109.026 38.0093 107.828 37.5502 106.262 37.5502C104.679 37.5502 103.38 38.16 102.364 39.3801C101.348 40.6003 100.841 42.0584 100.841 43.7556C100.841 45.6785 101.341 47.2276 102.341 48.4028C103.34 49.5781 104.732 50.1661 106.515 50.1661Z" fill="#03173E"/>
<path id="Trademark" fill-rule="evenodd" clip-rule="evenodd" d="M113.926 35.5752H114.213C114.547 35.5752 114.818 35.4624 114.818 35.1899C114.818 34.9494 114.643 34.7891 114.26 34.7891C114.101 34.7891 113.989 34.8058 113.926 34.8218V35.5752ZM113.91 37.0653H113.305V34.4371C113.544 34.389 113.878 34.357 114.308 34.357C114.803 34.357 115.025 34.4371 115.216 34.5493C115.36 34.6615 115.471 34.8693 115.471 35.1264C115.471 35.4149 115.248 35.6393 114.929 35.7349V35.7676C115.184 35.8631 115.328 36.0555 115.407 36.4081C115.487 36.8089 115.535 36.9692 115.599 37.0653H114.945C114.866 36.9692 114.818 36.7287 114.738 36.4242C114.69 36.1356 114.531 36.008 114.197 36.008H113.91V37.0653ZM112.301 35.6874C112.301 36.8569 113.161 37.786 114.34 37.786C115.487 37.786 116.331 36.8569 116.331 35.7028C116.331 34.5333 115.487 33.5876 114.325 33.5876C113.161 33.5876 112.301 34.5333 112.301 35.6874ZM117 35.6874C117 37.1775 115.838 38.347 114.325 38.347C112.827 38.347 111.632 37.1775 111.632 35.6874C111.632 34.2287 112.827 33.0586 114.325 33.0586C115.838 33.0586 117 34.2287 117 35.6874Z" fill="#03173E"/>
</g>
</svg>
