<svg width="48" height="48" viewBox="0 0 48 48" fill="none" xmlns="http://www.w3.org/2000/svg">
<path fill-rule="evenodd" clip-rule="evenodd" d="M14 3.25C14.4142 3.25 14.75 3.58579 14.75 4V12C14.75 12.4142 14.4142 12.75 14 12.75C13.5858 12.75 13.25 12.4142 13.25 12V8.75H10C9.13805 8.75 8.3114 9.09241 7.7019 9.7019C7.09241 10.3114 6.75 11.138 6.75 12V19.25H41.25V12C41.25 11.138 40.9076 10.3114 40.2981 9.7019C39.6886 9.09241 38.862 8.75 38 8.75H37C36.5858 8.75 36.25 8.41421 36.25 8C36.25 7.58579 36.5858 7.25 37 7.25H38C39.2598 7.25 40.468 7.75044 41.3588 8.64124C42.2496 9.53204 42.75 10.7402 42.75 12V38C42.75 39.2598 42.2496 40.468 41.3588 41.3588C40.468 42.2496 39.2598 42.75 38 42.75H10C8.74022 42.75 7.53204 42.2496 6.64124 41.3588C5.75044 40.468 5.25 39.2598 5.25 38V12C5.25 10.7402 5.75044 9.53204 6.64124 8.64124C7.53204 7.75044 8.74022 7.25 10 7.25H13.25V4C13.25 3.58579 13.5858 3.25 14 3.25ZM41.25 20.75H6.75V38C6.75 38.862 7.09241 39.6886 7.7019 40.2981C8.3114 40.9076 9.13805 41.25 10 41.25H38C38.862 41.25 39.6886 40.9076 40.2981 40.2981C40.9076 39.6886 41.25 38.862 41.25 38V20.75ZM30 3.25C30.4142 3.25 30.75 3.58579 30.75 4V12C30.75 12.4142 30.4142 12.75 30 12.75C29.5858 12.75 29.25 12.4142 29.25 12V8.75H21C20.5858 8.75 20.25 8.41421 20.25 8C20.25 7.58579 20.5858 7.25 21 7.25H29.25V4C29.25 3.58579 29.5858 3.25 30 3.25Z" fill="#0C2141"/>
</svg>
