<svg xmlns="http://www.w3.org/2000/svg" width="48" height="49" viewBox="0 0 48 49" fill="none">
  <path d="M44 18.6748V34.6748C44 35.7357 43.5786 36.7531 42.8284 37.5032C42.0783 38.2534 41.0609 38.6748 40 38.6748H8C6.93913 38.6748 5.92172 38.2534 5.17157 37.5032C4.42143 36.7531 4 35.7357 4 34.6748V14.6748C4 13.6139 4.42143 12.5965 5.17157 11.8464C5.92172 11.0962 6.93913 10.6748 8 10.6748H40C41.0609 10.6748 42.0783 11.0962 42.8284 11.8464C43.5786 12.5965 44 13.6139 44 14.6748V18.6748ZM44 18.6748H12" stroke="currentColor" stroke-width="1.5" stroke-linecap="round" stroke-linejoin="round"/>
</svg>