<svg width="48" height="48" viewBox="0 0 48 48" fill="none" xmlns="http://www.w3.org/2000/svg">
<path fill-rule="evenodd" clip-rule="evenodd" d="M13.3856 17.5699C13.6231 17.2306 14.0908 17.148 14.4301 17.3856L24 24.0845L33.5699 17.3856C33.9092 17.148 34.3769 17.2306 34.6144 17.5699C34.852 17.9092 34.7694 18.3769 34.4301 18.6144L24.4301 25.6144C24.1719 25.7952 23.8281 25.7952 23.5699 25.6144L13.5699 18.6144C13.2306 18.3769 13.148 17.9092 13.3856 17.5699Z" fill="#0C2141"/>
<path fill-rule="evenodd" clip-rule="evenodd" d="M8 10.75C7.13805 10.75 6.3114 11.0924 5.7019 11.7019C5.09241 12.3114 4.75 13.138 4.75 14V34C4.75 34.862 5.09241 35.6886 5.7019 36.2981C6.3114 36.9076 7.13805 37.25 8 37.25H40C40.862 37.25 41.6886 36.9076 42.2981 36.2981C42.9076 35.6886 43.25 34.862 43.25 34V14C43.25 13.138 42.9076 12.3114 42.2981 11.7019C41.6886 11.0924 40.862 10.75 40 10.75H8ZM4.64124 10.6412C5.53204 9.75044 6.74022 9.25 8 9.25H40C41.2598 9.25 42.468 9.75044 43.3588 10.6412C44.2496 11.532 44.75 12.7402 44.75 14V34C44.75 35.2598 44.2496 36.468 43.3588 37.3588C42.468 38.2496 41.2598 38.75 40 38.75H8C6.74022 38.75 5.53204 38.2496 4.64124 37.3588C3.75044 36.468 3.25 35.2598 3.25 34V14C3.25 12.7402 3.75044 11.532 4.64124 10.6412Z" fill="#0C2141"/>
</svg>
