<svg width="24" height="24" viewBox="0 0 24 24" fill="none" xmlns="http://www.w3.org/2000/svg">
  <g id="External">
    <path id="Vector" d="M9.172 14.829L14.828 9.172M14.828 9.172L14.828 14.122M14.828 9.172L9.878 9.172M3.6 3L20.4 3C20.5591 3 20.7117 3.06321 20.8243 3.17573C20.9368 3.28826 21 3.44087 21 3.6L21 20.4C21 20.5591 20.9368 20.7117 20.8243 20.8243C20.7117 20.9368 20.5591 21 20.4 21L3.6 21C3.44087 21 3.28826 20.9368 3.17574 20.8243C3.06321 20.7117 3 20.5591 3 20.4L3 3.6C3 3.44087 3.06321 3.28826 3.17574 3.17574C3.28826 3.06321 3.44087 3 3.6 3Z" stroke="white" stroke-width="2" stroke-linecap="round" stroke-linejoin="round"/>
  </g>
</svg>
