<svg width="48" height="48" viewBox="0 0 48 48" fill="none" xmlns="http://www.w3.org/2000/svg">
<g clip-path="url(#clip0_34199_4689)">
<path fill-rule="evenodd" clip-rule="evenodd" d="M16.9553 8.77936C15.6855 8.64391 14.4015 8.77283 13.184 9.15802C11.9665 9.5432 10.8419 10.1763 9.88111 11.0174C8.92032 11.8586 8.14409 12.8896 7.60131 14.0454C7.05853 15.2013 6.76095 16.4571 6.72733 17.7336C6.6937 19.0101 6.92475 20.2798 7.40593 21.4627C7.8871 22.6455 8.60798 23.7159 9.52316 24.6065L9.5279 24.6111L9.52788 24.6111L24.0001 38.9444L38.4723 24.6111C38.4993 24.5844 38.5278 24.5601 38.5576 24.5383C39.4263 23.6631 40.1116 22.6228 40.5727 21.4782C41.0484 20.2975 41.2752 19.0312 41.239 17.7587C41.2028 16.4863 40.9044 15.2349 40.3623 14.0831C39.8203 12.9313 39.0464 11.9037 38.0889 11.0648C37.1315 10.2258 36.0112 9.59353 34.7982 9.20745C33.5852 8.82136 32.3055 8.68981 31.0393 8.82103C29.7731 8.95225 28.5476 9.34341 27.4395 9.97004C26.3314 10.5967 25.3646 11.4453 24.5996 12.4627C24.4574 12.6517 24.2345 12.7626 23.998 12.762C23.7615 12.7613 23.5392 12.6492 23.3982 12.4594C22.6364 11.4345 21.6707 10.5784 20.5619 9.94505C19.453 9.31171 18.2251 8.91481 16.9553 8.77936ZM39.4413 25.7626L24.5279 40.5329C24.2356 40.8224 23.7646 40.8224 23.4723 40.5329L8.47706 25.6815C8.47626 25.6807 8.47545 25.6799 8.47465 25.6791C7.4122 24.6446 6.57527 23.4015 6.01649 22.0279C5.45729 20.6532 5.18877 19.1776 5.22785 17.6941C5.26693 16.2106 5.61275 14.7512 6.24355 13.4079C6.87435 12.0646 7.77645 10.8664 8.89306 9.88884C10.0097 8.91129 11.3166 8.17553 12.7315 7.72788C14.1464 7.28024 15.6387 7.1304 17.1144 7.28782C18.5901 7.44524 20.0172 7.9065 21.3058 8.64255C22.3194 9.22147 23.2301 9.96053 24.0034 10.8292C24.7785 9.96826 25.6891 9.23665 26.7011 8.66435C27.9889 7.93612 29.4131 7.48152 30.8847 7.32902C32.3562 7.17652 33.8434 7.32941 35.2531 7.7781C36.6629 8.22679 37.9648 8.96163 39.0775 9.93664C40.1902 10.9116 41.0896 12.1058 41.7196 13.4444C42.3495 14.783 42.6964 16.2373 42.7384 17.7161C42.7805 19.1949 42.5169 20.6665 41.9641 22.0387C41.4112 23.411 40.5811 24.6544 39.5257 25.6911C39.4989 25.7173 39.4707 25.7412 39.4413 25.7626Z" fill="#0C2141"/>
</g>
<defs>
<clipPath id="clip0_34199_4689">
<rect width="48" height="48" fill="white"/>
</clipPath>
</defs>
</svg>
