<svg width="48" height="48" viewBox="0 0 48 48" fill="none" xmlns="http://www.w3.org/2000/svg">
<path fill-rule="evenodd" clip-rule="evenodd" d="M23.6089 3.36004C23.849 3.21332 24.151 3.21332 24.3911 3.36004L42.3911 14.36C42.7445 14.576 42.8559 15.0376 42.6399 15.3911C42.424 15.7445 41.9623 15.856 41.6089 15.64L24 4.87896L6.39107 15.64C6.03763 15.856 5.57602 15.7445 5.36002 15.3911C5.14403 15.0376 5.25546 14.576 5.6089 14.36L23.6089 3.36004ZM9.99999 19.25C10.4142 19.25 10.75 19.5858 10.75 20V42.8C10.75 42.9193 10.7974 43.0338 10.8818 43.1182C10.9662 43.2026 11.0806 43.25 11.2 43.25H36.8C36.9193 43.25 37.0338 43.2026 37.1182 43.1182C37.2026 43.0338 37.25 42.9193 37.25 42.8V20C37.25 19.5858 37.5858 19.25 38 19.25C38.4142 19.25 38.75 19.5858 38.75 20V42.8C38.75 43.3172 38.5445 43.8132 38.1788 44.1789C37.8131 44.5446 37.3172 44.75 36.8 44.75H11.2C10.6828 44.75 10.1868 44.5446 9.82113 44.1789C9.45543 43.8132 9.24999 43.3172 9.24999 42.8V20C9.24999 19.5858 9.58577 19.25 9.99999 19.25Z" fill="#0C2141"/>
<path fill-rule="evenodd" clip-rule="evenodd" d="M19.916 20C19.916 19.5858 20.2518 19.25 20.666 19.25H27.334C27.7482 19.25 28.084 19.5858 28.084 20V23.916H32C32.4142 23.916 32.75 24.2518 32.75 24.666V31.334C32.75 31.7482 32.4142 32.084 32 32.084H28.084V36C28.084 36.4142 27.7482 36.75 27.334 36.75H20.666C20.2518 36.75 19.916 36.4142 19.916 36V32.084H16C15.5858 32.084 15.25 31.7482 15.25 31.334V24.666C15.25 24.2518 15.5858 23.916 16 23.916H19.916V20ZM21.416 20.75V24.666C21.416 25.0802 21.0802 25.416 20.666 25.416H16.75V30.584H20.666C21.0802 30.584 21.416 30.9198 21.416 31.334V35.25H26.584V31.334C26.584 30.9198 26.9198 30.584 27.334 30.584H31.25V25.416H27.334C26.9198 25.416 26.584 25.0802 26.584 24.666V20.75H21.416Z" fill="#0C2141"/>
</svg>
