<svg width="48" height="48" viewBox="0 0 48 48" fill="none" xmlns="http://www.w3.org/2000/svg">
<path fill-rule="evenodd" clip-rule="evenodd" d="M24 4.75C13.3685 4.75 4.75 13.3685 4.75 24C4.75 34.6315 13.3685 43.25 24 43.25C34.6315 43.25 43.25 34.6315 43.25 24C43.25 13.3685 34.6315 4.75 24 4.75ZM3.25 24C3.25 12.5401 12.5401 3.25 24 3.25C35.4599 3.25 44.75 12.5401 44.75 24C44.75 35.4599 35.4599 44.75 24 44.75C12.5401 44.75 3.25 35.4599 3.25 24Z" fill="#0C2141"/>
<path fill-rule="evenodd" clip-rule="evenodd" d="M33.204 13.7611C32.9728 13.695 32.728 13.6933 32.4959 13.756L12.0316 19.2781C10.8199 19.6046 10.703 21.2806 11.8578 21.7719L20.9976 25.6578C21.1929 25.7408 21.3439 25.9027 21.4131 26.1033L24.6531 35.4913C25.0628 36.6783 26.7406 36.6791 27.1514 35.4926L34.0895 15.4665C34.1684 15.2393 34.184 14.9945 34.1344 14.7592C34.0847 14.524 33.9718 14.3067 33.8079 14.1308C33.644 13.9549 33.4352 13.8271 33.204 13.7611ZM32.1044 12.308C32.5999 12.174 33.1225 12.1778 33.616 12.3188C34.1095 12.4597 34.5552 12.7326 34.9052 13.1081C35.2551 13.4835 35.496 13.9473 35.602 14.4495C35.708 14.9515 35.6751 15.4728 35.5068 15.9575M35.5068 15.9575L28.5689 35.9834V35.9834C27.6916 38.5168 24.1095 38.5137 23.2352 35.9807L20.1039 26.9078L11.2707 23.1522C8.80555 22.1035 9.0527 18.5275 11.6408 17.8299V17.8299L32.1044 12.308" fill="#0C2141"/>
</svg>
