<svg width="24" height="24" viewBox="0 0 24 24" fill="none" xmlns="http://www.w3.org/2000/svg">
<g id="Location">
<path id="Vector" d="M12 22C17.5228 22 22 17.5228 22 12C22 6.47715 17.5228 2 12 2C6.47715 2 2 6.47715 2 12C2 17.5228 6.47715 22 12 22Z" stroke="#0c2141" stroke-width="2"/>
<path id="Vector_2" d="M13.93 17.869C13.608 18.799 12.293 18.798 11.972 17.868L10.352 13.174L5.78196 11.231C4.87696 10.846 4.96796 9.533 5.91796 9.277L16.15 6.516C16.3318 6.46683 16.5237 6.4682 16.7049 6.51996C16.886 6.57171 17.0497 6.6719 17.1781 6.80973C17.3066 6.94756 17.3951 7.11781 17.434 7.30217C17.4729 7.48653 17.4608 7.67801 17.399 7.856L13.93 17.869Z" stroke="#0c2141" stroke-width="2" stroke-linecap="round" stroke-linejoin="round"/>
</g>
</svg>
