<svg width="24" height="24" viewBox="0 0 24 24" fill="none" xmlns="http://www.w3.org/2000/svg">
<g id="Print">
<path id="Vector" d="M17.5714 18H20.4C20.7314 18 21 17.7314 21 17.4V11C21 8.79086 19.2091 7 17 7H7C4.79086 7 3 8.79086 3 11V17.4C3 17.7314 3.26863 18 3.6 18H6.42857" stroke="white" stroke-width="2" stroke-linecap="round" stroke-linejoin="round"/>
<path id="Vector_2" d="M8 7V3.6C8 3.26863 8.26863 3 8.6 3H15.4C15.7314 3 16 3.26863 16 3.6V7" stroke="white" stroke-width="2" stroke-linecap="round" stroke-linejoin="round"/>
<path id="Vector_3" d="M6.09989 20.3151L6.43062 18L6.92846 14.5151C6.97069 14.2196 7.22384 14 7.52243 14H16.4817C16.7803 14 17.0334 14.2196 17.0757 14.5151L17.5735 18L17.9042 20.3151C17.9559 20.6766 17.6754 21 17.3103 21H6.69386C6.32873 21 6.04825 20.6766 6.09989 20.3151Z" stroke="white" stroke-width="2" stroke-linecap="round" stroke-linejoin="round"/>
<path id="Vector_4" d="M17 10.01L17.01 9.9989" stroke="white" stroke-width="2" stroke-linecap="round" stroke-linejoin="round"/>
</g>
</svg>
