<svg width="48" height="48" viewBox="0 0 48 48" fill="none" xmlns="http://www.w3.org/2000/svg">
<path fill-rule="evenodd" clip-rule="evenodd" d="M26 6.75C17.5777 6.75 10.75 13.5777 10.75 22C10.75 30.4223 17.5777 37.25 26 37.25C34.4223 37.25 41.25 30.4223 41.25 22C41.25 13.5777 34.4223 6.75 26 6.75ZM9.25 22C9.25 12.7492 16.7492 5.25 26 5.25C35.2508 5.25 42.75 12.7492 42.75 22C42.75 31.2508 35.2508 38.75 26 38.75C16.7492 38.75 9.25 31.2508 9.25 22Z" fill="#0C2141"/>
<path fill-rule="evenodd" clip-rule="evenodd" d="M14.5303 33.4697C14.8232 33.7626 14.8232 34.2374 14.5303 34.5303L6.53033 42.5303C6.23744 42.8232 5.76256 42.8232 5.46967 42.5303C5.17678 42.2374 5.17678 41.7626 5.46967 41.4697L13.4697 33.4697C13.7626 33.1768 14.2374 33.1768 14.5303 33.4697Z" fill="#0C2141"/>
</svg>
