<svg width="24" height="24" viewBox="0 0 24 24" fill="none" xmlns="http://www.w3.org/2000/svg">
<g id="Small Pin">
<path id="Vector" d="M18 10.6C18 13.6926 12 19 12 19C12 19 6 13.6926 6 10.6C6 9.11479 6.63214 7.69041 7.75736 6.6402C8.88258 5.59 10.4087 5 12 5C13.5913 5 15.1174 5.59 16.2426 6.6402C17.3679 7.69041 18 9.11479 18 10.6Z" stroke="#0c2141" stroke-width="2" stroke-linecap="round" stroke-linejoin="round"/>
<path id="Vector_2" d="M12 11C12.2652 11 12.5196 10.8946 12.7071 10.7071C12.8946 10.5196 13 10.2652 13 10C13 9.73478 12.8946 9.48043 12.7071 9.29289C12.5196 9.10536 12.2652 9 12 9C11.7348 9 11.4804 9.10536 11.2929 9.29289C11.1054 9.48043 11 9.73478 11 10C11 10.2652 11.1054 10.5196 11.2929 10.7071C11.4804 10.8946 11.7348 11 12 11Z" stroke="#0c2141" stroke-width="2" stroke-linecap="round" stroke-linejoin="round"/>
</g>
</svg>
