<svg width="132" height="57" viewBox="0 0 132 57" fill="none" xmlns="http://www.w3.org/2000/svg">
<g id="Logos / HCA Stacked">
<path id="HCA" fill-rule="evenodd" clip-rule="evenodd" d="M59.9315 9.31405L55.8077 11.5711C55.5594 11.7284 55.2333 11.6673 55.0627 11.4232C55.0263 11.3714 54.9783 11.2958 54.9151 11.1961L54.915 11.1959C54.6711 10.8113 54.2002 10.0687 53.2859 8.95356C51.6397 6.94353 49.2263 5.93385 46.4084 5.93385C40.9865 5.93385 36.974 10.053 36.974 16.0766C36.9947 22.2992 41.1364 26.2187 46.4084 26.2187C49.0572 26.2187 51.28 25.1953 53.0212 23.4431C53.6315 22.8295 54.3544 21.7264 54.76 21.1075L54.7601 21.1074C54.8443 20.9789 54.9148 20.8713 54.9678 20.7933C55.1412 20.5362 55.4944 20.4952 55.7399 20.6784L60.0821 22.7573C60.3354 22.9469 60.3739 23.3009 60.2091 23.576C60.1726 23.6365 60.1099 23.7487 60.0263 23.8982L60.0262 23.8984L60.0262 23.8984C59.6434 24.583 58.823 26.0501 58.0805 26.9282C55.3482 30.1561 51.2871 32.154 46.4505 32.154C37.2516 32.154 30.7623 25.4 30.7623 16.0766C30.7623 6.75395 37.2516 0 46.4505 0C51.4862 0 55.9026 2.17663 58.4865 5.8764C59.5107 7.34289 59.8574 8.01604 60.0165 8.32497L60.0165 8.32508C60.0564 8.40246 60.0845 8.45698 60.1085 8.49539C60.2812 8.77115 60.2027 9.1417 59.9315 9.31405ZM7.69892 13.0644H21.195C21.3498 13.0644 21.4761 12.9373 21.4761 12.7807V1.1651C21.4761 0.838359 21.7387 0.574808 22.0627 0.574808H27.0285C27.3532 0.574808 27.6158 0.838359 27.6158 1.1651V30.9873C27.6158 31.3133 27.3532 31.5776 27.0285 31.5776H22.0627C21.7387 31.5776 21.4761 31.3133 21.4761 30.9873V19.1052C21.4761 18.9487 21.3498 18.8223 21.195 18.8223H7.69892C7.54336 18.8223 7.41705 18.9487 7.41705 19.1052V30.9873C7.41705 31.3133 7.15445 31.5776 6.83048 31.5776H1.86464C1.54068 31.5776 1.27808 31.3133 1.27808 30.9873V1.1651C1.27808 0.838359 1.54068 0.574808 1.86464 0.574808H6.86973C7.17229 0.574808 7.41705 0.821124 7.41705 1.12489V12.7807C7.41705 12.9373 7.54336 13.0644 7.69892 13.0644ZM79.9455 0.922061L91.517 30.8362C91.6547 31.1931 91.3935 31.578 91.0125 31.578H85.6214C85.3951 31.578 85.1939 31.4373 85.1147 31.224L76.2705 7.40599C76.1785 7.15681 75.8288 7.15681 75.7361 7.40599L71.6822 18.2791C71.6115 18.4665 71.7493 18.6676 71.9498 18.6676H78.6289C78.8095 18.6676 78.965 18.8134 78.9657 18.9951C78.9722 21.864 77.0805 24.2086 74.2903 24.358H69.6228C69.5036 24.358 69.3973 24.4327 69.3552 24.5454L66.8712 31.224C66.7927 31.4373 66.5907 31.578 66.3645 31.578H61.1283C60.7472 31.578 60.4853 31.1931 60.6237 30.8362L72.1945 0.922061C72.2766 0.713087 72.4764 0.575208 72.699 0.575208H79.441C79.6636 0.575208 79.8642 0.713087 79.9455 0.922061Z" fill="#03173E"/>
<path id="Diamond Plus" fill-rule="evenodd" clip-rule="evenodd" d="M98.2111 10.288H101.697C103.068 10.288 104.181 9.16921 104.181 7.78898V4.28023C104.181 2.12443 105.92 0.0777752 108.064 0.0835081C108.196 0.0835081 108.3 0.197702 108.3 0.329118V9.10386C108.3 12.0474 105.93 14.4338 103.005 14.4338L94.285 14.4345C94.1544 14.4345 94.0409 14.3282 94.0409 14.1961C94.0352 12.0381 96.0675 10.288 98.2111 10.288ZM98.2111 21.4181H101.697C103.068 21.4181 104.181 22.5363 104.181 23.9165V27.4252C104.181 29.5818 105.92 31.6284 108.064 31.6227C108.196 31.6227 108.3 31.5085 108.3 31.3764V22.6016C108.3 19.6587 105.93 17.2717 103.005 17.2717L94.285 17.271C94.1544 17.271 94.0409 17.378 94.0409 17.5094C94.0352 19.6674 96.0675 21.4181 98.2111 21.4181ZM117.723 21.4181H121.209C123.352 21.4181 125.385 19.6674 125.38 17.5094C125.38 17.378 125.266 17.271 125.136 17.271L116.416 17.2717C113.491 17.2717 111.119 19.6587 111.119 22.6016V31.3764C111.119 31.5085 111.226 31.6227 111.356 31.6227C113.501 31.6284 115.24 29.5818 115.24 27.4252V23.9165C115.24 22.5363 116.351 21.4181 117.723 21.4181ZM121.209 10.288H117.723C116.351 10.288 115.24 9.16921 115.24 7.78898V4.28023C115.24 2.12443 113.501 0.0777752 111.356 0.0835081C111.226 0.0835081 111.119 0.197702 111.119 0.329118V9.10386C111.119 12.0474 113.491 14.4338 116.416 14.4338L125.136 14.4345C125.266 14.4345 125.38 14.3282 125.38 14.1961C125.385 12.0381 123.352 10.288 121.209 10.288ZM112.274 15.235C111.494 14.713 110.844 14.0588 110.324 13.2731C109.936 12.6642 109.486 12.6656 109.097 13.2731C108.578 14.0595 107.928 14.713 107.147 15.235C106.542 15.625 106.543 16.081 107.147 16.4709C107.928 16.9937 108.578 17.6479 109.097 18.4336C109.484 19.0404 109.937 19.0411 110.324 18.4336C110.844 17.6479 111.494 16.9937 112.274 16.4709C112.877 16.0803 112.877 15.6257 112.274 15.235Z" fill="#03173E"/>
<path id="Healthcare" fill-rule="evenodd" clip-rule="evenodd" d="M46.4577 54.9234V55.8196H52.9584V54.9234C51.6276 54.815 50.9625 54.2993 50.9625 53.3766V36.487L50.7741 36.2967L45.7698 36.5962V37.4917C46.9929 37.5822 47.7464 37.8357 48.029 38.2515C48.313 38.668 48.4543 39.0888 48.4543 39.5139V53.5389C48.4543 54.3625 48.0133 54.8013 47.132 54.8552L46.4577 54.9234ZM12.84 54.8423V55.8197H20.7708V54.8423C19.8175 54.7605 19.1588 54.591 18.7942 54.3332C18.431 54.0754 18.249 53.661 18.249 53.0908V39.2196C18.249 38.6034 18.431 38.1876 18.7942 37.9707C19.1588 37.7531 19.8175 37.6038 20.7708 37.5226V36.5589H12.84V37.5226C14.5305 37.6677 15.3754 38.2824 15.3754 39.3689V45.2051H6.40634V39.2196C6.40634 38.5862 6.58331 38.1653 6.93938 37.9571C7.29404 37.7488 7.9434 37.6038 8.88819 37.5226V36.5589H0.957397V37.5226C2.675 37.6677 3.53344 38.2824 3.53344 39.3689V53.2675C3.53344 53.7019 3.41213 54.0596 3.16951 54.3396C2.92618 54.6204 2.18905 54.7885 0.957397 54.8423V55.8197H8.88819V54.8423C7.89844 54.7605 7.23766 54.5867 6.90513 54.3195C6.57189 54.0531 6.40634 53.6438 6.40634 53.0908V46.3993H15.3754V53.2675C15.3754 53.666 15.3105 53.9648 15.1799 54.163C15.0493 54.3626 14.888 54.5026 14.6946 54.5838C14.5013 54.6657 13.8833 54.7526 12.84 54.8423ZM26.3686 43.0882C28.2296 43.0882 29.1601 44.5811 29.1601 47.5671H22.9962C23.0497 46.1732 23.3915 45.0788 24.0216 44.2824C24.6502 43.486 25.4323 43.0882 26.3686 43.0882ZM26.6783 56.186C29.0795 56.186 30.8998 55.0191 32.1408 52.6844L31.2102 52.0999C30.6165 53.1139 30.0385 53.7975 29.4769 54.1501C28.9146 54.5027 28.2382 54.6794 27.4468 54.6794C26.0168 54.6794 24.9178 54.1595 24.1493 53.1182C23.3808 52.0784 22.9962 50.6069 22.9962 48.7075H31.8168V47.8113C31.8168 46.0289 31.3515 44.6235 30.421 43.5973C29.4905 42.5704 28.1482 42.0562 26.395 42.0562C24.6231 42.0562 23.1688 42.7392 22.0321 44.1058C20.8939 45.4723 20.3259 47.1054 20.3259 49.0062C20.3259 51.1599 20.8854 52.8949 22.0043 54.2112C23.1246 55.5275 24.6816 56.186 26.6783 56.186ZM40.9753 48.3951C39.0151 48.9746 37.6799 49.5714 36.9699 50.1861C36.2592 50.8022 35.9045 51.5663 35.9045 52.4805C35.9045 53.9282 36.5924 54.6521 37.9682 54.6521C39.0286 54.6521 40.0041 54.1315 40.8946 53.0909L40.9753 48.3951ZM45.6828 55.5749C44.7473 55.9189 44.0187 56.0912 43.4978 56.0912C42.0856 56.0912 41.2543 55.4442 41.0024 54.1501H40.9218C39.7251 55.4894 38.2915 56.1587 36.6188 56.1587C35.6205 56.1587 34.7999 55.8535 34.1577 55.2424C33.514 54.632 33.1929 53.8241 33.1929 52.8195C33.1929 51.6985 33.499 50.8403 34.1099 50.2471C34.7221 49.6554 35.7732 49.1096 37.2661 48.612C39.3968 47.9068 40.6249 47.4544 40.9482 47.2547V45.9248C40.9482 45.147 40.7348 44.4741 40.3081 43.909C39.8806 43.3438 39.2491 43.0602 38.4135 43.0602C37.5501 43.0602 36.9157 43.2734 36.5118 43.6986C36.5118 43.9255 36.5518 44.1919 36.6324 44.4993C36.7137 44.8074 36.7537 45.1327 36.7537 45.4766C36.7537 45.8292 36.5989 46.1265 36.2884 46.3657C35.978 46.6055 35.5984 46.7255 35.1488 46.7255C34.2854 46.7255 33.8544 46.2091 33.8544 45.1779C33.8544 44.3729 34.3575 43.6512 35.3644 43.0128C36.3712 42.3751 37.4416 42.0562 38.5748 42.0562C40.418 42.0562 41.6989 42.421 42.4189 43.1492C43.1382 43.8774 43.4978 44.9876 43.4978 46.4813L43.4165 53.1728C43.4165 53.6611 43.5313 54.0237 43.7611 54.2586C43.9902 54.4941 44.1964 54.6277 44.3812 54.6593C44.5653 54.6909 44.9992 54.7067 45.6828 54.7067V55.5749ZM61.9055 55.235C60.611 55.8059 59.415 56.091 58.3183 56.091C56.286 56.091 55.2705 55.0189 55.2705 52.8738V43.7795H52.8693V42.5041H55.3376V38.3369H57.7924V42.5041H61.5958V43.7795H57.8195V51.2581C57.8195 52.499 57.9586 53.3421 58.2376 53.7902C58.5159 54.2383 59.0961 54.4616 59.9774 54.4616C60.7416 54.4616 61.3845 54.3855 61.9055 54.2311V55.235ZM71.2974 54.9234V55.8196H77.8253V54.9234C76.5309 54.8236 75.8829 54.3266 75.8829 53.4304V46.4811C75.8829 43.5311 74.6506 42.0561 72.1873 42.0561C71.4409 42.0561 70.7437 42.1875 70.0965 42.4496C69.4493 42.7124 68.6351 43.3408 67.6553 44.3361H67.6018V36.487L67.4127 36.2967L62.4897 36.5962V37.4917C63.3345 37.5549 63.8926 37.6367 64.1623 37.7351C64.4313 37.8357 64.6547 38.0547 64.8295 38.3936C65.005 38.7333 65.0928 39.0794 65.0928 39.4328V53.5388C65.0928 54.3532 64.6561 54.7927 63.7841 54.8552L63.1233 54.9234V55.8196H69.6519V54.9234C68.2847 54.8236 67.6018 54.3173 67.6018 53.4031V45.707C68.3653 44.3498 69.5163 43.6711 71.0548 43.6711C71.7284 43.6711 72.2793 43.9426 72.7068 44.4855C73.1335 45.0291 73.3476 45.7479 73.3476 46.6442V53.5388C73.3476 54.3625 72.8973 54.8013 71.9982 54.8552C71.7827 54.8746 71.5486 54.8961 71.2974 54.9234ZM89.4847 52.711C88.9181 53.7422 88.1467 54.5796 87.1712 55.2223C86.1957 55.865 85.1767 56.186 84.1156 56.186C82.1918 56.186 80.6854 55.5411 79.5972 54.2514C78.5097 52.9624 77.9659 51.2317 77.9659 49.0601C77.9659 47.142 78.5611 45.4953 79.7528 44.1194C80.9445 42.7442 82.4573 42.0562 84.2919 42.0562C85.6491 42.0562 86.7238 42.3801 87.5152 43.0271C88.3065 43.6742 88.7019 44.518 88.7019 45.5578C88.7019 46.7068 88.2437 47.2813 87.3261 47.2813C86.8044 47.2813 86.3934 47.1513 86.0923 46.8885C85.7904 46.6256 85.6399 46.3226 85.6399 45.9786C85.6399 45.6174 85.6941 45.2102 85.8026 44.7571C85.9103 44.2953 85.9774 43.97 86.0045 43.7797C85.7433 43.3187 85.1553 43.0882 84.2377 43.0882C83.2215 43.0882 82.3873 43.5923 81.7358 44.6013C81.0829 45.6102 80.7575 47.0608 80.7575 48.9516C80.7575 50.6615 81.1328 52.0439 81.8842 53.0981C82.6342 54.1523 83.604 54.6794 84.7907 54.6794C86.3285 54.6794 87.5958 53.8284 88.5941 52.1272L89.4847 52.711ZM94.0073 50.1861C94.7173 49.5714 96.0525 48.9746 98.0127 48.3951L97.932 53.0909C97.0415 54.1315 96.066 54.6521 95.0049 54.6521C93.6291 54.6521 92.9419 53.9282 92.9419 52.4805C92.9419 51.5663 93.2966 50.8022 94.0073 50.1861ZM100.534 56.0912C101.056 56.0912 101.784 55.9189 102.72 55.5749V54.7067C102.037 54.7067 101.602 54.6909 101.419 54.6593C101.234 54.6277 101.028 54.4941 100.798 54.2586C100.569 54.0237 100.454 53.6611 100.454 53.1728L100.534 46.4813C100.534 44.9876 100.175 43.8774 99.4562 43.1492C98.7362 42.421 97.4554 42.0562 95.6122 42.0562C94.479 42.0562 93.4086 42.3751 92.4017 43.0128C91.3949 43.6512 90.8918 44.3729 90.8918 45.1779C90.8918 46.2091 91.3228 46.7255 92.1862 46.7255C92.6358 46.7255 93.0154 46.6055 93.3258 46.3657C93.6355 46.1265 93.7911 45.8292 93.7911 45.4766C93.7911 45.1327 93.7504 44.8074 93.6698 44.4993C93.5891 44.1919 93.5485 43.9255 93.5485 43.6986C93.9531 43.2734 94.5867 43.0602 95.4502 43.0602C96.2865 43.0602 96.918 43.3438 97.3455 43.909C97.7715 44.4741 97.9855 45.147 97.9855 45.9248V47.2547C97.6623 47.4544 96.4349 47.9068 94.3035 48.612C92.8106 49.1096 91.7588 49.6554 91.1473 50.2471C90.5364 50.8403 90.2303 51.6985 90.2303 52.8195C90.2303 53.8241 90.5514 54.632 91.1944 55.2424C91.8373 55.8535 92.6579 56.1587 93.6562 56.1587C95.3282 56.1587 96.7625 55.4894 97.9591 54.1501H98.0398C98.2917 55.4442 99.123 56.0912 100.534 56.0912ZM111.059 43.6438C109.873 43.7077 108.892 44.3633 108.119 45.6121V53.4031C108.119 53.8914 108.275 54.2497 108.585 54.4752C108.895 54.7014 109.59 54.8508 110.668 54.9233V55.8195H103.655V54.9233L104.303 54.8551C105.174 54.7926 105.611 54.3531 105.611 53.5388V45.2861C105.611 44.1098 104.91 43.4994 103.507 43.4535V42.558L107.931 42.2865L108.119 42.4768V44.336H108.187C109.347 42.8524 110.588 42.1099 111.91 42.1099C112.476 42.1099 112.939 42.2937 113.298 42.6599C113.658 43.0269 113.838 43.531 113.838 44.173C113.838 44.6894 113.715 45.1102 113.467 45.4355C113.22 45.7615 112.885 45.9245 112.462 45.9245C111.995 45.9245 111.619 45.8046 111.336 45.5647C111.053 45.3256 110.911 45.029 110.911 44.675C110.911 44.4043 110.961 44.0603 111.059 43.6438ZM119.95 43.0882C121.811 43.0882 122.741 44.5811 122.741 47.5671H116.578C116.632 46.1732 116.973 45.0788 117.603 44.2824C118.232 43.486 119.015 43.0882 119.95 43.0882ZM120.26 56.186C122.661 56.186 124.482 55.0191 125.723 52.6844L124.791 52.0999C124.198 53.1139 123.62 53.7975 123.059 54.1501C122.497 54.5027 121.819 54.6794 121.029 54.6794C119.599 54.6794 118.5 54.1595 117.731 53.1182C116.963 52.0784 116.578 50.6069 116.578 48.7075H125.399V47.8113C125.399 46.0289 124.934 44.6235 124.003 43.5973C123.072 42.5704 121.73 42.0562 119.977 42.0562C118.205 42.0562 116.751 42.7392 115.613 44.1058C114.476 45.4723 113.907 47.1054 113.907 49.0062C113.907 51.1599 114.467 52.8949 115.587 54.2112C116.706 55.5275 118.264 56.186 120.26 56.186Z" fill="#03173E"/>
<path id="Trademark" fill-rule="evenodd" clip-rule="evenodd" d="M128.558 39.8443H128.88C129.253 39.8443 129.557 39.7179 129.557 39.4127C129.557 39.1434 129.361 38.9638 128.932 38.9638C128.754 38.9638 128.629 38.9825 128.558 39.0005V39.8443ZM128.54 41.5132H127.863V38.5696C128.13 38.5157 128.505 38.4798 128.986 38.4798C129.54 38.4798 129.789 38.5696 130.003 38.6953C130.163 38.8209 130.288 39.0536 130.288 39.3416C130.288 39.6647 130.038 39.9161 129.682 40.0231V40.0597C129.967 40.1667 130.128 40.3821 130.217 40.7771C130.306 41.2259 130.359 41.4055 130.431 41.5132H129.699C129.61 41.4055 129.557 41.1362 129.468 40.7951C129.414 40.4719 129.236 40.329 128.862 40.329H128.54V41.5132ZM126.739 39.9699C126.739 41.2798 127.702 42.3204 129.022 42.3204C130.306 42.3204 131.251 41.2798 131.251 39.9872C131.251 38.6773 130.306 37.6181 129.004 37.6181C127.702 37.6181 126.739 38.6773 126.739 39.9699ZM132 39.9699C132 41.6389 130.698 42.9487 129.004 42.9487C127.327 42.9487 125.99 41.6389 125.99 39.9699C125.99 38.3362 127.327 37.0256 129.004 37.0256C130.698 37.0256 132 38.3362 132 39.9699Z" fill="#03173E"/>
</g>
</svg>
