<svg xmlns="http://www.w3.org/2000/svg" width="37" height="44" viewBox="0 0 37 44" fill="none">
  <path fill-rule="evenodd" clip-rule="evenodd" d="M18.4956 44C18.4956 44 36.9911 31.7345 36.9911 17.6C36.9911 12.9322 34.3458 8.45556 31.0233 5.15492C27.7007 1.85428 23.1944 0 18.4956 0C13.7968 0 9.29044 1.85428 5.9679 5.15492C2.64535 8.45556 0 12.9322 0 17.6C0 30.177 18.4956 44 18.4956 44ZM25.7071 13.7071C26.0976 13.3166 26.0976 12.6834 25.7071 12.2929C25.3166 11.9024 24.6834 11.9024 24.2929 12.2929L15 21.5858L11.7071 18.2929C11.3166 17.9024 10.6834 17.9024 10.2929 18.2929C9.90237 18.6834 9.90237 19.3166 10.2929 19.7071L14.2929 23.7071C14.6834 24.0976 15.3166 24.0976 15.7071 23.7071L25.7071 13.7071Z" fill="#0C2141"/>
</svg>