<svg width="48" height="48" viewBox="0 0 48 48" fill="none" xmlns="http://www.w3.org/2000/svg">
<path fill-rule="evenodd" clip-rule="evenodd" d="M23.4697 5.46967C23.7626 5.17678 24.2374 5.17678 24.5303 5.46967L34.5303 15.4697C34.8232 15.7626 34.8232 16.2374 34.5303 16.5303C34.2374 16.8232 33.7626 16.8232 33.4697 16.5303L24 7.06066L14.5303 16.5303C14.2374 16.8232 13.7626 16.8232 13.4697 16.5303C13.1768 16.2374 13.1768 15.7626 13.4697 15.4697L23.4697 5.46967ZM13.4697 31.4697C13.7626 31.1768 14.2374 31.1768 14.5303 31.4697L24 40.9393L33.4697 31.4697C33.7626 31.1768 34.2374 31.1768 34.5303 31.4697C34.8232 31.7626 34.8232 32.2374 34.5303 32.5303L24.5303 42.5303C24.2374 42.8232 23.7626 42.8232 23.4697 42.5303L13.4697 32.5303C13.1768 32.2374 13.1768 31.7626 13.4697 31.4697Z" fill="#0C2141"/>
</svg>
