<svg width="48" height="48" viewBox="0 0 48 48" fill="none" xmlns="http://www.w3.org/2000/svg">
<path fill-rule="evenodd" clip-rule="evenodd" d="M4 11.25C4.41421 11.25 4.75 11.5858 4.75 12V23.101C5.06018 22.6419 5.41541 22.2102 5.81282 21.8128C7.45376 20.1719 9.67936 19.25 12 19.25C14.3206 19.25 16.5462 20.1719 18.1872 21.8128C19.6504 23.276 20.5419 25.2042 20.7178 27.25H27.2822C27.4581 25.2042 28.3496 23.276 29.8128 21.8128C31.4538 20.1719 33.6794 19.25 36 19.25C38.3206 19.25 40.5462 20.1719 42.1872 21.8128C42.5846 22.2102 42.9398 22.6419 43.25 23.101V12C43.25 11.5858 43.5858 11.25 44 11.25C44.4142 11.25 44.75 11.5858 44.75 12V28C44.75 30.3206 43.8281 32.5462 42.1872 34.1872C40.5462 35.8281 38.3206 36.75 36 36.75C33.6794 36.75 31.4538 35.8281 29.8128 34.1872C28.3496 32.724 27.4581 30.7958 27.2822 28.75H20.7178C20.5419 30.7958 19.6504 32.724 18.1872 34.1872C16.5462 35.8281 14.3206 36.75 12 36.75C9.67936 36.75 7.45376 35.8281 5.81282 34.1872C4.17187 32.5462 3.25 30.3206 3.25 28V12C3.25 11.5858 3.58579 11.25 4 11.25ZM43.25 28C43.25 26.0772 42.4862 24.2331 41.1265 22.8735C39.7669 21.5138 37.9228 20.75 36 20.75C34.0772 20.75 32.2331 21.5138 30.8735 22.8735C29.5138 24.2331 28.75 26.0772 28.75 28C28.75 29.9228 29.5138 31.7669 30.8735 33.1265C32.2331 34.4862 34.0772 35.25 36 35.25C37.9228 35.25 39.7669 34.4862 41.1265 33.1265C42.4862 31.7669 43.25 29.9228 43.25 28ZM4.75 28C4.75 29.9228 5.51384 31.7669 6.87348 33.1265C8.23311 34.4862 10.0772 35.25 12 35.25C13.9228 35.25 15.7669 34.4862 17.1265 33.1265C18.4862 31.7669 19.25 29.9228 19.25 28C19.25 26.0772 18.4862 24.2331 17.1265 22.8735C15.7669 21.5138 13.9228 20.75 12 20.75C10.0772 20.75 8.23311 21.5138 6.87348 22.8735C5.51384 24.2331 4.75 26.0772 4.75 28Z" fill="#0C2141"/>
</svg>
