<svg width="48" height="48" viewBox="0 0 48 48" fill="none" xmlns="http://www.w3.org/2000/svg">
<path fill-rule="evenodd" clip-rule="evenodd" d="M23.7994 6.93878C23.8617 6.90775 23.9304 6.8916 24 6.8916ZM23.799 6.93899L4.33539 16.6708C3.96491 16.856 3.5144 16.7059 3.32916 16.3354C3.14392 15.9649 3.29409 15.5144 3.66457 15.3291L23.1286 5.59714L23.129 5.59694C23.3995 5.4619 23.6977 5.3916 24 5.3916C24.3023 5.3916 24.6005 5.4619 24.871 5.59694L24.8714 5.59714L44.3354 15.3291C44.7059 15.5144 44.856 15.9649 44.6708 16.3354C44.4856 16.7059 44.0351 16.856 43.6646 16.6708L24.201 6.93899M24 26.75C23.138 26.75 22.3114 27.0924 21.7019 27.7019C21.0924 28.3114 20.75 29.138 20.75 30V36C20.75 36.4142 20.4142 36.75 20 36.75C19.5858 36.75 19.25 36.4142 19.25 36V30C19.25 28.7402 19.7504 27.532 20.6412 26.6412C21.532 25.7504 22.7402 25.25 24 25.25C25.2598 25.25 26.4679 25.7504 27.3587 26.6412C28.2495 27.532 28.75 28.7402 28.75 30V36C28.75 36.4142 28.4142 36.75 28 36.75C27.5858 36.75 27.25 36.4142 27.25 36V30C27.25 29.138 26.9076 28.3114 26.2981 27.7019C25.6886 27.0924 24.8619 26.75 24 26.75Z" fill="#0C2141"/>
<path fill-rule="evenodd" clip-rule="evenodd" d="M8 21.25C8.41421 21.25 8.75 21.5858 8.75 22V38C8.75 38.862 9.09241 39.6886 9.7019 40.2981C10.3114 40.9076 11.138 41.25 12 41.25H36C36.862 41.25 37.6886 40.9076 38.2981 40.2981C38.9076 39.6886 39.25 38.862 39.25 38V22C39.25 21.5858 39.5858 21.25 40 21.25C40.4142 21.25 40.75 21.5858 40.75 22V38C40.75 39.2598 40.2496 40.468 39.3588 41.3588C38.468 42.2496 37.2598 42.75 36 42.75H12C10.7402 42.75 9.53204 42.2496 8.64124 41.3588C7.75044 40.468 7.25 39.2598 7.25 38V22C7.25 21.5858 7.58579 21.25 8 21.25Z" fill="#0C2141"/>
</svg>
