<svg width="48" height="48" viewBox="0 0 48 48" fill="none" xmlns="http://www.w3.org/2000/svg">
<path fill-rule="evenodd" clip-rule="evenodd" d="M24.5245 35.4431C24.831 35.7217 24.8536 36.196 24.575 36.5025L24.555 36.5245C24.2763 36.831 23.802 36.8536 23.4955 36.575C23.189 36.2964 23.1664 35.8221 23.445 35.5156L23.465 35.4936C23.7437 35.1871 24.218 35.1645 24.5245 35.4431Z" fill="#0C2141"/>
<path fill-rule="evenodd" clip-rule="evenodd" d="M15.2 4.75C15.1415 4.75 15.0411 4.77792 14.9371 4.90786C14.8297 5.04215 14.75 5.2536 14.75 5.5V42.5C14.75 42.7464 14.8297 42.9579 14.9371 43.0921C15.0411 43.2221 15.1415 43.25 15.2 43.25H32.8C32.8327 43.25 32.8709 43.2423 32.9144 43.2198C32.9588 43.1968 33.0112 43.1568 33.0629 43.0921C33.1147 43.0273 33.1623 42.942 33.1967 42.8381C33.2311 42.7343 33.25 42.619 33.25 42.5V5.5C33.25 5.38095 33.2311 5.26569 33.1967 5.16189C33.1623 5.05796 33.1147 4.97268 33.0629 4.90786C33.0112 4.84324 32.9588 4.80321 32.9144 4.7802C32.8709 4.7577 32.8327 4.75 32.8 4.75H15.2ZM13.7658 3.97082C14.112 3.53816 14.6219 3.25 15.2 3.25H32.8C33.0825 3.25 33.3563 3.3199 33.6041 3.44816C33.8508 3.57592 34.063 3.75686 34.2342 3.97082C34.4052 4.18458 34.5344 4.43001 34.6206 4.69006C34.7068 4.95024 34.75 5.22508 34.75 5.5V42.5C34.75 42.7749 34.7068 43.0498 34.6206 43.3099C34.5344 43.57 34.4052 43.8154 34.2342 44.0292C34.063 44.2431 33.8508 44.4241 33.6041 44.5518C33.3563 44.6801 33.0825 44.75 32.8 44.75H15.2C14.6219 44.75 14.112 44.4618 13.7658 44.0292C13.4232 43.6009 13.25 43.0492 13.25 42.5V5.5C13.25 4.95075 13.4232 4.39914 13.7658 3.97082Z" fill="#0C2141"/>
</svg>
