<svg width="48" height="48" viewBox="0 0 48 48" fill="none" xmlns="http://www.w3.org/2000/svg">
<path fill-rule="evenodd" clip-rule="evenodd" d="M5.25 22C5.25 17.1675 9.16751 13.25 14 13.25H34C38.8324 13.25 42.75 17.1675 42.75 22V34.8C42.75 35.877 41.877 36.75 40.8 36.75H35.1428C34.7286 36.75 34.3928 36.4142 34.3928 36C34.3928 35.5858 34.7286 35.25 35.1428 35.25H40.8C41.0486 35.25 41.25 35.0486 41.25 34.8V22C41.25 17.9959 38.004 14.75 34 14.75H14C9.99593 14.75 6.75 17.9959 6.75 22V34.8C6.75 35.0486 6.95145 35.25 7.2 35.25H12.8571C13.2714 35.25 13.6071 35.5858 13.6071 36C13.6071 36.4142 13.2714 36.75 12.8571 36.75H7.2C6.12307 36.75 5.25 35.877 5.25 34.8V22Z" fill="#0C2141"/>
<path fill-rule="evenodd" clip-rule="evenodd" d="M17.2 6.75C16.9515 6.75 16.75 6.95147 16.75 7.2V14C16.75 14.4142 16.4142 14.75 16 14.75C15.5858 14.75 15.25 14.4142 15.25 14V7.2C15.25 6.12305 16.123 5.25 17.2 5.25H30.8C31.877 5.25 32.75 6.12307 32.75 7.2V14C32.75 14.4142 32.4142 14.75 32 14.75C31.5858 14.75 31.25 14.4142 31.25 14V7.2C31.25 6.95145 31.0486 6.75 30.8 6.75H17.2Z" fill="#0C2141"/>
<path fill-rule="evenodd" clip-rule="evenodd" d="M14.5952 29.1363V29.1363L12.9381 40.7363C12.8994 41.0075 13.1098 41.25 13.3836 41.25H34.6164C34.8902 41.25 35.1005 41.0075 35.0618 40.7364L33.4048 29.1365V29.1365C33.3729 28.9148 33.183 28.75 32.9592 28.75H15.0407C14.8168 28.75 14.6269 28.9148 14.5952 29.1363ZM13.1103 28.9241C13.2476 27.9637 14.0703 27.25 15.0407 27.25H32.9592C33.9298 27.25 34.7522 27.9637 34.8896 28.9239L36.5466 40.524V40.524C36.7146 41.6989 35.803 42.75 34.6164 42.75H13.3836C12.1969 42.75 11.2854 41.6989 11.4532 40.5241L13.1103 28.9241Z" fill="#0C2141"/>
<path fill-rule="evenodd" clip-rule="evenodd" d="M34.5217 19.4404C34.8296 19.7175 34.8546 20.1917 34.5774 20.4996L34.5574 20.5218C34.2803 20.8296 33.8061 20.8546 33.4982 20.5775C33.1904 20.3004 33.1654 19.8261 33.4426 19.5183L33.4626 19.4961C33.7397 19.1882 34.2139 19.1632 34.5217 19.4404Z" fill="#0C2141"/>
</svg>
