<svg width="25" height="25" viewBox="0 0 25 25" fill="none" xmlns="http://www.w3.org/2000/svg">
<path fill-rule="evenodd" clip-rule="evenodd" d="M12.0423 0.0365658L4.72949 24.4275C4.74548 24.4398 4.76179 24.4519 4.77841 24.4636C5.2083 24.7664 5.77338 24.7971 6.23354 24.5426L12.3573 21.1563L14.4337 22.3045L14.4336 22.3049L18.4806 24.5428C18.9408 24.7973 19.5058 24.7666 19.9357 24.4638C20.3656 24.1609 20.5848 23.6392 20.5002 23.1202L19.3156 15.858L24.3234 10.7292C24.6828 10.3611 24.8063 9.82294 24.6433 9.33497C24.4803 8.847 24.0581 8.49111 23.5496 8.41295L18.817 7.68558L18.817 7.68534L16.6834 7.35741L13.6002 0.78957C13.374 0.307697 12.8897 0 12.3573 0C12.2498 0 12.1442 0.0125555 12.0423 0.0365658Z" fill="#7A8596"/>
<path fill-rule="evenodd" clip-rule="evenodd" d="M13.0753 0.202681L5.72906 24.7048C5.39913 24.7434 5.05976 24.6618 4.77834 24.4636C4.34845 24.1608 4.12926 23.639 4.21391 23.1201L5.39845 15.8579L0.390654 10.729C0.0312269 10.3609 -0.0922386 9.82277 0.0707851 9.3348C0.233809 8.84682 0.655961 8.49094 1.16448 8.41278L8.03123 7.35741L11.1144 0.78957C11.3406 0.307697 11.8249 0 12.3573 0C12.616 0 12.8633 0.0726685 13.0753 0.202681Z" fill="#3B8783"/>
</svg>
