<svg width="25" height="25" viewBox="0 0 25 25" fill="none" xmlns="http://www.w3.org/2000/svg">
<g id="Full=0%">
<path id="Vector (Stroke)" fill-rule="evenodd" clip-rule="evenodd" d="M12.3573 0C12.8896 0 13.374 0.307697 13.6002 0.78957L16.6833 7.35741L23.5501 8.41278C24.0586 8.49094 24.4807 8.84682 24.6437 9.3348C24.8068 9.82277 24.6833 10.3609 24.3239 10.729L19.3161 15.8579L20.5006 23.1201C20.5853 23.639 20.3661 24.1608 19.9362 24.4636C19.5063 24.7664 18.9412 24.7971 18.4811 24.5426L12.3573 21.1563L6.23347 24.5426C5.7733 24.7971 5.20823 24.7664 4.77834 24.4636C4.34845 24.1608 4.12926 23.639 4.21391 23.1201L5.39845 15.8579L0.390654 10.729C0.0312269 10.3609 -0.0922386 9.82277 0.0707851 9.3348C0.233809 8.84682 0.655961 8.49094 1.16448 8.41278L8.03123 7.35741L11.1144 0.78957C11.3406 0.307697 11.8249 0 12.3573 0Z" fill="#7A8596"/>
</g>
</svg>
