<svg width="25" height="25" viewBox="0 0 25 25" fill="none" xmlns="http://www.w3.org/2000/svg">
<g id="Full=75%">
<path id="Intersect" fill-rule="evenodd" clip-rule="evenodd" d="M14.4341 22.3047L18.8172 7.68536L23.5501 8.41277C24.0586 8.49093 24.4807 8.84681 24.6438 9.33479C24.8068 9.82276 24.6833 10.3609 24.3239 10.729L19.3161 15.8579L20.5006 23.1201C20.5853 23.639 20.3661 24.1608 19.9362 24.4636C19.5063 24.7664 18.9412 24.7971 18.4811 24.5426L14.4341 22.3047Z" fill="#7A8596"/>
<path id="Intersect_2" fill-rule="evenodd" clip-rule="evenodd" d="M4.72949 24.4275L12.0423 0.0365658C12.1442 0.0125555 12.2498 0 12.3573 0C12.8897 0 13.374 0.307697 13.6002 0.78957L16.6834 7.35741L18.817 7.68534L14.4339 22.3046L12.3573 21.1563L6.23354 24.5426C5.77338 24.7971 5.2083 24.7664 4.77841 24.4636C4.76179 24.4519 4.74548 24.4398 4.72949 24.4275Z" fill="#3B8783"/>
<path id="Intersect_3" fill-rule="evenodd" clip-rule="evenodd" d="M12.0445 0.0360413L4.7311 24.4288C4.33251 24.1218 4.13242 23.6197 4.21391 23.1201L5.39845 15.8579L0.390654 10.729C0.0312269 10.3609 -0.0922386 9.82277 0.0707851 9.33479C0.233809 8.84682 0.655961 8.49094 1.16448 8.41278L8.03123 7.3574L11.1144 0.789568C11.2952 0.404325 11.6411 0.130407 12.0445 0.0360413Z" fill="#3B8783"/>
</g>
</svg>
