<?xml version="1.0" encoding="utf-8"?>
<!-- Generator: Adobe Illustrator 28.2.0, SVG Export Plug-In . SVG Version: 6.00 Build 0)  -->
<svg version="1.1" id="Layer_1" xmlns="http://www.w3.org/2000/svg" xmlns:xlink="http://www.w3.org/1999/xlink" x="0px" y="0px"
	 viewBox="0 0 25 25" style="enable-background:new 0 0 25 25;" xml:space="preserve">
<style type="text/css">
	.st0{fill-rule:evenodd;clip-rule:evenodd;fill:#7A8596;}
	.st1{fill-rule:evenodd;clip-rule:evenodd;fill:#3B8783;}
</style>
<path class="st0" d="M14.4,22.3l4.4-14.6l4.7,0.7c0.5,0.1,0.9,0.4,1.1,0.9c0.2,0.5,0,1-0.3,1.4l-5,5.1l1.2,7.3
	c0.1,0.5-0.1,1-0.6,1.3c-0.4,0.3-1,0.3-1.5,0.1L14.4,22.3z"/>
<path class="st1" d="M16.7,7.4l-3.1-6.6C13.4,0.3,12.9,0,12.4,0c-0.1,0-0.2,0-0.3,0l0,0c0,0,0,0,0,0c0,0,0,0,0,0l0,0
	c-0.4,0.1-0.7,0.4-0.9,0.8L8,7.4L1.2,8.4C0.7,8.5,0.2,8.8,0.1,9.3s0,1,0.3,1.4l5,5.1l-1.2,7.3c-0.1,0.5,0.1,1,0.5,1.3l0,0
	c0,0,0,0,0,0c0,0,0,0,0,0v0c0,0,0,0,0,0c0.4,0.3,1,0.3,1.5,0.1l6.1-3.4l2.1,1.2L19,7.7L16.7,7.4z"/>
</svg>
