<svg version="1.1" id="Layer_1" xmlns="http://www.w3.org/2000/svg" xmlns:xlink="http://www.w3.org/1999/xlink" x="0px" y="0px"
	 viewBox="0 0 25 25" style="enable-background:new 0 0 25 25;" xml:space="preserve">
<style type="text/css">
	.st0{fill-rule:evenodd;clip-rule:evenodd;fill:#7A8596;}
	.st1{clip-path:url(#SVGID_00000176749049732302796020000018437108101043658901_);}
	.st2{fill-rule:evenodd;clip-rule:evenodd;fill:#3B8783;}
</style>
<path class="st0" d="M12.4,0c0.5,0,1,0.3,1.2,0.8l3.1,6.6l6.9,1.1c0.5,0.1,0.9,0.4,1.1,0.9c0.2,0.5,0,1-0.3,1.4l-5,5.1l1.2,7.3
	c0.1,0.5-0.1,1-0.6,1.3c-0.4,0.3-1,0.3-1.5,0.1l-6.1-3.4l-6.1,3.4c-0.5,0.3-1,0.2-1.5-0.1c-0.4-0.3-0.6-0.8-0.6-1.3l1.2-7.3l-5-5.1
	C0,10.4-0.1,9.8,0.1,9.3c0.2-0.5,0.6-0.8,1.1-0.9L8,7.4l3.1-6.6C11.3,0.3,11.8,0,12.4,0z"/>
<g>
	<defs>
		<rect id="SVGID_1_" width="12" height="25"/>
	</defs>
	<clipPath id="SVGID_00000005948709553781100790000003880612927580559548_">
		<use xlink:href="#SVGID_1_"  style="overflow:visible;"/>
	</clipPath>
	<g style="clip-path:url(#SVGID_00000005948709553781100790000003880612927580559548_);">
		<path class="st2" d="M12.4,0c0.5,0,1,0.3,1.2,0.8l3.1,6.6l6.9,1.1c0.5,0.1,0.9,0.4,1.1,0.9c0.2,0.5,0,1-0.3,1.4l-5,5.1l1.2,7.3
			c0.1,0.5-0.1,1-0.6,1.3c-0.4,0.3-1,0.3-1.5,0.1l-6.1-3.4l-6.1,3.4c-0.5,0.3-1,0.2-1.5-0.1c-0.4-0.3-0.6-0.8-0.6-1.3l1.2-7.3
			l-5-5.1C0,10.4-0.1,9.8,0.1,9.3c0.2-0.5,0.6-0.8,1.1-0.9L8,7.4l3.1-6.6C11.3,0.3,11.8,0,12.4,0z"/>
	</g>
</g>
</svg>
