<svg width="48" height="48" viewBox="0 0 48 48" fill="none" xmlns="http://www.w3.org/2000/svg">
<path fill-rule="evenodd" clip-rule="evenodd" d="M24 13.25C24.4142 13.25 24.75 13.5858 24.75 14V23.25H34C34.4142 23.25 34.75 23.5858 34.75 24C34.75 24.4142 34.4142 24.75 34 24.75H24C23.5858 24.75 23.25 24.4142 23.25 24V14C23.25 13.5858 23.5858 13.25 24 13.25Z" fill="currentColor"/>
<path fill-rule="evenodd" clip-rule="evenodd" d="M5.25 24C5.25 13.6444 13.6444 5.25 24 5.25C34.3556 5.25 42.75 13.6444 42.75 24C42.75 34.3556 34.3556 42.75 24 42.75C13.6444 42.75 5.25 34.3556 5.25 24ZM24 6.75C14.4728 6.75 6.75 14.4728 6.75 24C6.75 33.5272 14.4728 41.25 24 41.25C33.5272 41.25 41.25 33.5272 41.25 24C41.25 14.4728 33.5272 6.75 24 6.75Z" fill="currentColor"/>
</svg>
