<svg width="48" height="48" viewBox="0 0 48 48" fill="none" xmlns="http://www.w3.org/2000/svg">
<path fill-rule="evenodd" clip-rule="evenodd" d="M19.2 18.75C18.9515 18.75 18.75 18.9515 18.75 19.2V38.8C18.75 39.0486 18.9514 39.25 19.2 39.25H38.8C39.0486 39.25 39.25 39.0486 39.25 38.8V19.2C39.25 18.9514 39.0486 18.75 38.8 18.75H19.2ZM17.25 19.2C17.25 18.123 18.123 17.25 19.2 17.25H38.8C39.877 17.25 40.75 18.1231 40.75 19.2V38.8C40.75 39.877 39.877 40.75 38.8 40.75H19.2C18.1231 40.75 17.25 39.877 17.25 38.8V19.2Z" fill="currentColor"/>
<path fill-rule="evenodd" clip-rule="evenodd" d="M7.25 9.2C7.25 8.12305 8.12305 7.25 9.2 7.25H28.8C29.877 7.25 30.75 8.12307 30.75 9.2V18C30.75 18.4142 30.4142 18.75 30 18.75C29.5858 18.75 29.25 18.4142 29.25 18V9.2C29.25 8.95145 29.0486 8.75 28.8 8.75H9.2C8.95147 8.75 8.75 8.95147 8.75 9.2V28.8C8.75 29.0486 8.95145 29.25 9.2 29.25H18C18.4142 29.25 18.75 29.5858 18.75 30C18.75 30.4142 18.4142 30.75 18 30.75H9.2C8.12307 30.75 7.25 29.877 7.25 28.8V9.2Z" fill="currentColor"/>
</svg>
