<svg width="48" height="48" viewBox="0 0 48 48" fill="none" xmlns="http://www.w3.org/2000/svg">
<path fill-rule="evenodd" clip-rule="evenodd" d="M24 4.75C13.3682 4.75 4.75 13.3682 4.75 24C4.75 34.6318 13.3682 43.25 24 43.25C34.6318 43.25 43.25 34.6318 43.25 24C43.25 13.3682 34.6318 4.75 24 4.75ZM3.25 24C3.25 12.5398 12.5398 3.25 24 3.25C35.4602 3.25 44.75 12.5398 44.75 24C44.75 35.4602 35.4602 44.75 24 44.75C12.5398 44.75 3.25 35.4602 3.25 24ZM11.25 18C11.25 17.5858 11.5858 17.25 12 17.25H36C36.4142 17.25 36.75 17.5858 36.75 18C36.75 18.4142 36.4142 18.75 36 18.75H12C11.5858 18.75 11.25 18.4142 11.25 18ZM15.25 26C15.25 25.5858 15.5858 25.25 16 25.25H32C32.4142 25.25 32.75 25.5858 32.75 26C32.75 26.4142 32.4142 26.75 32 26.75H16C15.5858 26.75 15.25 26.4142 15.25 26ZM19.25 34C19.25 33.5858 19.5858 33.25 20 33.25H28C28.4142 33.25 28.75 33.5858 28.75 34C28.75 34.4142 28.4142 34.75 28 34.75H20C19.5858 34.75 19.25 34.4142 19.25 34Z" fill="currentColor"/>
</svg>
