<svg width="48" height="48" viewBox="0 0 48 48" fill="none" xmlns="http://www.w3.org/2000/svg">
<path fill-rule="evenodd" clip-rule="evenodd" d="M24 36.5C30.3513 36.5 35.5 31.3513 35.5 25C35.5 18.6487 30.3513 13.5 24 13.5C17.6487 13.5 12.5 18.6487 12.5 25C12.5 31.3513 17.6487 36.5 24 36.5ZM24 38C31.1797 38 37 32.1797 37 25C37 17.8203 31.1797 12 24 12C16.8203 12 11 17.8203 11 25C11 32.1797 16.8203 38 24 38Z" fill="currentColor"/>
<path fill-rule="evenodd" clip-rule="evenodd" d="M41.75 25C41.75 25.4142 41.4142 25.75 41 25.75H7C6.58578 25.75 6.25 25.4142 6.25 25C6.25 24.5858 6.58578 24.25 7 24.25H41C41.4142 24.25 41.75 24.5858 41.75 25Z" fill="currentColor"/>
</svg>
