<svg width="48" height="48" viewBox="0 0 48 48" fill="none" xmlns="http://www.w3.org/2000/svg">
<path fill-rule="evenodd" clip-rule="evenodd" d="M24 15.25C24.4142 15.25 24.75 15.5858 24.75 16V23.25H32C32.4142 23.25 32.75 23.5858 32.75 24C32.75 24.4142 32.4142 24.75 32 24.75H24.75V32C24.75 32.4142 24.4142 32.75 24 32.75C23.5858 32.75 23.25 32.4142 23.25 32V24.75H16C15.5858 24.75 15.25 24.4142 15.25 24C15.25 23.5858 15.5858 23.25 16 23.25H23.25V16C23.25 15.5858 23.5858 15.25 24 15.25Z" fill="currentColor"/>
</svg>
