<svg width="38" height="28" viewBox="0 0 38 28" fill="none" xmlns="http://www.w3.org/2000/svg">
<path id="&#226;&#156;&#168; Get the Care You Deserve with HCA" d="M14.0839 20.6038C14.0839 23.7736 11.4266 28 6.64336 28C1.59441 28 0 24.566 0 20.0755C0 11.8868 11.958 0 14.8811 0C17.007 0 17.5385 0.79246 17.5385 2.64152C17.5385 5.54717 13.8182 10.3019 13.8182 15.3208C13.8182 16.9057 14.0839 18.7547 14.0839 20.6038ZM34.5455 20.6038C34.5455 23.7736 31.8881 28 27.1049 28C22.0559 28 20.4615 24.566 20.4615 20.0755C20.4615 11.8868 32.4196 0 35.3427 0C37.4685 0 38 0.79246 38 2.64152C38 5.54717 34.2797 10.3019 34.2797 15.3208C34.2797 16.9057 34.5455 18.7547 34.5455 20.6038Z" fill="currentColor"/>
</svg>
