<svg width="48" height="48" viewBox="0 0 48 48" fill="none" xmlns="http://www.w3.org/2000/svg">
<path fill-rule="evenodd" clip-rule="evenodd" d="M19.6 20.5H34C34.4142 20.5 34.75 20.8358 34.75 21.25C34.75 21.6642 34.4142 22 34 22H19.602L19.5969 22.0001C19.5908 22.0002 19.5796 22.0004 19.5639 22.001C19.5323 22.0021 19.4824 22.0045 19.4166 22.0095C19.2848 22.0196 19.0913 22.0402 18.8568 22.0821C18.3847 22.1664 17.7653 22.3337 17.1542 22.6611C16.5469 22.9864 15.9548 23.4655 15.5118 24.1775C15.0702 24.8872 14.75 25.8711 14.75 27.25C14.75 30.3725 16.0211 31.8111 17.1871 32.5139C17.7943 32.8798 18.4075 33.0658 18.8727 33.1592C19.104 33.2057 19.2946 33.2285 19.4237 33.2396C19.4881 33.2451 19.5369 33.2477 19.5672 33.249C19.5824 33.2496 19.5929 33.2498 19.5985 33.2499L19.6025 33.25L19.6015 33.25L21.2 33.25C21.6142 33.25 21.95 33.5858 21.95 34C21.95 34.4142 21.6142 34.75 21.2 34.75H19.6V34C19.6 34.75 19.6 34.75 19.6 34.75L19.598 34.75L19.5954 34.75L19.5888 34.7499L19.5694 34.7497C19.5538 34.7493 19.5328 34.7488 19.507 34.7477C19.4553 34.7457 19.3837 34.7417 19.295 34.7341C19.1179 34.7188 18.871 34.6888 18.5773 34.6298C17.9925 34.5124 17.2057 34.2764 16.4129 33.7986C14.7789 32.8139 13.25 30.8775 13.25 27.25C13.25 25.6289 13.6298 24.3628 14.2382 23.385C14.8452 22.4095 15.6531 21.7636 16.4458 21.3389C17.2347 20.9163 18.0153 20.7086 18.5932 20.6054C18.8837 20.5535 19.1277 20.5273 19.3021 20.5139C19.3895 20.5072 19.4599 20.5037 19.5103 20.5019C19.5356 20.501 19.5559 20.5006 19.571 20.5003L19.5896 20.5L19.5958 20.5L19.5982 20.5L19.6 20.5C19.6 20.5 19.6 20.5 19.6 21.25V20.5Z" fill="currentColor"/>
<path fill-rule="evenodd" clip-rule="evenodd" d="M26.4791 13.4604C26.777 13.1727 27.2518 13.1811 27.5396 13.4791L34.5396 20.7291C34.6778 20.8722 34.7534 21.0644 34.7499 21.2634C34.7463 21.4624 34.6638 21.6518 34.5206 21.7899L27.5206 28.5399C27.2224 28.8274 26.7476 28.8188 26.4601 28.5206C26.1726 28.2224 26.1812 27.7476 26.4794 27.4601L32.9392 21.2311L26.4604 14.5209C26.1727 14.223 26.1811 13.7482 26.4791 13.4604Z" fill="currentColor"/>
<path fill-rule="evenodd" clip-rule="evenodd" d="M3.25 24C3.25 12.5398 12.5398 3.25 24 3.25C35.4602 3.25 44.75 12.5398 44.75 24C44.75 35.4602 35.4602 44.75 24 44.75C12.5398 44.75 3.25 35.4602 3.25 24ZM24 4.75C13.3682 4.75 4.75 13.3682 4.75 24C4.75 34.6318 13.3682 43.25 24 43.25C34.6318 43.25 43.25 34.6318 43.25 24C43.25 13.3682 34.6318 4.75 24 4.75Z" fill="currentColor"/>
</svg>
