<svg width="27" height="26" viewBox="0 0 27 26" fill="none" xmlns="http://www.w3.org/2000/svg">
<path id="Vector (Stroke)" fill-rule="evenodd" clip-rule="evenodd" d="M13.4283 0C13.973 0 14.4685 0.314815 14.7 0.807836L17.8544 7.52762L24.8799 8.60741C25.4001 8.68738 25.8321 9.0515 25.9988 9.55076C26.1656 10.05 26.0393 10.6006 25.6716 10.9773L20.548 16.2247L21.7599 23.655C21.8466 24.1859 21.6223 24.7197 21.1825 25.0295C20.7426 25.3394 20.1645 25.3708 19.6937 25.1104L13.4283 21.6458L7.16297 25.1104C6.69217 25.3708 6.11403 25.3394 5.6742 25.0295C5.23437 24.7197 5.01012 24.1859 5.09672 23.655L6.30864 16.2247L1.18509 10.9773C0.817349 10.6006 0.691029 10.05 0.857822 9.55076C1.02461 9.0515 1.45653 8.68738 1.9768 8.60741L9.00229 7.52762L12.1567 0.807836C12.3881 0.314815 12.8837 0 13.4283 0Z" fill="currentColor"/>
</svg>
