<svg xmlns="http://www.w3.org/2000/svg" viewBox="0 0 14 13" fill="none">
<path fill-rule="evenodd" clip-rule="evenodd" d="M6.42857 0.0714417C6.7055 0.0714417 6.95748 0.231516 7.07516 0.482203L8.67909 3.89902L12.2513 4.44807C12.5159 4.48872 12.7355 4.67387 12.8203 4.92773C12.9051 5.18159 12.8409 5.46156 12.6539 5.65307L10.0487 8.32126L10.665 12.0993C10.709 12.3693 10.595 12.6407 10.3713 12.7983C10.1477 12.9558 9.85372 12.9718 9.61433 12.8394L6.42857 11.0777L3.24281 12.8394C3.00342 12.9718 2.70945 12.9558 2.48582 12.7983C2.26218 12.6407 2.14815 12.3693 2.19218 12.0993L2.80841 8.32126L0.203229 5.65307C0.016245 5.46156 -0.0479849 5.18159 0.0368242 4.92773C0.121633 4.67387 0.341248 4.48872 0.605793 4.44807L4.17805 3.89902L5.78198 0.482203C5.89966 0.231516 6.15164 0.0714417 6.42857 0.0714417Z" fill="currentColor"/>
</svg>
