<svg viewBox="0 0 26 26" fill="none" xmlns="http://www.w3.org/2000/svg">
<path fill-rule="evenodd" clip-rule="evenodd" d="M16.9035 8.60421C16.5448 8.54908 16.2372 8.31896 16.083 7.99047L12.9286 1.27069C12.8766 1.15995 12.7653 1.08923 12.6429 1.08923C12.5206 1.08923 12.4093 1.15995 12.3573 1.27069L9.20289 7.99047C9.04869 8.31896 8.74103 8.54908 8.38236 8.60421L1.35687 9.684C1.24001 9.70197 1.14299 9.78375 1.10553 9.8959C1.06806 10.008 1.09644 10.1317 1.17904 10.2163L6.3026 15.4638C6.54421 15.7113 6.65395 16.0588 6.59827 16.4001L5.38635 23.8303C5.3669 23.9496 5.41727 24.0695 5.51606 24.1391L4.8888 25.0295C4.44897 24.7197 4.22472 24.1859 4.31132 23.655L5.52324 16.2247L0.399685 10.9773C0.0319487 10.6006 -0.0943709 10.05 0.0724215 9.55076C0.239214 9.0515 0.671125 8.68738 1.1914 8.60741L8.21689 7.52762L11.3713 0.807836C11.6027 0.314815 12.0983 0 12.6429 0C13.1876 0 13.6831 0.314815 13.9146 0.807836L17.069 7.52762L24.0945 8.60741C24.6147 8.68738 25.0467 9.0515 25.2134 9.55076C25.3802 10.05 25.2539 10.6006 24.8862 10.9773L19.7626 16.2247L20.9745 23.655C21.0612 24.1859 20.8369 24.7197 20.3971 25.0295C19.9572 25.3394 19.3791 25.3708 18.9083 25.1104L12.6429 21.6458L6.37757 25.1104C5.90677 25.3708 5.32863 25.3394 4.8888 25.0295L5.51606 24.1391C5.61485 24.2086 5.74471 24.2157 5.85046 24.1572L12.1158 20.6926C12.4438 20.5112 12.842 20.5112 13.17 20.6926L19.4354 24.1572C19.5412 24.2157 19.671 24.2086 19.7698 24.1391C19.8686 24.0695 19.919 23.9496 19.8995 23.8303L18.6876 16.4001C18.6319 16.0588 18.7417 15.7113 18.9833 15.4638L24.1068 10.2163C24.1894 10.1317 24.2178 10.008 24.1803 9.89589C24.1429 9.78375 24.0459 9.70197 23.929 9.684L16.9035 8.60421Z" fill="currentColor"/>
</svg>
